{"glyphs":{"0":{"ha":608,"x_min":54,"x_max":554,"o":"m 301 -11 q 112 90 169 -11 q 54 411 54 192 q 116 727 54 621 q 313 833 178 833 q 499 735 444 833 q 554 424 554 638 q 495 97 554 204 q 301 -11 436 -11 m 300 47 q 447 140 403 47 q 490 428 490 233 q 451 694 490 611 q 315 776 413 776 q 165 681 211 776 q 119 400 119 586 q 163 131 119 214 q 300 47 207 47 z "},"1":{"ha":608,"x_min":54,"x_max":554,"o":"m 56 0 q 54 50 54 8 q 144 58 54 56 q 282 60 233 60 l 301 767 q 216 752 292 767 q 113 732 140 738 q 106 753 110 738 q 103 779 103 768 q 217 810 103 785 q 346 835 331 835 q 367 829 356 835 l 349 60 l 479 60 q 527 61 506 60 q 554 64 549 63 q 546 0 554 0 l 56 0 z "},"2":{"ha":608,"x_min":54,"x_max":553,"o":"m 58 0 q 54 26 54 13 q 58 48 54 39 q 70 69 61 57 q 86 94 79 82 q 154 188 117 143 q 251 299 192 233 q 361 424 321 374 q 428 533 401 475 q 456 651 456 590 q 427 742 456 711 q 321 772 399 772 q 188 756 246 772 q 93 717 129 740 q 85 765 85 739 q 116 794 85 778 q 202 822 147 810 q 325 833 257 833 q 447 813 404 833 q 507 753 490 792 q 524 653 524 715 q 494 519 524 583 q 421 400 465 456 q 303 264 376 344 q 208 156 247 203 q 136 60 169 110 l 421 60 q 494 62 453 60 q 553 64 536 64 q 551 21 553 42 q 544 0 550 0 l 58 0 z "},"3":{"ha":608,"x_min":69,"x_max":538,"o":"m 226 -139 q 141 -129 176 -139 q 88 -106 106 -119 q 69 -79 69 -92 q 79 -31 69 -57 q 144 -67 110 -56 q 231 -78 179 -78 q 358 -40 303 -78 q 442 66 413 -1 q 472 215 472 133 q 441 316 472 281 q 361 364 410 351 q 242 379 313 376 l 239 425 q 386 538 333 478 q 439 663 439 599 q 410 739 439 706 q 306 772 381 772 q 176 758 229 772 q 82 715 124 743 q 75 763 75 729 q 104 794 75 778 q 188 822 133 811 q 313 833 242 833 q 463 789 421 833 q 506 672 506 744 q 335 422 506 543 q 481 365 425 414 q 538 213 538 315 q 499 30 538 110 q 390 -94 461 -50 q 226 -139 319 -139 z "},"4":{"ha":608,"x_min":58,"x_max":561,"o":"m 371 226 l 74 226 q 58 269 58 242 q 107 425 58 315 q 228 649 156 535 q 374 828 301 764 q 404 839 386 839 q 438 829 424 839 l 433 286 q 513 287 479 286 q 558 288 547 288 q 560 281 558 286 q 561 263 561 275 q 540 226 561 226 l 433 226 l 433 25 q 431 7 433 11 q 414 1 429 3 q 371 0 399 0 l 371 226 m 371 286 l 382 753 q 224 538 303 668 q 115 286 144 407 l 371 286 z "},"5":{"ha":608,"x_min":57,"x_max":540,"o":"m 221 -139 q 133 -130 169 -139 q 76 -108 96 -121 q 57 -83 57 -94 q 65 -32 57 -51 q 221 -79 119 -79 q 417 13 357 -79 q 476 264 476 106 q 400 435 476 389 q 219 481 324 481 q 114 469 154 481 q 71 458 74 458 l 108 833 l 533 833 q 527 785 533 794 q 496 775 521 775 l 163 778 l 136 525 q 169 531 142 528 q 240 535 196 535 q 449 483 357 539 q 540 269 540 428 q 466 -33 540 74 q 221 -139 392 -139 z "},"6":{"ha":608,"x_min":57,"x_max":557,"o":"m 343 607 q 499 540 442 607 q 557 338 557 474 q 492 77 557 167 q 292 -12 426 -12 q 143 38 194 -12 q 74 178 92 89 q 57 406 57 267 q 145 837 57 700 q 376 974 233 974 q 485 963 440 974 q 529 935 529 953 q 524 890 529 910 q 460 908 492 903 q 374 914 428 914 q 249 866 304 914 q 158 718 193 818 q 117 468 122 618 q 208 572 151 536 q 343 607 265 607 m 293 46 q 443 120 390 46 q 496 322 496 194 q 452 492 496 436 q 326 549 408 549 q 207 508 261 549 q 117 393 153 468 q 153 136 117 226 q 293 46 190 46 z "},"7":{"ha":608,"x_min":75,"x_max":575,"o":"m 182 -117 q 118 -100 118 -117 q 276 402 175 169 q 478 776 376 635 l 440 776 l 96 775 q 75 833 75 775 l 575 833 q 182 -117 281 376 z "},"8":{"ha":608,"x_min":60,"x_max":560,"o":"m 465 456 q 535 367 511 415 q 560 251 560 319 q 498 58 560 129 q 318 -12 436 -12 q 124 59 189 -12 q 60 251 60 131 q 113 415 60 342 q 244 525 165 489 q 153 581 183 557 q 90 654 111 610 q 69 747 69 699 q 138 921 69 861 q 308 981 207 981 q 478 933 408 981 q 549 757 549 885 q 500 618 549 675 q 376 518 451 561 q 465 456 428 489 m 131 751 q 151 672 131 707 q 215 606 171 636 q 257 580 229 594 q 315 550 285 565 q 441 637 392 585 q 490 754 490 689 q 438 885 490 849 q 314 921 386 921 q 183 878 236 921 q 131 751 131 836 m 315 47 q 451 103 403 47 q 500 251 500 158 q 476 351 500 311 q 411 426 453 392 q 308 493 379 456 q 174 399 228 464 q 119 253 119 333 q 170 104 119 161 q 315 47 221 47 z "},"9":{"ha":608,"x_min":54,"x_max":554,"o":"m 319 847 q 466 803 415 847 q 535 669 517 758 q 554 428 553 581 q 465 -3 553 138 q 203 -143 378 -143 q 122 -136 154 -143 q 89 -114 89 -129 q 94 -71 89 -99 q 199 -83 136 -83 q 493 358 471 -83 q 272 222 421 222 q 115 292 175 222 q 54 494 54 361 q 119 759 54 671 q 319 847 185 847 m 288 282 q 401 321 349 282 q 494 432 454 360 l 494 433 q 483 624 494 549 q 433 744 471 699 q 319 789 394 789 q 167 717 219 789 q 115 506 115 646 q 162 338 115 394 q 288 282 208 282 z "},"\u0000":{"ha":0,"x_min":0,"x_max":0,"o":""},"\r":{"ha":247,"x_min":0,"x_max":0,"o":""}," ":{"ha":247,"x_min":0,"x_max":0,"o":""},"A":{"ha":606,"x_min":11,"x_max":594,"o":"m 594 11 q 568 -1 594 -1 q 531 0 544 -1 l 456 276 l 150 276 l 81 13 q 73 1 79 3 q 50 -1 67 -1 q 11 0 28 -1 l 278 969 q 299 978 281 978 q 325 975 314 978 l 593 17 l 594 11 m 440 336 l 365 614 q 303 888 308 824 q 239 614 294 824 l 165 336 l 440 336 z "},"Á":{"ha":606,"x_min":11,"x_max":594,"o":"m 594 11 q 568 -1 594 -1 q 531 0 544 -1 l 456 276 l 150 276 l 81 13 q 73 1 79 3 q 50 -1 67 -1 q 11 0 28 -1 l 278 969 q 299 978 281 978 q 325 975 314 978 l 593 17 l 594 11 m 440 336 l 365 614 q 303 888 308 824 q 239 614 294 824 l 165 336 l 440 336 m 221 1072 q 207 1088 215 1072 q 196 1110 199 1104 q 315 1217 249 1163 q 386 1272 382 1272 q 406 1253 397 1272 q 417 1221 415 1235 q 342 1160 408 1211 q 221 1072 276 1110 z "},"Ă":{"ha":606,"x_min":11,"x_max":594,"o":"m 594 11 q 568 -1 594 -1 q 531 0 544 -1 l 456 276 l 150 276 l 81 13 q 73 1 79 3 q 50 -1 67 -1 q 11 0 28 -1 l 278 969 q 299 978 281 978 q 325 975 314 978 l 593 17 l 594 11 m 440 336 l 365 614 q 303 888 308 824 q 239 614 294 824 l 165 336 l 440 336 m 300 1076 q 215 1105 253 1076 q 157 1170 178 1133 q 136 1229 136 1207 q 146 1251 136 1243 q 175 1263 156 1258 q 301 1136 219 1136 q 374 1166 349 1136 q 419 1247 399 1196 q 436 1258 425 1258 q 458 1249 447 1258 q 469 1228 468 1240 q 409 1121 450 1165 q 300 1076 368 1076 z "},"Ắ":{"ha":606,"x_min":11,"x_max":594,"o":"m 301 1274 q 288 1289 296 1274 q 278 1310 281 1304 q 392 1413 329 1361 q 460 1465 456 1465 q 479 1448 471 1465 q 489 1417 488 1431 q 420 1360 483 1408 q 301 1274 357 1311 m 300 1072 q 219 1099 256 1072 q 163 1163 183 1126 q 143 1219 143 1199 q 152 1240 143 1232 q 179 1251 161 1247 q 226 1165 197 1201 q 301 1129 254 1129 q 371 1158 347 1129 q 414 1236 394 1188 q 431 1247 419 1247 q 451 1238 442 1247 q 463 1218 461 1229 q 300 1072 414 1072 m 594 11 q 568 -1 594 -1 q 531 0 544 -1 l 456 276 l 150 276 l 81 13 q 73 1 79 3 q 50 -1 67 -1 q 11 0 28 -1 l 278 969 q 299 978 281 978 q 325 975 314 978 l 593 17 l 594 11 m 440 336 l 365 614 q 303 888 308 824 q 239 614 294 824 l 165 336 l 440 336 z "},"Ặ":{"ha":606,"x_min":11,"x_max":594,"o":"m 594 11 q 568 -1 594 -1 q 531 0 544 -1 l 456 276 l 150 276 l 81 13 q 73 1 79 3 q 50 -1 67 -1 q 11 0 28 -1 l 278 969 q 299 978 281 978 q 325 975 314 978 l 593 17 l 594 11 m 440 336 l 365 614 q 303 888 308 824 q 239 614 294 824 l 165 336 l 440 336 m 301 -211 q 275 -198 283 -211 q 267 -157 267 -185 q 306 -104 269 -104 q 333 -117 325 -104 q 342 -157 342 -129 q 301 -211 339 -211 m 300 1076 q 215 1105 253 1076 q 157 1170 178 1133 q 136 1229 136 1207 q 146 1251 136 1243 q 175 1263 156 1258 q 301 1136 219 1136 q 374 1166 349 1136 q 419 1247 399 1196 q 436 1258 425 1258 q 458 1249 447 1258 q 469 1228 468 1240 q 409 1121 450 1165 q 300 1076 368 1076 z "},"Ằ":{"ha":606,"x_min":11,"x_max":594,"o":"m 338 1303 q 327 1283 335 1297 q 314 1268 319 1268 q 198 1353 261 1304 q 126 1410 135 1401 q 137 1441 128 1422 q 156 1460 146 1460 q 224 1407 161 1460 q 338 1303 288 1354 m 179 1251 q 226 1165 197 1201 q 301 1129 254 1129 q 371 1158 347 1129 q 414 1236 394 1188 q 431 1247 419 1247 q 451 1238 442 1247 q 463 1218 461 1229 q 300 1072 414 1072 q 219 1099 256 1072 q 163 1163 183 1126 q 143 1219 143 1199 q 152 1240 143 1232 q 179 1251 161 1247 m 594 11 q 568 -1 594 -1 q 531 0 544 -1 l 456 276 l 150 276 l 81 13 q 73 1 79 3 q 50 -1 67 -1 q 11 0 28 -1 l 278 969 q 299 978 281 978 q 325 975 314 978 l 593 17 l 594 11 m 440 336 l 365 614 q 303 888 308 824 q 239 614 294 824 l 165 336 l 440 336 z "},"Ẳ":{"ha":606,"x_min":11,"x_max":594,"o":"m 333 1368 q 279 1424 333 1424 q 228 1408 250 1424 l 228 1454 q 243 1467 228 1460 q 278 1474 258 1474 q 360 1448 332 1474 q 388 1374 388 1422 q 374 1326 388 1343 q 347 1301 361 1310 q 328 1288 333 1292 q 320 1273 322 1283 q 318 1260 318 1263 q 294 1257 315 1257 l 278 1258 q 277 1263 278 1260 q 276 1272 276 1267 q 281 1293 276 1283 q 306 1318 289 1306 q 326 1338 319 1328 q 333 1368 333 1347 m 300 1072 q 219 1099 256 1072 q 163 1163 183 1126 q 143 1219 143 1199 q 152 1240 143 1232 q 179 1251 161 1247 q 226 1165 197 1201 q 301 1129 254 1129 q 371 1158 347 1129 q 414 1236 394 1188 q 431 1247 419 1247 q 451 1238 442 1247 q 463 1218 461 1229 q 300 1072 414 1072 m 594 11 q 568 -1 594 -1 q 531 0 544 -1 l 456 276 l 150 276 l 81 13 q 73 1 79 3 q 50 -1 67 -1 q 11 0 28 -1 l 278 969 q 299 978 281 978 q 325 975 314 978 l 593 17 l 594 11 m 440 336 l 365 614 q 303 888 308 824 q 239 614 294 824 l 165 336 l 440 336 z "},"Ẵ":{"ha":606,"x_min":11,"x_max":594,"o":"m 147 1308 q 125 1322 136 1308 q 114 1339 114 1336 q 174 1407 143 1388 q 244 1426 206 1426 q 279 1417 265 1426 q 308 1390 293 1408 q 336 1365 324 1374 q 368 1357 349 1357 q 416 1370 399 1357 q 446 1401 433 1383 q 464 1419 458 1419 q 482 1404 474 1419 q 490 1385 490 1389 q 361 1297 444 1297 q 315 1308 332 1297 q 279 1342 299 1319 q 256 1364 265 1357 q 233 1371 246 1371 q 194 1358 210 1371 q 165 1326 178 1344 q 147 1308 151 1308 m 414 1236 q 431 1247 419 1247 q 451 1238 442 1247 q 463 1218 461 1229 q 300 1072 414 1072 q 219 1099 256 1072 q 163 1163 183 1126 q 143 1219 143 1199 q 152 1240 143 1232 q 179 1251 161 1247 q 226 1165 197 1201 q 301 1129 254 1129 q 371 1158 347 1129 q 414 1236 394 1188 m 594 11 q 568 -1 594 -1 q 531 0 544 -1 l 456 276 l 150 276 l 81 13 q 73 1 79 3 q 50 -1 67 -1 q 11 0 28 -1 l 278 969 q 299 978 281 978 q 325 975 314 978 l 593 17 l 594 11 m 440 336 l 365 614 q 303 888 308 824 q 239 614 294 824 l 165 336 l 440 336 z "},"Â":{"ha":606,"x_min":11,"x_max":594,"o":"m 594 11 q 568 -1 594 -1 q 531 0 544 -1 l 456 276 l 150 276 l 81 13 q 73 1 79 3 q 50 -1 67 -1 q 11 0 28 -1 l 278 969 q 299 978 281 978 q 325 975 314 978 l 593 17 l 594 11 m 440 336 l 365 614 q 303 888 308 824 q 239 614 294 824 l 165 336 l 440 336 m 418 1074 q 356 1140 401 1092 q 307 1197 311 1189 q 241 1126 290 1178 q 182 1075 192 1075 q 138 1099 157 1075 l 292 1251 q 308 1254 300 1254 q 333 1243 322 1254 q 410 1164 354 1222 q 467 1100 467 1106 q 451 1083 467 1093 q 418 1074 435 1074 z "},"Ấ":{"ha":606,"x_min":11,"x_max":657,"o":"m 628 1376 q 647 1359 639 1376 q 657 1328 656 1342 q 588 1271 651 1319 q 469 1185 525 1222 q 456 1200 464 1185 q 446 1221 449 1215 q 560 1324 497 1272 q 628 1376 624 1376 m 186 1071 q 144 1094 158 1071 l 292 1240 q 308 1243 300 1243 q 332 1232 321 1243 q 406 1156 351 1211 q 460 1096 460 1100 q 444 1079 460 1089 q 413 1069 429 1069 q 353 1133 396 1086 q 307 1189 310 1181 q 243 1121 290 1171 q 186 1071 196 1071 m 593 17 l 594 11 q 568 -1 594 -1 q 531 0 544 -1 l 456 276 l 150 276 l 81 13 q 73 1 79 3 q 50 -1 67 -1 q 11 0 28 -1 l 278 969 q 299 978 281 978 q 325 975 314 978 l 593 17 m 440 336 l 365 614 q 303 888 308 824 q 239 614 294 824 l 165 336 l 440 336 z "},"Ậ":{"ha":606,"x_min":11,"x_max":594,"o":"m 594 11 q 568 -1 594 -1 q 531 0 544 -1 l 456 276 l 150 276 l 81 13 q 73 1 79 3 q 50 -1 67 -1 q 11 0 28 -1 l 278 969 q 299 978 281 978 q 325 975 314 978 l 593 17 l 594 11 m 440 336 l 365 614 q 303 888 308 824 q 239 614 294 824 l 165 336 l 440 336 m 301 -211 q 275 -198 283 -211 q 267 -157 267 -185 q 306 -104 269 -104 q 333 -117 325 -104 q 342 -157 342 -129 q 301 -211 339 -211 m 418 1074 q 356 1140 401 1092 q 307 1197 311 1189 q 241 1126 290 1178 q 182 1075 192 1075 q 138 1099 157 1075 l 292 1251 q 308 1254 300 1254 q 333 1243 322 1254 q 410 1164 354 1222 q 467 1100 467 1106 q 451 1083 467 1093 q 418 1074 435 1074 z "},"Ầ":{"ha":606,"x_min":11,"x_max":594,"o":"m 454 1271 q 444 1251 451 1265 q 431 1236 436 1236 q 315 1321 378 1272 q 243 1378 251 1369 q 253 1409 244 1390 q 272 1428 263 1428 q 341 1375 278 1428 q 454 1271 404 1322 m 186 1071 q 144 1094 158 1071 l 292 1240 q 308 1243 300 1243 q 332 1232 321 1243 q 406 1156 351 1211 q 460 1096 460 1100 q 444 1079 460 1089 q 413 1069 429 1069 q 353 1133 396 1086 q 307 1189 310 1181 q 243 1121 290 1171 q 186 1071 196 1071 m 594 11 q 568 -1 594 -1 q 531 0 544 -1 l 456 276 l 150 276 l 81 13 q 73 1 79 3 q 50 -1 67 -1 q 11 0 28 -1 l 278 969 q 299 978 281 978 q 325 975 314 978 l 593 17 l 594 11 m 440 336 l 365 614 q 303 888 308 824 q 239 614 294 824 l 165 336 l 440 336 z "},"Ẩ":{"ha":606,"x_min":11,"x_max":594,"o":"m 503 1310 q 449 1365 503 1365 q 397 1350 419 1365 l 397 1396 q 413 1408 397 1401 q 447 1415 428 1415 q 529 1390 501 1415 q 557 1315 557 1364 q 544 1268 557 1285 q 517 1242 531 1251 q 497 1229 503 1233 q 490 1215 492 1225 q 488 1201 488 1204 q 464 1199 485 1199 l 447 1200 q 447 1205 447 1201 q 446 1214 446 1208 q 450 1235 446 1225 q 475 1260 458 1247 q 496 1279 489 1269 q 503 1310 503 1289 m 186 1071 q 144 1094 158 1071 l 292 1240 q 308 1243 300 1243 q 332 1232 321 1243 q 406 1156 351 1211 q 460 1096 460 1100 q 444 1079 460 1089 q 413 1069 429 1069 q 353 1133 396 1086 q 307 1189 310 1181 q 243 1121 290 1171 q 186 1071 196 1071 m 594 11 q 568 -1 594 -1 q 531 0 544 -1 l 456 276 l 150 276 l 81 13 q 73 1 79 3 q 50 -1 67 -1 q 11 0 28 -1 l 278 969 q 299 978 281 978 q 325 975 314 978 l 593 17 l 594 11 m 440 336 l 365 614 q 303 888 308 824 q 239 614 294 824 l 165 336 l 440 336 z "},"Ẫ":{"ha":606,"x_min":11,"x_max":594,"o":"m 172 1283 q 150 1297 161 1283 q 139 1314 139 1311 q 199 1382 168 1363 q 269 1401 231 1401 q 304 1392 290 1401 q 333 1365 318 1383 q 361 1340 349 1349 q 393 1332 374 1332 q 441 1345 424 1332 q 471 1376 458 1358 q 489 1394 483 1394 q 507 1379 499 1394 q 515 1360 515 1364 q 386 1272 469 1272 q 340 1283 357 1272 q 304 1317 324 1294 q 281 1339 290 1332 q 258 1346 271 1346 q 219 1333 235 1346 q 190 1301 203 1319 q 172 1283 176 1283 m 308 1243 q 332 1232 321 1243 q 406 1156 351 1211 q 460 1096 460 1100 q 444 1079 460 1089 q 413 1069 429 1069 q 353 1133 396 1086 q 307 1189 310 1181 q 243 1121 290 1171 q 186 1071 196 1071 q 144 1094 158 1071 l 292 1240 q 308 1243 300 1243 m 594 11 q 568 -1 594 -1 q 531 0 544 -1 l 456 276 l 150 276 l 81 13 q 73 1 79 3 q 50 -1 67 -1 q 11 0 28 -1 l 278 969 q 299 978 281 978 q 325 975 314 978 l 593 17 l 594 11 m 440 336 l 365 614 q 303 888 308 824 q 239 614 294 824 l 165 336 l 440 336 z "},"Ä":{"ha":606,"x_min":11,"x_max":594,"o":"m 594 11 q 568 -1 594 -1 q 531 0 544 -1 l 456 276 l 150 276 l 81 13 q 73 1 79 3 q 50 -1 67 -1 q 11 0 28 -1 l 278 969 q 299 978 281 978 q 325 975 314 978 l 593 17 l 594 11 m 440 336 l 365 614 q 303 888 308 824 q 239 614 294 824 l 165 336 l 440 336 m 226 1110 q 192 1164 190 1110 q 231 1218 192 1218 q 258 1205 250 1218 q 265 1164 267 1192 q 226 1110 265 1110 m 375 1110 q 348 1123 357 1110 q 339 1164 339 1136 q 379 1218 342 1218 q 407 1205 399 1218 q 414 1164 415 1192 q 375 1110 414 1110 z "},"Ạ":{"ha":606,"x_min":11,"x_max":594,"o":"m 594 11 q 568 -1 594 -1 q 531 0 544 -1 l 456 276 l 150 276 l 81 13 q 73 1 79 3 q 50 -1 67 -1 q 11 0 28 -1 l 278 969 q 299 978 281 978 q 325 975 314 978 l 593 17 l 594 11 m 440 336 l 365 614 q 303 888 308 824 q 239 614 294 824 l 165 336 l 440 336 m 301 -211 q 275 -198 283 -211 q 267 -157 267 -185 q 306 -104 269 -104 q 333 -117 325 -104 q 342 -157 342 -129 q 301 -211 339 -211 z "},"À":{"ha":606,"x_min":11,"x_max":594,"o":"m 594 11 q 568 -1 594 -1 q 531 0 544 -1 l 456 276 l 150 276 l 81 13 q 73 1 79 3 q 50 -1 67 -1 q 11 0 28 -1 l 278 969 q 299 978 281 978 q 325 975 314 978 l 593 17 l 594 11 m 440 336 l 365 614 q 303 888 308 824 q 239 614 294 824 l 165 336 l 440 336 m 392 1069 q 272 1156 338 1106 q 196 1217 206 1207 q 206 1249 197 1231 q 226 1268 215 1268 q 298 1213 232 1268 q 417 1106 364 1158 q 406 1085 414 1100 q 392 1069 397 1069 z "},"Ả":{"ha":606,"x_min":11,"x_max":594,"o":"m 594 11 q 568 -1 594 -1 q 531 0 544 -1 l 456 276 l 150 276 l 81 13 q 73 1 79 3 q 50 -1 67 -1 q 11 0 28 -1 l 278 969 q 299 978 281 978 q 325 975 314 978 l 593 17 l 594 11 m 440 336 l 365 614 q 303 888 308 824 q 239 614 294 824 l 165 336 l 440 336 m 272 1040 q 272 1046 272 1042 q 271 1056 271 1050 q 275 1076 271 1069 q 300 1103 281 1086 q 322 1124 315 1114 q 329 1154 329 1133 q 274 1213 329 1213 q 219 1196 243 1213 l 219 1244 q 235 1257 219 1250 q 272 1264 251 1264 q 358 1237 329 1264 q 386 1160 386 1210 q 372 1110 386 1128 q 343 1083 358 1093 q 324 1071 328 1074 q 316 1055 318 1065 q 314 1042 314 1044 q 289 1039 311 1039 l 272 1040 z "},"Ā":{"ha":606,"x_min":11,"x_max":594,"o":"m 594 11 q 568 -1 594 -1 q 531 0 544 -1 l 456 276 l 150 276 l 81 13 q 73 1 79 3 q 50 -1 67 -1 q 11 0 28 -1 l 278 969 q 299 978 281 978 q 325 975 314 978 l 593 17 l 594 11 m 440 336 l 365 614 q 303 888 308 824 q 239 614 294 824 l 165 336 l 440 336 m 131 1125 q 128 1156 128 1136 q 154 1186 131 1186 l 472 1186 q 476 1157 476 1175 q 451 1125 474 1125 l 131 1125 z "},"Ą":{"ha":606,"x_min":11,"x_max":593,"o":"m 525 -271 q 449 -243 476 -271 q 421 -160 421 -215 q 452 -65 421 -110 q 526 13 483 -19 l 456 276 l 151 276 l 81 13 q 73 1 79 3 q 50 -1 67 -1 q 11 0 28 -1 l 278 969 q 299 978 281 978 q 325 975 314 978 l 592 22 q 593 13 593 18 q 583 -1 593 4 q 509 -71 539 -31 q 479 -154 479 -111 q 492 -204 479 -187 q 538 -221 506 -221 q 581 -208 563 -221 q 592 -239 592 -228 q 573 -263 592 -256 q 525 -271 554 -271 m 442 336 l 365 614 q 303 888 308 824 q 239 614 294 824 l 164 336 l 442 336 z "},"Å":{"ha":606,"x_min":11,"x_max":594,"o":"m 594 11 q 568 -1 594 -1 q 531 0 544 -1 l 456 276 l 150 276 l 81 13 q 73 1 79 3 q 50 -1 67 -1 q 11 0 28 -1 l 278 969 q 299 978 281 978 q 325 975 314 978 l 593 17 l 594 11 m 440 336 l 365 614 q 303 888 308 824 q 239 614 294 824 l 165 336 l 440 336 m 299 1053 q 211 1081 242 1053 q 181 1175 181 1110 q 215 1268 181 1238 q 308 1299 249 1299 q 396 1271 368 1299 q 424 1175 424 1243 q 391 1084 424 1115 q 299 1053 358 1053 m 299 1101 q 374 1176 374 1101 q 358 1232 374 1215 q 308 1249 342 1249 q 251 1231 269 1249 q 232 1172 232 1214 q 249 1120 232 1139 q 299 1101 265 1101 z "},"Ã":{"ha":606,"x_min":11,"x_max":594,"o":"m 594 11 q 568 -1 594 -1 q 531 0 544 -1 l 456 276 l 150 276 l 81 13 q 73 1 79 3 q 50 -1 67 -1 q 11 0 28 -1 l 278 969 q 299 978 281 978 q 325 975 314 978 l 593 17 l 594 11 m 440 336 l 365 614 q 303 888 308 824 q 239 614 294 824 l 165 336 l 440 336 m 364 1086 q 315 1098 333 1086 q 279 1132 297 1110 q 267 1144 276 1135 q 249 1158 258 1153 q 231 1163 240 1163 q 190 1149 207 1163 q 159 1117 174 1136 q 140 1097 144 1097 q 117 1112 129 1097 q 106 1129 106 1126 q 170 1201 138 1181 q 243 1221 203 1221 q 280 1211 265 1221 q 310 1183 294 1201 q 338 1158 325 1167 q 371 1149 351 1149 q 422 1163 404 1149 q 453 1195 440 1176 q 471 1214 467 1214 q 490 1198 482 1214 q 499 1178 499 1182 q 449 1115 481 1143 q 364 1086 417 1086 z "},"Æ":{"ha":907,"x_min":25,"x_max":864,"o":"m 578 58 l 864 58 q 862 9 864 18 q 849 0 860 0 l 515 0 l 515 276 l 226 276 l 94 13 q 85 1 92 4 q 64 -1 79 -1 q 25 0 42 -1 l 500 960 q 508 969 503 965 q 519 972 514 972 l 864 972 q 863 923 864 932 q 851 914 861 914 l 578 914 l 578 561 l 835 561 q 833 513 835 522 q 819 503 831 503 l 578 503 l 578 58 m 515 336 l 515 894 q 392 610 451 732 l 256 336 l 515 336 z "},"B":{"ha":553,"x_min":82,"x_max":517,"o":"m 82 949 q 117 972 82 972 l 256 972 q 420 926 353 972 q 488 761 488 881 q 445 597 488 649 q 349 536 403 544 q 465 490 413 533 q 517 332 517 446 q 433 69 517 139 q 249 0 350 0 l 82 0 l 82 949 m 263 558 q 421 753 421 558 q 254 915 421 915 l 144 915 l 144 558 l 263 558 m 249 57 q 392 119 336 57 q 447 326 447 181 q 422 442 447 404 q 357 491 397 481 q 249 501 317 501 l 144 501 l 144 57 l 249 57 z "},"C":{"ha":499,"x_min":57,"x_max":461,"o":"m 288 -12 q 172 15 221 -12 q 90 142 124 43 q 57 438 57 240 q 96 789 57 668 q 192 947 135 910 q 326 985 250 985 q 396 974 367 985 q 440 947 425 963 q 454 917 454 931 q 451 896 454 907 q 442 878 447 885 q 398 908 428 892 q 332 925 368 925 q 226 891 271 925 q 152 749 182 857 q 122 435 122 640 q 147 195 122 279 q 209 83 171 111 q 297 54 247 54 q 385 76 343 54 q 449 124 428 97 q 461 82 461 99 q 438 40 461 63 q 374 3 414 18 q 288 -12 335 -12 z "},"Ć":{"ha":499,"x_min":57,"x_max":461,"o":"m 288 -12 q 172 15 221 -12 q 90 142 124 43 q 57 438 57 240 q 96 789 57 668 q 192 947 135 910 q 326 985 250 985 q 396 974 367 985 q 440 947 425 963 q 454 917 454 931 q 451 896 454 907 q 442 878 447 885 q 398 908 428 892 q 332 925 368 925 q 226 891 271 925 q 152 749 182 857 q 122 435 122 640 q 147 195 122 279 q 209 83 171 111 q 297 54 247 54 q 385 76 343 54 q 449 124 428 97 q 461 82 461 99 q 438 40 461 63 q 374 3 414 18 q 288 -12 335 -12 m 210 1072 q 196 1088 204 1072 q 185 1110 188 1104 q 304 1217 238 1163 q 375 1272 371 1272 q 395 1253 386 1272 q 406 1221 404 1235 q 331 1160 397 1211 q 210 1072 265 1110 z "},"Č":{"ha":499,"x_min":57,"x_max":461,"o":"m 288 -12 q 172 15 221 -12 q 90 142 124 43 q 57 438 57 240 q 96 789 57 668 q 192 947 135 910 q 326 985 250 985 q 396 974 367 985 q 440 947 425 963 q 454 917 454 931 q 451 896 454 907 q 442 878 447 885 q 398 908 428 892 q 332 925 368 925 q 226 891 271 925 q 152 749 182 857 q 122 435 122 640 q 147 195 122 279 q 209 83 171 111 q 297 54 247 54 q 385 76 343 54 q 449 124 428 97 q 461 82 461 99 q 438 40 461 63 q 374 3 414 18 q 288 -12 335 -12 m 301 1076 q 214 1149 288 1076 q 131 1235 140 1221 q 144 1259 133 1244 q 164 1274 154 1274 q 228 1216 174 1274 q 301 1138 282 1158 q 376 1224 338 1182 q 425 1278 414 1265 q 451 1246 451 1263 q 417 1195 451 1238 q 347 1115 383 1153 q 301 1076 310 1076 z "},"Ç":{"ha":499,"x_min":57,"x_max":461,"o":"m 461 82 q 442 44 461 64 q 389 8 422 24 q 315 -11 356 -7 l 299 -83 q 306 -83 300 -83 q 325 -82 311 -82 q 372 -101 353 -82 q 392 -158 392 -119 q 363 -236 392 -211 q 296 -261 335 -261 q 251 -256 272 -261 q 224 -249 229 -251 q 228 -228 224 -243 q 238 -208 232 -214 q 247 -206 240 -204 q 269 -212 254 -207 q 297 -218 285 -218 q 346 -168 346 -218 q 333 -129 346 -139 q 299 -119 321 -119 q 265 -122 281 -119 q 246 -126 250 -125 l 269 -12 q 163 22 208 -10 q 88 153 118 54 q 57 438 57 251 q 96 789 57 668 q 192 947 135 910 q 326 985 250 985 q 396 974 367 985 q 440 947 425 963 q 454 917 454 931 q 451 896 454 907 q 442 878 447 885 q 398 908 428 892 q 332 925 368 925 q 226 891 271 925 q 152 749 182 857 q 122 435 122 640 q 147 195 122 279 q 209 83 171 111 q 297 54 247 54 q 385 76 343 54 q 449 124 428 97 q 461 82 461 99 z "},"D":{"ha":582,"x_min":85,"x_max":528,"o":"m 85 949 q 92 966 85 960 q 119 972 99 972 l 257 972 q 461 870 394 972 q 528 538 528 768 q 492 206 528 325 q 395 44 456 88 q 250 0 335 0 l 85 0 l 85 949 m 250 60 q 358 95 313 60 q 431 237 403 131 q 460 542 460 343 q 411 828 460 742 q 254 914 363 914 l 146 914 l 146 60 l 250 60 z "},"Ð":{"ha":582,"x_min":19,"x_max":528,"o":"m 257 972 q 461 871 394 972 q 528 542 528 769 q 492 207 528 326 q 395 44 456 88 q 250 0 335 0 l 85 0 l 85 485 l 19 485 q 22 531 19 521 q 38 542 25 542 l 85 542 l 85 949 q 92 966 85 960 q 119 972 99 972 l 257 972 m 250 60 q 358 95 313 60 q 431 237 403 131 q 460 542 460 343 q 411 828 460 742 q 254 914 363 914 l 146 914 l 146 542 l 304 542 q 301 495 304 506 q 286 485 299 485 l 146 485 l 146 61 l 250 60 z "},"Ď":{"ha":582,"x_min":85,"x_max":528,"o":"m 85 949 q 92 966 85 960 q 119 972 99 972 l 257 972 q 461 870 394 972 q 528 538 528 768 q 492 206 528 325 q 395 44 456 88 q 250 0 335 0 l 85 0 l 85 949 m 250 60 q 358 95 313 60 q 431 237 403 131 q 460 542 460 343 q 411 828 460 742 q 254 914 363 914 l 146 914 l 146 60 l 250 60 m 268 1076 q 181 1149 254 1076 q 97 1235 107 1221 q 110 1259 100 1244 q 131 1274 121 1274 q 194 1216 140 1274 q 268 1138 249 1158 q 342 1224 304 1182 q 392 1278 381 1265 q 418 1246 418 1263 q 384 1195 418 1238 q 313 1115 350 1153 q 268 1076 276 1076 z "},"Đ":{"ha":582,"x_min":-22,"x_max":528,"o":"m 257 972 q 461 870 394 972 q 528 538 528 768 q 492 206 528 325 q 395 44 456 88 q 250 0 335 0 l 85 0 l 85 438 l -19 438 q -22 467 -22 447 q -15 488 -21 479 q 3 496 -8 496 l 85 496 l 85 949 q 92 966 85 960 q 119 972 99 972 l 257 972 m 250 60 q 358 95 313 60 q 431 237 403 131 q 460 542 460 343 q 411 828 460 742 q 254 914 363 914 l 146 914 l 146 496 l 308 496 q 313 468 313 485 q 288 438 310 438 l 146 438 l 146 60 l 250 60 z "},"E":{"ha":478,"x_min":85,"x_max":435,"o":"m 147 58 l 435 58 q 433 9 435 18 q 419 0 431 0 l 85 0 l 85 956 q 89 966 85 960 q 103 972 93 972 l 435 972 q 433 923 435 932 q 422 914 432 914 l 147 914 l 147 561 l 404 561 q 402 513 404 522 q 390 503 400 503 l 147 503 l 147 58 z "},"É":{"ha":478,"x_min":85,"x_max":435,"o":"m 147 58 l 435 58 q 433 9 435 18 q 419 0 431 0 l 85 0 l 85 956 q 89 966 85 960 q 103 972 93 972 l 435 972 q 433 923 435 932 q 422 914 432 914 l 147 914 l 147 561 l 404 561 q 402 513 404 522 q 390 503 400 503 l 147 503 l 147 58 m 178 1072 q 164 1088 172 1072 q 153 1110 156 1104 q 272 1217 206 1163 q 343 1272 339 1272 q 363 1253 354 1272 q 374 1221 372 1235 q 299 1160 365 1211 q 178 1072 233 1110 z "},"Ě":{"ha":478,"x_min":85,"x_max":435,"o":"m 147 58 l 435 58 q 433 9 435 18 q 419 0 431 0 l 85 0 l 85 956 q 89 966 85 960 q 103 972 93 972 l 435 972 q 433 923 435 932 q 422 914 432 914 l 147 914 l 147 561 l 404 561 q 402 513 404 522 q 390 503 400 503 l 147 503 l 147 58 m 269 1076 q 182 1149 256 1076 q 99 1235 108 1221 q 112 1259 101 1244 q 132 1274 122 1274 q 196 1216 142 1274 q 269 1138 250 1158 q 344 1224 306 1182 q 393 1278 382 1265 q 419 1246 419 1263 q 385 1195 419 1238 q 315 1115 351 1153 q 269 1076 278 1076 z "},"Ê":{"ha":478,"x_min":85,"x_max":435,"o":"m 147 58 l 435 58 q 433 9 435 18 q 419 0 431 0 l 85 0 l 85 956 q 89 966 85 960 q 103 972 93 972 l 435 972 q 433 923 435 932 q 422 914 432 914 l 147 914 l 147 561 l 404 561 q 402 513 404 522 q 390 503 400 503 l 147 503 l 147 58 m 375 1074 q 313 1140 358 1092 q 264 1197 268 1189 q 198 1126 247 1178 q 139 1075 149 1075 q 94 1099 114 1075 l 249 1251 q 265 1254 257 1254 q 290 1243 279 1254 q 367 1164 311 1222 q 424 1100 424 1106 q 408 1083 424 1093 q 375 1074 392 1074 z "},"Ế":{"ha":478,"x_min":85,"x_max":614,"o":"m 585 1376 q 604 1359 596 1376 q 614 1328 613 1342 q 545 1271 608 1319 q 426 1185 482 1222 q 413 1200 421 1185 q 403 1221 406 1215 q 517 1324 454 1272 q 585 1376 581 1376 m 143 1071 q 101 1094 115 1071 l 249 1240 q 265 1243 257 1243 q 289 1232 278 1243 q 363 1156 308 1211 q 417 1096 417 1100 q 401 1079 417 1089 q 369 1069 386 1069 q 310 1133 353 1086 q 264 1189 267 1181 q 200 1121 247 1171 q 143 1071 153 1071 m 147 914 l 147 561 l 404 561 q 402 513 404 522 q 390 503 400 503 l 147 503 l 147 58 l 435 58 q 433 9 435 18 q 419 0 431 0 l 85 0 l 85 956 q 89 966 85 960 q 103 972 93 972 l 435 972 q 433 923 435 932 q 422 914 432 914 l 147 914 z "},"Ệ":{"ha":478,"x_min":85,"x_max":435,"o":"m 147 58 l 435 58 q 433 9 435 18 q 419 0 431 0 l 85 0 l 85 956 q 89 966 85 960 q 103 972 93 972 l 435 972 q 433 923 435 932 q 422 914 432 914 l 147 914 l 147 561 l 404 561 q 402 513 404 522 q 390 503 400 503 l 147 503 l 147 58 m 238 -211 q 211 -198 219 -211 q 203 -157 203 -185 q 242 -104 206 -104 q 269 -117 261 -104 q 278 -157 278 -129 q 238 -211 275 -211 m 375 1074 q 313 1140 358 1092 q 264 1197 268 1189 q 198 1126 247 1178 q 139 1075 149 1075 q 94 1099 114 1075 l 249 1251 q 265 1254 257 1254 q 290 1243 279 1254 q 367 1164 311 1222 q 424 1100 424 1106 q 408 1083 424 1093 q 375 1074 392 1074 z "},"Ề":{"ha":478,"x_min":85,"x_max":435,"o":"m 411 1271 q 401 1251 408 1265 q 388 1236 393 1236 q 272 1321 335 1272 q 200 1378 208 1369 q 210 1409 201 1390 q 229 1428 219 1428 q 298 1375 235 1428 q 411 1271 361 1322 m 143 1071 q 101 1094 115 1071 l 249 1240 q 265 1243 257 1243 q 289 1232 278 1243 q 363 1156 308 1211 q 417 1096 417 1100 q 401 1079 417 1089 q 369 1069 386 1069 q 310 1133 353 1086 q 264 1189 267 1181 q 200 1121 247 1171 q 143 1071 153 1071 m 147 58 l 435 58 q 433 9 435 18 q 419 0 431 0 l 85 0 l 85 956 q 89 966 85 960 q 103 972 93 972 l 435 972 q 433 923 435 932 q 422 914 432 914 l 147 914 l 147 561 l 404 561 q 402 513 404 522 q 390 503 400 503 l 147 503 l 147 58 z "},"Ể":{"ha":478,"x_min":85,"x_max":514,"o":"m 404 1415 q 486 1390 458 1415 q 514 1315 514 1364 q 501 1268 514 1285 q 474 1242 488 1251 q 454 1229 460 1233 q 447 1215 449 1225 q 444 1201 444 1204 q 421 1199 442 1199 l 404 1200 q 403 1205 404 1201 q 403 1214 403 1208 q 407 1235 403 1225 q 432 1260 415 1247 q 453 1279 446 1269 q 460 1310 460 1289 q 406 1365 460 1365 q 354 1350 376 1365 l 354 1396 q 369 1408 354 1401 q 404 1415 385 1415 m 143 1071 q 101 1094 115 1071 l 249 1240 q 265 1243 257 1243 q 289 1232 278 1243 q 363 1156 308 1211 q 417 1096 417 1100 q 401 1079 417 1089 q 369 1069 386 1069 q 310 1133 353 1086 q 264 1189 267 1181 q 200 1121 247 1171 q 143 1071 153 1071 m 147 914 l 147 561 l 404 561 q 402 513 404 522 q 390 503 400 503 l 147 503 l 147 58 l 435 58 q 433 9 435 18 q 419 0 431 0 l 85 0 l 85 956 q 89 966 85 960 q 103 972 93 972 l 435 972 q 433 923 435 932 q 422 914 432 914 l 147 914 z "},"Ễ":{"ha":478,"x_min":85,"x_max":472,"o":"m 446 1394 q 464 1379 456 1394 q 472 1360 472 1364 q 343 1272 426 1272 q 297 1283 314 1272 q 261 1317 281 1294 q 238 1339 247 1332 q 215 1346 228 1346 q 176 1333 192 1346 q 147 1301 160 1319 q 129 1283 133 1283 q 107 1297 118 1283 q 96 1314 96 1311 q 156 1382 125 1363 q 226 1401 188 1401 q 261 1392 247 1401 q 290 1365 275 1383 q 318 1340 306 1349 q 350 1332 331 1332 q 398 1345 381 1332 q 428 1376 415 1358 q 446 1394 440 1394 m 143 1071 q 101 1094 115 1071 l 249 1240 q 265 1243 257 1243 q 289 1232 278 1243 q 363 1156 308 1211 q 417 1096 417 1100 q 401 1079 417 1089 q 369 1069 386 1069 q 310 1133 353 1086 q 264 1189 267 1181 q 200 1121 247 1171 q 143 1071 153 1071 m 147 914 l 147 561 l 404 561 q 402 513 404 522 q 390 503 400 503 l 147 503 l 147 58 l 435 58 q 433 9 435 18 q 419 0 431 0 l 85 0 l 85 956 q 89 966 85 960 q 103 972 93 972 l 435 972 q 433 923 435 932 q 422 914 432 914 l 147 914 z "},"Ë":{"ha":478,"x_min":85,"x_max":435,"o":"m 147 58 l 435 58 q 433 9 435 18 q 419 0 431 0 l 85 0 l 85 956 q 89 966 85 960 q 103 972 93 972 l 435 972 q 433 923 435 932 q 422 914 432 914 l 147 914 l 147 561 l 404 561 q 402 513 404 522 q 390 503 400 503 l 147 503 l 147 58 m 183 1110 q 149 1164 147 1110 q 188 1218 149 1218 q 215 1205 207 1218 q 222 1164 224 1192 q 183 1110 222 1110 m 332 1110 q 305 1123 314 1110 q 296 1164 296 1136 q 336 1218 299 1218 q 364 1205 356 1218 q 371 1164 372 1192 q 332 1110 371 1110 z "},"Ė":{"ha":478,"x_min":85,"x_max":435,"o":"m 147 58 l 435 58 q 433 9 435 18 q 419 0 431 0 l 85 0 l 85 956 q 89 966 85 960 q 103 972 93 972 l 435 972 q 433 923 435 932 q 422 914 432 914 l 147 914 l 147 561 l 404 561 q 402 513 404 522 q 390 503 400 503 l 147 503 l 147 58 m 257 1108 q 229 1122 238 1108 q 221 1164 221 1135 q 261 1219 224 1219 q 290 1206 282 1219 q 299 1164 299 1193 q 257 1108 296 1108 z "},"Ẹ":{"ha":478,"x_min":85,"x_max":435,"o":"m 147 58 l 435 58 q 433 9 435 18 q 419 0 431 0 l 85 0 l 85 956 q 89 966 85 960 q 103 972 93 972 l 435 972 q 433 923 435 932 q 422 914 432 914 l 147 914 l 147 561 l 404 561 q 402 513 404 522 q 390 503 400 503 l 147 503 l 147 58 m 238 -211 q 211 -198 219 -211 q 203 -157 203 -185 q 242 -104 206 -104 q 269 -117 261 -104 q 278 -157 278 -129 q 238 -211 275 -211 z "},"È":{"ha":478,"x_min":85,"x_max":435,"o":"m 147 58 l 435 58 q 433 9 435 18 q 419 0 431 0 l 85 0 l 85 956 q 89 966 85 960 q 103 972 93 972 l 435 972 q 433 923 435 932 q 422 914 432 914 l 147 914 l 147 561 l 404 561 q 402 513 404 522 q 390 503 400 503 l 147 503 l 147 58 m 349 1069 q 228 1156 294 1106 q 153 1217 163 1207 q 163 1249 154 1231 q 183 1268 172 1268 q 255 1213 189 1268 q 374 1106 321 1158 q 363 1085 371 1100 q 349 1069 354 1069 z "},"Ẻ":{"ha":478,"x_min":85,"x_max":435,"o":"m 147 58 l 435 58 q 433 9 435 18 q 419 0 431 0 l 85 0 l 85 956 q 89 966 85 960 q 103 972 93 972 l 435 972 q 433 923 435 932 q 422 914 432 914 l 147 914 l 147 561 l 404 561 q 402 513 404 522 q 390 503 400 503 l 147 503 l 147 58 m 229 1040 q 228 1046 229 1042 q 228 1056 228 1050 q 232 1076 228 1069 q 257 1103 238 1086 q 279 1124 272 1114 q 286 1154 286 1133 q 231 1213 286 1213 q 176 1196 200 1213 l 176 1244 q 192 1257 176 1250 q 229 1264 208 1264 q 315 1237 286 1264 q 343 1160 343 1210 q 329 1110 343 1128 q 300 1083 315 1093 q 281 1071 285 1074 q 273 1055 275 1065 q 271 1042 271 1044 q 246 1039 268 1039 l 229 1040 z "},"Ē":{"ha":478,"x_min":85,"x_max":435,"o":"m 147 58 l 435 58 q 433 9 435 18 q 419 0 431 0 l 85 0 l 85 956 q 89 966 85 960 q 103 972 93 972 l 435 972 q 433 923 435 932 q 422 914 432 914 l 147 914 l 147 561 l 404 561 q 402 513 404 522 q 390 503 400 503 l 147 503 l 147 58 m 88 1125 q 85 1156 85 1136 q 111 1186 88 1186 l 429 1186 q 433 1157 433 1175 q 408 1125 431 1125 l 88 1125 z "},"Ę":{"ha":478,"x_min":85,"x_max":435,"o":"m 363 -271 q 288 -244 315 -271 q 260 -161 260 -217 q 285 -73 260 -115 q 350 0 311 -31 l 85 0 l 85 956 q 89 966 85 960 q 103 972 93 972 l 435 972 q 433 923 435 932 q 422 914 432 914 l 147 914 l 147 561 l 404 561 q 402 513 404 522 q 390 503 400 503 l 147 503 l 147 58 l 435 58 q 432 13 435 22 q 418 -4 429 4 q 347 -72 376 -32 q 318 -156 318 -112 q 375 -221 318 -221 q 419 -208 399 -221 q 431 -239 431 -228 q 411 -263 431 -256 q 363 -271 392 -271 z "},"Ẽ":{"ha":478,"x_min":63,"x_max":456,"o":"m 147 58 l 435 58 q 433 9 435 18 q 419 0 431 0 l 85 0 l 85 956 q 89 966 85 960 q 103 972 93 972 l 435 972 q 433 923 435 932 q 422 914 432 914 l 147 914 l 147 561 l 404 561 q 402 513 404 522 q 390 503 400 503 l 147 503 l 147 58 m 321 1086 q 272 1098 290 1086 q 236 1132 254 1110 q 224 1144 233 1135 q 206 1158 215 1153 q 188 1163 197 1163 q 147 1149 164 1163 q 116 1117 131 1136 q 97 1097 101 1097 q 74 1112 86 1097 q 63 1129 63 1126 q 127 1201 94 1181 q 200 1221 160 1221 q 237 1211 222 1221 q 267 1183 251 1201 q 295 1158 282 1167 q 328 1149 308 1149 q 379 1163 361 1149 q 410 1195 397 1176 q 428 1214 424 1214 q 447 1198 439 1214 q 456 1178 456 1182 q 406 1115 438 1143 q 321 1086 374 1086 z "},"F":{"ha":461,"x_min":85,"x_max":435,"o":"m 435 972 q 433 924 435 932 q 422 915 432 915 l 147 915 l 147 563 l 404 563 q 402 513 404 524 q 390 503 400 503 l 147 503 l 147 17 q 144 6 147 11 q 131 0 142 0 l 85 0 l 85 956 q 89 966 85 960 q 103 972 93 972 l 435 972 z "},"G":{"ha":561,"x_min":57,"x_max":504,"o":"m 317 -14 q 175 24 231 -14 q 88 169 119 63 q 57 475 57 276 q 92 790 57 678 q 190 944 128 901 q 347 986 253 986 q 450 968 408 986 q 492 926 492 950 q 482 885 492 904 q 358 925 432 925 q 229 887 281 925 q 150 751 178 849 q 122 478 122 653 q 147 201 122 296 q 214 77 172 107 q 319 47 256 47 q 401 67 368 47 q 444 107 435 88 l 444 492 l 296 492 l 296 529 q 315 547 296 547 l 504 547 l 504 71 q 317 -14 439 -14 z "},"Ğ":{"ha":561,"x_min":57,"x_max":504,"o":"m 317 -14 q 175 24 231 -14 q 88 169 119 63 q 57 475 57 276 q 92 790 57 678 q 190 944 128 901 q 347 986 253 986 q 450 968 408 986 q 492 926 492 950 q 482 885 492 904 q 358 925 432 925 q 229 887 281 925 q 150 751 178 849 q 122 478 122 653 q 147 201 122 296 q 214 77 172 107 q 319 47 256 47 q 401 67 368 47 q 444 107 435 88 l 444 492 l 296 492 l 296 529 q 315 547 296 547 l 504 547 l 504 71 q 317 -14 439 -14 m 310 1076 q 225 1105 263 1076 q 167 1170 188 1133 q 146 1229 146 1207 q 156 1251 146 1243 q 185 1263 165 1258 q 311 1136 229 1136 q 383 1166 358 1136 q 429 1247 408 1196 q 446 1258 435 1258 q 467 1249 457 1258 q 479 1228 478 1240 q 419 1121 460 1165 q 310 1076 378 1076 z "},"Ģ":{"ha":561,"x_min":57,"x_max":504,"o":"m 317 -14 q 175 24 231 -14 q 88 169 119 63 q 57 475 57 276 q 92 790 57 678 q 190 944 128 901 q 347 986 253 986 q 450 968 408 986 q 492 926 492 950 q 482 885 492 904 q 358 925 432 925 q 229 887 281 925 q 150 751 178 849 q 122 478 122 653 q 147 201 122 296 q 214 77 172 107 q 319 47 256 47 q 401 67 368 47 q 444 107 435 88 l 444 492 l 296 492 l 296 529 q 315 547 296 547 l 504 547 l 504 71 q 317 -14 439 -14 m 269 -342 q 253 -335 261 -342 q 243 -319 244 -329 q 274 -250 265 -282 q 285 -183 283 -218 q 260 -133 260 -169 q 273 -97 260 -111 q 308 -82 286 -82 q 345 -96 333 -82 q 357 -143 357 -110 q 340 -228 357 -182 q 302 -308 324 -275 q 269 -342 281 -342 z "},"H":{"ha":613,"x_min":82,"x_max":531,"o":"m 468 956 q 471 967 468 964 q 489 972 474 971 q 531 972 504 972 l 531 17 q 528 4 531 7 q 510 1 525 1 q 468 0 494 0 l 468 500 l 144 500 l 144 17 q 142 4 144 7 q 124 1 139 1 q 82 0 108 0 l 82 956 q 85 968 82 965 q 103 972 88 971 q 144 972 118 972 l 144 561 l 468 561 l 468 956 z "},"I":{"ha":228,"x_min":82,"x_max":146,"o":"m 82 939 q 85 963 82 957 q 99 971 88 969 q 146 972 111 972 l 146 17 q 142 5 146 8 q 124 1 139 1 q 82 0 108 0 l 82 939 z "},"Ĳ":{"ha":642,"x_min":82,"x_max":560,"o":"m 82 939 q 85 963 82 957 q 99 971 88 969 q 146 972 111 972 l 146 17 q 142 5 146 8 q 124 1 139 1 q 82 0 108 0 l 82 939 m 390 -14 q 290 8 328 -14 q 253 56 253 29 q 267 96 253 75 q 385 44 313 44 q 459 72 435 44 q 490 143 483 100 q 497 256 497 186 l 497 940 q 500 964 497 958 q 514 971 503 969 q 560 972 525 972 l 560 235 q 526 54 560 122 q 390 -14 493 -14 z "},"Í":{"ha":228,"x_min":7,"x_max":228,"o":"m 82 939 q 85 963 82 957 q 99 971 88 969 q 146 972 111 972 l 146 17 q 142 5 146 8 q 124 1 139 1 q 82 0 108 0 l 82 939 m 32 1072 q 18 1088 26 1072 q 7 1110 10 1104 q 126 1217 60 1163 q 197 1272 193 1272 q 217 1253 208 1272 q 228 1221 226 1235 q 153 1160 219 1211 q 32 1072 88 1110 z "},"Î":{"ha":228,"x_min":-51,"x_max":278,"o":"m 82 939 q 85 963 82 957 q 99 971 88 969 q 146 972 111 972 l 146 17 q 142 5 146 8 q 124 1 139 1 q 82 0 108 0 l 82 939 m 229 1074 q 167 1140 213 1092 q 118 1197 122 1189 q 52 1126 101 1178 q -7 1075 3 1075 q -51 1099 -32 1075 l 103 1251 q 119 1254 111 1254 q 144 1243 133 1254 q 222 1164 165 1222 q 278 1100 278 1106 q 262 1083 278 1093 q 229 1074 246 1074 z "},"Ï":{"ha":228,"x_min":3,"x_max":225,"o":"m 82 939 q 85 963 82 957 q 99 971 88 969 q 146 972 111 972 l 146 17 q 142 5 146 8 q 124 1 139 1 q 82 0 108 0 l 82 939 m 38 1110 q 3 1164 1 1110 q 42 1218 3 1218 q 69 1205 61 1218 q 76 1164 78 1192 q 38 1110 76 1110 m 186 1110 q 159 1123 168 1110 q 150 1164 150 1136 q 190 1218 153 1218 q 218 1205 210 1218 q 225 1164 226 1192 q 186 1110 225 1110 z "},"İ":{"ha":228,"x_min":75,"x_max":153,"o":"m 82 939 q 85 963 82 957 q 99 971 88 969 q 146 972 111 972 l 146 17 q 142 5 146 8 q 124 1 139 1 q 82 0 108 0 l 82 939 m 111 1108 q 83 1122 92 1108 q 75 1164 75 1135 q 115 1219 78 1219 q 144 1206 136 1219 q 153 1164 153 1193 q 111 1108 150 1108 z "},"Ị":{"ha":228,"x_min":78,"x_max":153,"o":"m 82 939 q 85 963 82 957 q 99 971 88 969 q 146 972 111 972 l 146 17 q 142 5 146 8 q 124 1 139 1 q 82 0 108 0 l 82 939 m 113 -211 q 86 -198 94 -211 q 78 -157 78 -185 q 117 -104 81 -104 q 144 -117 136 -104 q 153 -157 153 -129 q 113 -211 150 -211 z "},"Ì":{"ha":228,"x_min":7,"x_max":228,"o":"m 82 939 q 85 963 82 957 q 99 971 88 969 q 146 972 111 972 l 146 17 q 142 5 146 8 q 124 1 139 1 q 82 0 108 0 l 82 939 m 203 1069 q 83 1156 149 1106 q 7 1217 17 1207 q 17 1249 8 1231 q 38 1268 26 1268 q 109 1213 43 1268 q 228 1106 175 1158 q 217 1085 225 1100 q 203 1069 208 1069 z "},"Ỉ":{"ha":228,"x_min":31,"x_max":197,"o":"m 82 939 q 85 963 82 957 q 99 971 88 969 q 146 972 111 972 l 146 17 q 142 5 146 8 q 124 1 139 1 q 82 0 108 0 l 82 939 m 83 1040 q 83 1046 83 1042 q 82 1056 82 1050 q 86 1076 82 1069 q 111 1103 92 1086 q 133 1124 126 1114 q 140 1154 140 1133 q 85 1213 140 1213 q 31 1196 54 1213 l 31 1244 q 47 1257 31 1250 q 83 1264 63 1264 q 169 1237 140 1264 q 197 1160 197 1210 q 183 1110 197 1128 q 154 1083 169 1093 q 135 1071 139 1074 q 127 1055 129 1065 q 125 1042 125 1044 q 100 1039 122 1039 l 83 1040 z "},"Ī":{"ha":228,"x_min":-61,"x_max":288,"o":"m 82 939 q 85 963 82 957 q 99 971 88 969 q 146 972 111 972 l 146 17 q 142 5 146 8 q 124 1 139 1 q 82 0 108 0 l 82 939 m -58 1125 q -61 1156 -61 1136 q -35 1186 -58 1186 l 283 1186 q 288 1157 288 1175 q 263 1125 285 1125 l -58 1125 z "},"Į":{"ha":226,"x_min":-11,"x_max":160,"o":"m 94 -271 q 17 -244 44 -271 q -11 -164 -11 -217 q 82 13 -11 -72 l 82 939 q 85 963 82 957 q 99 971 88 969 q 144 972 110 972 l 144 17 q 141 5 144 10 q 133 -3 138 0 q 128 -7 129 -6 q 70 -76 94 -35 q 46 -160 46 -117 q 104 -219 46 -219 q 149 -208 124 -219 q 158 -239 158 -224 q 142 -262 160 -254 q 94 -271 124 -271 z "},"Ĩ":{"ha":228,"x_min":-83,"x_max":310,"o":"m 82 939 q 85 963 82 957 q 99 971 88 969 q 146 972 111 972 l 146 17 q 142 5 146 8 q 124 1 139 1 q 82 0 108 0 l 82 939 m 175 1086 q 126 1098 144 1086 q 90 1132 108 1110 q 78 1144 88 1135 q 60 1158 69 1153 q 42 1163 51 1163 q 1 1149 18 1163 q -30 1117 -15 1136 q -49 1097 -44 1097 q -72 1112 -60 1097 q -83 1129 -83 1126 q -19 1201 -51 1181 q 54 1221 14 1221 q 91 1211 76 1221 q 121 1183 106 1201 q 149 1158 136 1167 q 182 1149 163 1149 q 233 1163 215 1149 q 265 1195 251 1176 q 282 1214 278 1214 q 301 1198 293 1214 q 310 1178 310 1182 q 260 1115 292 1143 q 175 1086 228 1086 z "},"J":{"ha":414,"x_min":25,"x_max":332,"o":"m 163 -14 q 63 8 100 -14 q 25 56 25 29 q 39 96 25 75 q 157 44 85 44 q 231 72 207 44 q 263 143 256 100 q 269 256 269 186 l 269 940 q 272 964 269 958 q 286 971 275 969 q 332 972 297 972 l 332 235 q 299 54 332 122 q 163 -14 265 -14 z "},"K":{"ha":543,"x_min":82,"x_max":514,"o":"m 513 21 q 514 13 514 18 q 489 -1 514 -1 q 450 0 463 -1 q 334 294 389 192 q 217 460 279 397 q 144 507 188 489 l 144 17 q 142 4 144 7 q 124 1 139 1 q 82 0 108 0 l 82 956 q 85 968 82 965 q 103 972 88 971 q 144 972 118 972 l 144 551 l 446 969 q 485 972 460 972 q 513 960 513 972 q 507 947 513 958 l 207 547 q 377 361 299 492 q 513 21 456 231 z "},"Ķ":{"ha":543,"x_min":82,"x_max":514,"o":"m 513 21 q 514 13 514 18 q 489 -1 514 -1 q 450 0 463 -1 q 334 294 389 192 q 217 460 279 397 q 144 507 188 489 l 144 17 q 142 4 144 7 q 124 1 139 1 q 82 0 108 0 l 82 956 q 85 968 82 965 q 103 972 88 971 q 144 972 118 972 l 144 551 l 446 969 q 485 972 460 972 q 513 960 513 972 q 507 947 513 958 l 207 547 q 377 361 299 492 q 513 21 456 231 m 242 -342 q 225 -335 233 -342 q 215 -319 217 -329 q 247 -250 238 -282 q 257 -183 256 -218 q 232 -133 232 -169 q 245 -97 232 -111 q 281 -82 258 -82 q 317 -96 306 -82 q 329 -143 329 -110 q 313 -228 329 -182 q 274 -308 296 -275 q 242 -342 253 -342 z "},"L":{"ha":461,"x_min":82,"x_max":436,"o":"m 82 947 q 85 965 82 961 q 103 971 88 969 q 146 972 119 972 l 146 58 l 436 58 l 436 17 q 432 3 436 7 q 418 0 428 0 l 82 0 l 82 947 z "},"Ĺ":{"ha":461,"x_min":82,"x_max":436,"o":"m 82 947 q 85 965 82 961 q 103 971 88 969 q 146 972 119 972 l 146 58 l 436 58 l 436 17 q 432 3 436 7 q 418 0 428 0 l 82 0 l 82 947 m 129 1072 q 115 1088 124 1072 q 104 1110 107 1104 q 224 1217 157 1163 q 294 1272 290 1272 q 315 1253 306 1272 q 325 1221 324 1235 q 251 1160 317 1211 q 129 1072 185 1110 z "},"Ľ":{"ha":479,"x_min":82,"x_max":436,"o":"m 82 947 q 85 965 82 961 q 103 971 88 969 q 146 972 119 972 l 146 58 l 436 58 l 436 17 q 432 3 436 7 q 418 0 428 0 l 82 0 l 82 947 m 340 636 q 322 642 331 636 q 313 658 314 649 q 344 825 342 718 q 319 875 319 840 q 333 912 319 897 q 367 926 346 926 q 404 913 392 926 q 417 867 417 900 q 403 773 417 828 q 370 677 389 718 q 340 636 351 636 z "},"Ļ":{"ha":461,"x_min":82,"x_max":436,"o":"m 82 947 q 85 965 82 961 q 103 971 88 969 q 146 972 119 972 l 146 58 l 436 58 l 436 17 q 432 3 436 7 q 418 0 428 0 l 82 0 l 82 947 m 201 -342 q 185 -335 193 -342 q 175 -319 176 -329 q 206 -250 197 -282 q 217 -183 215 -218 q 192 -133 192 -169 q 205 -97 192 -111 q 240 -82 218 -82 q 277 -96 265 -82 q 289 -143 289 -110 q 272 -228 289 -182 q 234 -308 256 -275 q 201 -342 213 -342 z "},"Ŀ":{"ha":481,"x_min":82,"x_max":436,"o":"m 82 947 q 85 965 82 961 q 103 971 88 969 q 146 972 119 972 l 146 58 l 436 58 l 436 17 q 432 3 436 7 q 418 0 428 0 l 82 0 l 82 947 m 319 393 q 268 450 268 393 q 282 489 268 472 q 319 506 296 506 q 360 490 346 506 q 374 450 374 474 q 359 409 374 425 q 319 393 344 393 z "},"Ł":{"ha":468,"x_min":11,"x_max":442,"o":"m 442 58 l 442 17 q 439 6 442 13 q 425 0 436 0 l 89 0 l 89 467 l 22 443 q 11 489 11 479 q 22 504 11 500 l 89 528 l 89 947 q 92 965 89 961 q 110 971 94 969 q 153 972 126 972 l 153 550 l 292 599 q 303 553 303 563 q 292 538 303 542 l 153 489 l 153 58 l 442 58 z "},"M":{"ha":697,"x_min":82,"x_max":615,"o":"m 615 972 l 615 17 q 613 4 615 7 q 594 1 610 1 q 553 0 579 0 l 554 425 l 563 810 l 453 449 l 371 204 q 356 192 367 192 l 324 192 l 244 449 l 133 806 l 140 543 l 143 436 l 144 17 q 141 5 144 8 q 122 1 138 1 q 82 0 107 0 l 82 956 q 99 972 82 972 l 139 972 l 297 460 l 349 289 l 397 454 l 553 956 q 569 972 558 972 l 615 972 z "},"N":{"ha":640,"x_min":82,"x_max":558,"o":"m 496 956 q 499 968 496 965 q 517 972 501 971 q 558 972 532 972 l 558 17 q 540 0 558 0 l 499 0 l 325 393 q 208 679 324 396 l 140 846 l 144 358 l 144 17 q 142 4 144 7 q 124 1 139 1 q 82 0 108 0 l 82 956 q 99 972 82 972 l 142 972 l 311 586 q 394 381 343 506 q 482 169 446 257 l 499 131 q 496 624 496 331 l 496 956 z "},"Ń":{"ha":640,"x_min":82,"x_max":558,"o":"m 496 956 q 499 968 496 965 q 517 972 501 971 q 558 972 532 972 l 558 17 q 540 0 558 0 l 499 0 l 325 393 q 208 679 324 396 l 140 846 l 144 358 l 144 17 q 142 4 144 7 q 124 1 139 1 q 82 0 108 0 l 82 956 q 99 972 82 972 l 142 972 l 311 586 q 394 381 343 506 q 482 169 446 257 l 499 131 q 496 624 496 331 l 496 956 m 238 1072 q 224 1088 232 1072 q 213 1110 215 1104 q 332 1217 265 1163 q 403 1272 399 1272 q 423 1253 414 1272 q 433 1221 432 1235 q 359 1160 425 1211 q 238 1072 293 1110 z "},"Ň":{"ha":640,"x_min":82,"x_max":558,"o":"m 496 956 q 499 968 496 965 q 517 972 501 971 q 558 972 532 972 l 558 17 q 540 0 558 0 l 499 0 l 325 393 q 208 679 324 396 l 140 846 l 144 358 l 144 17 q 142 4 144 7 q 124 1 139 1 q 82 0 108 0 l 82 956 q 99 972 82 972 l 142 972 l 311 586 q 394 381 343 506 q 482 169 446 257 l 499 131 q 496 624 496 331 l 496 956 m 329 1076 q 242 1149 315 1076 q 158 1235 168 1221 q 172 1259 161 1244 q 192 1274 182 1274 q 256 1216 201 1274 q 329 1138 310 1158 q 403 1224 365 1182 q 453 1278 442 1265 q 479 1246 479 1263 q 445 1195 479 1238 q 374 1115 411 1153 q 329 1076 338 1076 z "},"Ņ":{"ha":640,"x_min":82,"x_max":558,"o":"m 496 956 q 499 968 496 965 q 517 972 501 971 q 558 972 532 972 l 558 17 q 540 0 558 0 l 499 0 l 325 393 q 208 679 324 396 l 140 846 l 144 358 l 144 17 q 142 4 144 7 q 124 1 139 1 q 82 0 108 0 l 82 956 q 99 972 82 972 l 142 972 l 311 586 q 394 381 343 506 q 482 169 446 257 l 499 131 q 496 624 496 331 l 496 956 m 289 -342 q 272 -335 281 -342 q 263 -319 264 -329 q 294 -250 285 -282 q 304 -183 303 -218 q 279 -133 279 -169 q 292 -97 279 -111 q 328 -82 306 -82 q 365 -96 353 -82 q 376 -143 376 -110 q 360 -228 376 -182 q 322 -308 343 -275 q 289 -342 300 -342 z "},"Ñ":{"ha":640,"x_min":82,"x_max":558,"o":"m 496 956 q 499 968 496 965 q 517 972 501 971 q 558 972 532 972 l 558 17 q 540 0 558 0 l 499 0 l 325 393 q 208 679 324 396 l 140 846 l 144 358 l 144 17 q 142 4 144 7 q 124 1 139 1 q 82 0 108 0 l 82 956 q 99 972 82 972 l 142 972 l 311 586 q 394 381 343 506 q 482 169 446 257 l 499 131 q 496 624 496 331 l 496 956 m 381 1086 q 332 1098 350 1086 q 296 1132 314 1110 q 284 1144 293 1135 q 266 1158 275 1153 q 247 1163 257 1163 q 207 1149 224 1163 q 176 1117 190 1136 q 157 1097 161 1097 q 134 1112 146 1097 q 122 1129 122 1126 q 187 1201 154 1181 q 260 1221 219 1221 q 297 1211 282 1221 q 326 1183 311 1201 q 355 1158 342 1167 q 388 1149 368 1149 q 439 1163 421 1149 q 470 1195 457 1176 q 488 1214 483 1214 q 507 1198 499 1214 q 515 1178 515 1182 q 465 1115 497 1143 q 381 1086 433 1086 z "},"O":{"ha":629,"x_min":57,"x_max":571,"o":"m 310 -14 q 163 33 218 -14 q 83 189 108 79 q 57 493 57 299 q 122 872 57 757 q 325 986 186 986 q 469 939 417 986 q 547 785 522 892 q 571 494 571 679 q 544 197 571 308 q 460 36 517 86 q 310 -14 403 -14 m 311 50 q 423 94 381 50 q 485 235 465 138 q 506 496 506 332 q 488 749 506 656 q 430 882 469 842 q 324 922 390 922 q 211 878 254 922 q 147 736 168 835 q 125 472 125 638 q 144 225 125 317 q 203 92 163 133 q 311 50 243 50 z "},"Ó":{"ha":629,"x_min":57,"x_max":571,"o":"m 310 -14 q 163 33 218 -14 q 83 189 108 79 q 57 493 57 299 q 122 872 57 757 q 325 986 186 986 q 469 939 417 986 q 547 785 522 892 q 571 494 571 679 q 544 197 571 308 q 460 36 517 86 q 310 -14 403 -14 m 311 50 q 423 94 381 50 q 485 235 465 138 q 506 496 506 332 q 488 749 506 656 q 430 882 469 842 q 324 922 390 922 q 211 878 254 922 q 147 736 168 835 q 125 472 125 638 q 144 225 125 317 q 203 92 163 133 q 311 50 243 50 m 232 1072 q 218 1088 226 1072 q 207 1110 210 1104 q 326 1217 260 1163 q 397 1272 393 1272 q 417 1253 408 1272 q 428 1221 426 1235 q 353 1160 419 1211 q 232 1072 288 1110 z "},"Ô":{"ha":629,"x_min":57,"x_max":571,"o":"m 310 -14 q 163 33 218 -14 q 83 189 108 79 q 57 493 57 299 q 122 872 57 757 q 325 986 186 986 q 469 939 417 986 q 547 785 522 892 q 571 494 571 679 q 544 197 571 308 q 460 36 517 86 q 310 -14 403 -14 m 311 50 q 423 94 381 50 q 485 235 465 138 q 506 496 506 332 q 488 749 506 656 q 430 882 469 842 q 324 922 390 922 q 211 878 254 922 q 147 736 168 835 q 125 472 125 638 q 144 225 125 317 q 203 92 163 133 q 311 50 243 50 m 429 1074 q 367 1140 413 1092 q 318 1197 322 1189 q 252 1126 301 1178 q 193 1075 203 1075 q 149 1099 168 1075 l 303 1251 q 319 1254 311 1254 q 344 1243 333 1254 q 422 1164 365 1222 q 478 1100 478 1106 q 462 1083 478 1093 q 429 1074 446 1074 z "},"Ố":{"ha":629,"x_min":57,"x_max":668,"o":"m 481 1185 q 467 1200 475 1185 q 457 1221 460 1215 q 572 1324 508 1272 q 639 1376 635 1376 q 658 1359 650 1376 q 668 1328 667 1342 q 599 1271 663 1319 q 481 1185 536 1222 m 424 1069 q 364 1133 407 1086 q 318 1189 321 1181 q 254 1121 301 1171 q 197 1071 207 1071 q 156 1094 169 1071 l 303 1240 q 319 1243 311 1243 q 343 1232 332 1243 q 417 1156 363 1211 q 471 1096 471 1100 q 456 1079 471 1089 q 424 1069 440 1069 m 310 -14 q 163 33 218 -14 q 83 189 108 79 q 57 493 57 299 q 122 872 57 757 q 325 986 186 986 q 469 939 417 986 q 547 785 522 892 q 571 494 571 679 q 544 197 571 308 q 460 36 517 86 q 310 -14 403 -14 m 311 50 q 423 94 381 50 q 485 235 465 138 q 506 496 506 332 q 488 749 506 656 q 430 882 469 842 q 324 922 390 922 q 211 878 254 922 q 147 736 168 835 q 125 472 125 638 q 144 225 125 317 q 203 92 163 133 q 311 50 243 50 z "},"Ộ":{"ha":629,"x_min":57,"x_max":571,"o":"m 310 -14 q 163 33 218 -14 q 83 189 108 79 q 57 493 57 299 q 122 872 57 757 q 325 986 186 986 q 469 939 417 986 q 547 785 522 892 q 571 494 571 679 q 544 197 571 308 q 460 36 517 86 q 310 -14 403 -14 m 311 50 q 423 94 381 50 q 485 235 465 138 q 506 496 506 332 q 488 749 506 656 q 430 882 469 842 q 324 922 390 922 q 211 878 254 922 q 147 736 168 835 q 125 472 125 638 q 144 225 125 317 q 203 92 163 133 q 311 50 243 50 m 313 -211 q 286 -198 294 -211 q 278 -157 278 -185 q 317 -104 281 -104 q 344 -117 336 -104 q 353 -157 353 -129 q 313 -211 350 -211 m 429 1074 q 367 1140 413 1092 q 318 1197 322 1189 q 252 1126 301 1178 q 193 1075 203 1075 q 149 1099 168 1075 l 303 1251 q 319 1254 311 1254 q 344 1243 333 1254 q 422 1164 365 1222 q 478 1100 478 1106 q 462 1083 478 1093 q 429 1074 446 1074 z "},"Ồ":{"ha":629,"x_min":57,"x_max":571,"o":"m 442 1236 q 326 1321 389 1272 q 254 1378 263 1369 q 265 1409 256 1390 q 283 1428 274 1428 q 352 1375 289 1428 q 465 1271 415 1322 q 455 1251 463 1265 q 442 1236 447 1236 m 424 1069 q 364 1133 407 1086 q 318 1189 321 1181 q 254 1121 301 1171 q 197 1071 207 1071 q 156 1094 169 1071 l 303 1240 q 319 1243 311 1243 q 343 1232 332 1243 q 417 1156 363 1211 q 471 1096 471 1100 q 456 1079 471 1089 q 424 1069 440 1069 m 310 -14 q 163 33 218 -14 q 83 189 108 79 q 57 493 57 299 q 122 872 57 757 q 325 986 186 986 q 469 939 417 986 q 547 785 522 892 q 571 494 571 679 q 544 197 571 308 q 460 36 517 86 q 310 -14 403 -14 m 311 50 q 423 94 381 50 q 485 235 465 138 q 506 496 506 332 q 488 749 506 656 q 430 882 469 842 q 324 922 390 922 q 211 878 254 922 q 147 736 168 835 q 125 472 125 638 q 144 225 125 317 q 203 92 163 133 q 311 50 243 50 z "},"Ổ":{"ha":629,"x_min":57,"x_max":571,"o":"m 458 1200 q 458 1205 458 1201 q 457 1214 457 1208 q 461 1235 457 1225 q 486 1260 469 1247 q 507 1279 500 1269 q 514 1310 514 1289 q 460 1365 514 1365 q 408 1350 431 1365 l 408 1396 q 424 1408 408 1401 q 458 1415 439 1415 q 540 1390 513 1415 q 568 1315 568 1364 q 555 1268 568 1285 q 528 1242 542 1251 q 508 1229 514 1233 q 501 1215 503 1225 q 499 1201 499 1204 q 475 1199 496 1199 l 458 1200 m 424 1069 q 364 1133 407 1086 q 318 1189 321 1181 q 254 1121 301 1171 q 197 1071 207 1071 q 156 1094 169 1071 l 303 1240 q 319 1243 311 1243 q 343 1232 332 1243 q 417 1156 363 1211 q 471 1096 471 1100 q 456 1079 471 1089 q 424 1069 440 1069 m 310 -14 q 163 33 218 -14 q 83 189 108 79 q 57 493 57 299 q 122 872 57 757 q 325 986 186 986 q 469 939 417 986 q 547 785 522 892 q 571 494 571 679 q 544 197 571 308 q 460 36 517 86 q 310 -14 403 -14 m 311 50 q 423 94 381 50 q 485 235 465 138 q 506 496 506 332 q 488 749 506 656 q 430 882 469 842 q 324 922 390 922 q 211 878 254 922 q 147 736 168 835 q 125 472 125 638 q 144 225 125 317 q 203 92 163 133 q 311 50 243 50 z "},"Ỗ":{"ha":629,"x_min":57,"x_max":571,"o":"m 397 1272 q 351 1283 368 1272 q 315 1317 335 1294 q 292 1339 301 1332 q 269 1346 282 1346 q 230 1333 246 1346 q 201 1301 214 1319 q 183 1283 188 1283 q 161 1297 172 1283 q 150 1314 150 1311 q 210 1382 179 1363 q 281 1401 242 1401 q 315 1392 301 1401 q 344 1365 329 1383 q 372 1340 360 1349 q 404 1332 385 1332 q 452 1345 435 1332 q 482 1376 469 1358 q 500 1394 494 1394 q 518 1379 510 1394 q 526 1360 526 1364 q 397 1272 481 1272 m 424 1069 q 364 1133 407 1086 q 318 1189 321 1181 q 254 1121 301 1171 q 197 1071 207 1071 q 156 1094 169 1071 l 303 1240 q 319 1243 311 1243 q 343 1232 332 1243 q 417 1156 363 1211 q 471 1096 471 1100 q 456 1079 471 1089 q 424 1069 440 1069 m 310 -14 q 163 33 218 -14 q 83 189 108 79 q 57 493 57 299 q 122 872 57 757 q 325 986 186 986 q 469 939 417 986 q 547 785 522 892 q 571 494 571 679 q 544 197 571 308 q 460 36 517 86 q 310 -14 403 -14 m 311 50 q 423 94 381 50 q 485 235 465 138 q 506 496 506 332 q 488 749 506 656 q 430 882 469 842 q 324 922 390 922 q 211 878 254 922 q 147 736 168 835 q 125 472 125 638 q 144 225 125 317 q 203 92 163 133 q 311 50 243 50 z "},"Ö":{"ha":629,"x_min":57,"x_max":571,"o":"m 310 -14 q 163 33 218 -14 q 83 189 108 79 q 57 493 57 299 q 122 872 57 757 q 325 986 186 986 q 469 939 417 986 q 547 785 522 892 q 571 494 571 679 q 544 197 571 308 q 460 36 517 86 q 310 -14 403 -14 m 311 50 q 423 94 381 50 q 485 235 465 138 q 506 496 506 332 q 488 749 506 656 q 430 882 469 842 q 324 922 390 922 q 211 878 254 922 q 147 736 168 835 q 125 472 125 638 q 144 225 125 317 q 203 92 163 133 q 311 50 243 50 m 238 1110 q 203 1164 201 1110 q 242 1218 203 1218 q 269 1205 261 1218 q 276 1164 278 1192 q 238 1110 276 1110 m 386 1110 q 359 1123 368 1110 q 350 1164 350 1136 q 390 1218 353 1218 q 418 1205 410 1218 q 425 1164 426 1192 q 386 1110 425 1110 z "},"Ọ":{"ha":629,"x_min":57,"x_max":571,"o":"m 310 -14 q 163 33 218 -14 q 83 189 108 79 q 57 493 57 299 q 122 872 57 757 q 325 986 186 986 q 469 939 417 986 q 547 785 522 892 q 571 494 571 679 q 544 197 571 308 q 460 36 517 86 q 310 -14 403 -14 m 311 50 q 423 94 381 50 q 485 235 465 138 q 506 496 506 332 q 488 749 506 656 q 430 882 469 842 q 324 922 390 922 q 211 878 254 922 q 147 736 168 835 q 125 472 125 638 q 144 225 125 317 q 203 92 163 133 q 311 50 243 50 m 313 -211 q 286 -198 294 -211 q 278 -157 278 -185 q 317 -104 281 -104 q 344 -117 336 -104 q 353 -157 353 -129 q 313 -211 350 -211 z "},"Ò":{"ha":629,"x_min":57,"x_max":571,"o":"m 310 -14 q 163 33 218 -14 q 83 189 108 79 q 57 493 57 299 q 122 872 57 757 q 325 986 186 986 q 469 939 417 986 q 547 785 522 892 q 571 494 571 679 q 544 197 571 308 q 460 36 517 86 q 310 -14 403 -14 m 311 50 q 423 94 381 50 q 485 235 465 138 q 506 496 506 332 q 488 749 506 656 q 430 882 469 842 q 324 922 390 922 q 211 878 254 922 q 147 736 168 835 q 125 472 125 638 q 144 225 125 317 q 203 92 163 133 q 311 50 243 50 m 403 1069 q 283 1156 349 1106 q 207 1217 217 1207 q 217 1249 208 1231 q 238 1268 226 1268 q 309 1213 243 1268 q 428 1106 375 1158 q 417 1085 425 1100 q 403 1069 408 1069 z "},"Ỏ":{"ha":629,"x_min":57,"x_max":571,"o":"m 310 -14 q 163 33 218 -14 q 83 189 108 79 q 57 493 57 299 q 122 872 57 757 q 325 986 186 986 q 469 939 417 986 q 547 785 522 892 q 571 494 571 679 q 544 197 571 308 q 460 36 517 86 q 310 -14 403 -14 m 311 50 q 423 94 381 50 q 485 235 465 138 q 506 496 506 332 q 488 749 506 656 q 430 882 469 842 q 324 922 390 922 q 211 878 254 922 q 147 736 168 835 q 125 472 125 638 q 144 225 125 317 q 203 92 163 133 q 311 50 243 50 m 283 1040 q 283 1046 283 1042 q 282 1056 282 1050 q 286 1076 282 1069 q 311 1103 292 1086 q 333 1124 326 1114 q 340 1154 340 1133 q 285 1213 340 1213 q 231 1196 254 1213 l 231 1244 q 247 1257 231 1250 q 283 1264 263 1264 q 369 1237 340 1264 q 397 1160 397 1210 q 383 1110 397 1128 q 354 1083 369 1093 q 335 1071 339 1074 q 327 1055 329 1065 q 325 1042 325 1044 q 300 1039 322 1039 l 283 1040 z "},"Ơ":{"ha":629,"x_min":57,"x_max":571,"o":"m 474 935 q 548 780 525 885 q 571 494 571 675 q 544 197 571 308 q 460 36 517 86 q 310 -14 403 -14 q 163 33 218 -14 q 83 189 108 79 q 57 493 57 299 q 122 872 57 757 q 325 986 186 986 q 417 971 381 986 q 478 997 461 975 q 494 1063 494 1019 q 517 1075 494 1075 q 540 1070 529 1075 q 550 1057 550 1065 q 535 985 553 1019 q 474 935 517 951 m 311 50 q 423 94 381 50 q 485 235 465 138 q 506 496 506 332 q 488 749 506 656 q 430 882 469 842 q 324 922 390 922 q 211 878 254 922 q 147 736 168 835 q 125 472 125 638 q 144 225 125 317 q 203 92 163 133 q 311 50 243 50 z "},"Ớ":{"ha":629,"x_min":57,"x_max":571,"o":"m 474 935 q 548 780 525 885 q 571 494 571 675 q 544 197 571 308 q 460 36 517 86 q 310 -14 403 -14 q 163 33 218 -14 q 83 189 108 79 q 57 493 57 299 q 122 872 57 757 q 325 986 186 986 q 417 971 381 986 q 478 997 461 975 q 494 1063 494 1019 q 517 1075 494 1075 q 540 1070 529 1075 q 550 1057 550 1065 q 535 985 553 1019 q 474 935 517 951 m 311 50 q 423 94 381 50 q 485 235 465 138 q 506 496 506 332 q 488 749 506 656 q 430 882 469 842 q 324 922 390 922 q 211 878 254 922 q 147 736 168 835 q 125 472 125 638 q 144 225 125 317 q 203 92 163 133 q 311 50 243 50 m 228 1072 q 214 1088 222 1072 q 203 1110 206 1104 q 322 1217 256 1163 q 393 1272 389 1272 q 413 1253 404 1272 q 424 1221 422 1235 q 349 1160 415 1211 q 228 1072 283 1110 z "},"Ợ":{"ha":629,"x_min":57,"x_max":571,"o":"m 474 935 q 548 780 525 885 q 571 494 571 675 q 544 197 571 308 q 460 36 517 86 q 310 -14 403 -14 q 163 33 218 -14 q 83 189 108 79 q 57 493 57 299 q 122 872 57 757 q 325 986 186 986 q 417 971 381 986 q 478 997 461 975 q 494 1063 494 1019 q 517 1075 494 1075 q 540 1070 529 1075 q 550 1057 550 1065 q 535 985 553 1019 q 474 935 517 951 m 311 50 q 423 94 381 50 q 485 235 465 138 q 506 496 506 332 q 488 749 506 656 q 430 882 469 842 q 324 922 390 922 q 211 878 254 922 q 147 736 168 835 q 125 472 125 638 q 144 225 125 317 q 203 92 163 133 q 311 50 243 50 m 313 -211 q 286 -198 294 -211 q 278 -157 278 -185 q 317 -104 281 -104 q 344 -117 336 -104 q 353 -157 353 -129 q 313 -211 350 -211 z "},"Ờ":{"ha":629,"x_min":57,"x_max":571,"o":"m 474 935 q 548 780 525 885 q 571 494 571 675 q 544 197 571 308 q 460 36 517 86 q 310 -14 403 -14 q 163 33 218 -14 q 83 189 108 79 q 57 493 57 299 q 122 872 57 757 q 325 986 186 986 q 417 971 381 986 q 478 997 461 975 q 494 1063 494 1019 q 517 1075 494 1075 q 540 1070 529 1075 q 550 1057 550 1065 q 535 985 553 1019 q 474 935 517 951 m 311 50 q 423 94 381 50 q 485 235 465 138 q 506 496 506 332 q 488 749 506 656 q 430 882 469 842 q 324 922 390 922 q 211 878 254 922 q 147 736 168 835 q 125 472 125 638 q 144 225 125 317 q 203 92 163 133 q 311 50 243 50 m 399 1069 q 278 1156 344 1106 q 203 1217 213 1207 q 213 1249 204 1231 q 233 1268 222 1268 q 305 1213 239 1268 q 424 1106 371 1158 q 413 1085 421 1100 q 399 1069 404 1069 z "},"Ở":{"ha":629,"x_min":57,"x_max":571,"o":"m 474 935 q 548 780 525 885 q 571 494 571 675 q 544 197 571 308 q 460 36 517 86 q 310 -14 403 -14 q 163 33 218 -14 q 83 189 108 79 q 57 493 57 299 q 122 872 57 757 q 325 986 186 986 q 417 971 381 986 q 478 997 461 975 q 494 1063 494 1019 q 517 1075 494 1075 q 540 1070 529 1075 q 550 1057 550 1065 q 535 985 553 1019 q 474 935 517 951 m 311 50 q 423 94 381 50 q 485 235 465 138 q 506 496 506 332 q 488 749 506 656 q 430 882 469 842 q 324 922 390 922 q 211 878 254 922 q 147 736 168 835 q 125 472 125 638 q 144 225 125 317 q 203 92 163 133 q 311 50 243 50 m 283 1040 q 283 1046 283 1042 q 282 1056 282 1050 q 286 1076 282 1069 q 311 1103 292 1086 q 333 1124 326 1114 q 340 1154 340 1133 q 285 1213 340 1213 q 231 1196 254 1213 l 231 1244 q 247 1257 231 1250 q 283 1264 263 1264 q 369 1237 340 1264 q 397 1160 397 1210 q 383 1110 397 1128 q 354 1083 369 1093 q 335 1071 339 1074 q 327 1055 329 1065 q 325 1042 325 1044 q 300 1039 322 1039 l 283 1040 z "},"Ỡ":{"ha":629,"x_min":57,"x_max":571,"o":"m 474 935 q 548 780 525 885 q 571 494 571 675 q 544 197 571 308 q 460 36 517 86 q 310 -14 403 -14 q 163 33 218 -14 q 83 189 108 79 q 57 493 57 299 q 122 872 57 757 q 325 986 186 986 q 417 971 381 986 q 478 997 461 975 q 494 1063 494 1019 q 517 1075 494 1075 q 540 1070 529 1075 q 550 1057 550 1065 q 535 985 553 1019 q 474 935 517 951 m 311 50 q 423 94 381 50 q 485 235 465 138 q 506 496 506 332 q 488 749 506 656 q 430 882 469 842 q 324 922 390 922 q 211 878 254 922 q 147 736 168 835 q 125 472 125 638 q 144 225 125 317 q 203 92 163 133 q 311 50 243 50 m 375 1086 q 326 1098 344 1086 q 290 1132 308 1110 q 278 1144 288 1135 q 260 1158 269 1153 q 242 1163 251 1163 q 201 1149 218 1163 q 170 1117 185 1136 q 151 1097 156 1097 q 128 1112 140 1097 q 117 1129 117 1126 q 181 1201 149 1181 q 254 1221 214 1221 q 291 1211 276 1221 q 321 1183 306 1201 q 349 1158 336 1167 q 382 1149 363 1149 q 433 1163 415 1149 q 465 1195 451 1176 q 482 1214 478 1214 q 501 1198 493 1214 q 510 1178 510 1182 q 460 1115 492 1143 q 375 1086 428 1086 z "},"Ő":{"ha":629,"x_min":57,"x_max":571,"o":"m 310 -14 q 163 33 218 -14 q 83 189 108 79 q 57 493 57 299 q 122 872 57 757 q 325 986 186 986 q 469 939 417 986 q 547 785 522 892 q 571 494 571 679 q 544 197 571 308 q 460 36 517 86 q 310 -14 403 -14 m 311 50 q 423 94 381 50 q 485 235 465 138 q 506 496 506 332 q 488 749 506 656 q 430 882 469 842 q 324 922 390 922 q 211 878 254 922 q 147 736 168 835 q 125 472 125 638 q 144 225 125 317 q 203 92 163 133 q 311 50 243 50 m 214 1067 q 197 1078 208 1065 q 181 1096 185 1090 q 262 1215 215 1153 q 314 1278 308 1276 q 337 1266 325 1281 q 356 1236 349 1251 q 302 1167 349 1225 q 214 1067 256 1110 m 365 1067 q 349 1078 360 1065 q 333 1096 338 1090 q 414 1213 367 1151 q 465 1278 461 1275 q 488 1266 476 1281 q 507 1236 500 1251 q 456 1169 503 1228 q 365 1067 408 1111 z "},"Ō":{"ha":629,"x_min":57,"x_max":571,"o":"m 310 -14 q 163 33 218 -14 q 83 189 108 79 q 57 493 57 299 q 122 872 57 757 q 325 986 186 986 q 469 939 417 986 q 547 785 522 892 q 571 494 571 679 q 544 197 571 308 q 460 36 517 86 q 310 -14 403 -14 m 311 50 q 423 94 381 50 q 485 235 465 138 q 506 496 506 332 q 488 749 506 656 q 430 882 469 842 q 324 922 390 922 q 211 878 254 922 q 147 736 168 835 q 125 472 125 638 q 144 225 125 317 q 203 92 163 133 q 311 50 243 50 m 142 1125 q 139 1156 139 1136 q 165 1186 142 1186 l 483 1186 q 488 1157 488 1175 q 463 1125 485 1125 l 142 1125 z "},"Ø":{"ha":632,"x_min":60,"x_max":572,"o":"m 518 872 q 572 494 572 760 q 545 197 572 308 q 461 36 518 86 q 311 -14 404 -14 q 149 50 203 -14 q 118 -24 126 -7 q 92 -19 106 -24 q 76 -1 78 -14 q 86 27 75 0 q 103 68 97 54 l 115 100 q 60 493 60 215 q 88 780 60 672 q 174 937 117 888 q 324 986 232 986 q 482 925 426 986 q 511 999 507 993 q 524 997 514 999 q 543 990 533 994 q 554 978 553 986 q 528 899 556 975 l 518 872 m 324 924 q 174 820 221 924 q 126 472 126 717 q 164 154 126 249 l 440 872 q 324 924 401 924 m 308 50 q 421 90 378 50 q 485 228 464 131 q 507 496 507 325 q 468 821 507 725 q 369 563 421 697 q 275 319 317 428 l 192 103 q 308 50 232 50 z "},"Õ":{"ha":629,"x_min":57,"x_max":571,"o":"m 310 -14 q 163 33 218 -14 q 83 189 108 79 q 57 493 57 299 q 122 872 57 757 q 325 986 186 986 q 469 939 417 986 q 547 785 522 892 q 571 494 571 679 q 544 197 571 308 q 460 36 517 86 q 310 -14 403 -14 m 311 50 q 423 94 381 50 q 485 235 465 138 q 506 496 506 332 q 488 749 506 656 q 430 882 469 842 q 324 922 390 922 q 211 878 254 922 q 147 736 168 835 q 125 472 125 638 q 144 225 125 317 q 203 92 163 133 q 311 50 243 50 m 375 1086 q 326 1098 344 1086 q 290 1132 308 1110 q 278 1144 288 1135 q 260 1158 269 1153 q 242 1163 251 1163 q 201 1149 218 1163 q 170 1117 185 1136 q 151 1097 156 1097 q 128 1112 140 1097 q 117 1129 117 1126 q 181 1201 149 1181 q 254 1221 214 1221 q 291 1211 276 1221 q 321 1183 306 1201 q 349 1158 336 1167 q 382 1149 363 1149 q 433 1163 415 1149 q 465 1195 451 1176 q 482 1214 478 1214 q 501 1198 493 1214 q 510 1178 510 1182 q 460 1115 492 1143 q 375 1086 428 1086 z "},"Œ":{"ha":890,"x_min":56,"x_max":849,"o":"m 561 58 l 847 58 q 845 9 847 18 q 833 0 843 0 l 506 0 l 506 108 q 428 15 476 44 q 308 -14 381 -14 q 162 33 217 -14 q 81 189 107 79 q 56 492 56 299 q 119 871 56 756 q 321 986 183 986 q 433 960 388 986 q 506 879 478 935 l 506 956 q 509 966 506 960 q 522 972 513 972 l 849 972 q 847 923 849 932 q 835 914 844 914 l 561 914 l 561 561 l 818 561 q 816 513 818 522 q 803 503 814 503 l 561 503 l 561 58 m 308 49 q 418 92 378 49 q 476 233 458 136 q 493 496 493 329 q 477 751 493 660 q 424 884 461 843 q 321 925 388 925 q 171 821 218 925 q 124 472 124 717 q 142 224 124 317 q 201 90 161 132 q 308 49 242 49 z "},"P":{"ha":518,"x_min":82,"x_max":483,"o":"m 246 972 q 427 903 371 972 q 483 711 483 833 q 419 491 483 564 q 239 418 354 418 l 144 418 l 144 17 q 142 4 144 7 q 124 1 139 1 q 82 0 108 0 l 82 956 q 99 972 82 972 l 246 972 m 242 476 q 417 717 417 476 q 249 915 417 915 l 144 915 l 144 476 l 242 476 z "},"Þ":{"ha":518,"x_min":82,"x_max":483,"o":"m 82 956 q 91 969 82 967 q 125 972 100 972 l 144 972 l 144 781 l 246 781 q 427 711 371 781 q 483 519 483 642 q 419 299 483 372 q 239 225 354 225 l 144 225 l 144 17 q 141 5 144 8 q 122 1 138 1 q 82 0 107 0 l 82 956 m 242 285 q 374 346 331 285 q 417 524 417 407 q 378 669 417 615 q 249 722 340 722 l 144 722 l 144 286 l 242 285 z "},"Q":{"ha":629,"x_min":57,"x_max":571,"o":"m 454 -131 q 544 -107 507 -131 q 556 -142 556 -118 q 521 -172 556 -160 q 443 -183 486 -183 q 350 -144 385 -183 q 296 -14 315 -104 q 158 37 210 -11 q 81 194 106 85 q 57 493 57 304 q 122 872 57 757 q 325 986 186 986 q 469 939 417 986 q 547 785 522 892 q 571 494 571 679 q 522 128 571 246 q 365 -8 474 11 q 397 -104 378 -78 q 454 -131 417 -131 m 125 472 q 144 225 125 317 q 203 92 163 133 q 311 50 243 50 q 423 94 381 50 q 485 235 465 138 q 506 496 506 332 q 488 749 506 656 q 430 882 469 842 q 324 922 390 922 q 211 878 254 922 q 147 736 168 835 q 125 472 125 638 z "},"R":{"ha":528,"x_min":82,"x_max":483,"o":"m 483 711 q 444 527 483 596 q 332 432 404 458 q 420 267 376 371 q 478 19 464 164 q 472 3 478 7 q 447 -1 467 0 l 413 0 q 351 269 393 167 q 269 419 308 372 q 239 418 260 418 l 144 418 l 144 17 q 142 4 144 7 q 124 1 139 1 q 82 0 108 0 l 82 956 q 85 966 82 960 q 99 972 89 972 l 246 972 q 427 903 371 972 q 483 711 483 833 m 242 476 q 373 538 329 476 q 417 714 417 599 q 378 861 417 807 q 249 915 340 915 l 144 915 l 144 476 l 242 476 z "},"Ŕ":{"ha":528,"x_min":82,"x_max":483,"o":"m 483 711 q 444 527 483 596 q 332 432 404 458 q 420 267 376 371 q 478 19 464 164 q 472 3 478 7 q 447 -1 467 0 l 413 0 q 351 269 393 167 q 269 419 308 372 q 239 418 260 418 l 144 418 l 144 17 q 142 4 144 7 q 124 1 139 1 q 82 0 108 0 l 82 956 q 85 966 82 960 q 99 972 89 972 l 246 972 q 427 903 371 972 q 483 711 483 833 m 242 476 q 373 538 329 476 q 417 714 417 599 q 378 861 417 807 q 249 915 340 915 l 144 915 l 144 476 l 242 476 m 156 1072 q 142 1088 150 1072 q 131 1110 133 1104 q 250 1217 183 1163 q 321 1272 317 1272 q 341 1253 332 1272 q 351 1221 350 1235 q 277 1160 343 1211 q 156 1072 211 1110 z "},"Ř":{"ha":528,"x_min":76,"x_max":483,"o":"m 483 711 q 444 527 483 596 q 332 432 404 458 q 420 267 376 371 q 478 19 464 164 q 472 3 478 7 q 447 -1 467 0 l 413 0 q 351 269 393 167 q 269 419 308 372 q 239 418 260 418 l 144 418 l 144 17 q 142 4 144 7 q 124 1 139 1 q 82 0 108 0 l 82 956 q 85 966 82 960 q 99 972 89 972 l 246 972 q 427 903 371 972 q 483 711 483 833 m 242 476 q 373 538 329 476 q 417 714 417 599 q 378 861 417 807 q 249 915 340 915 l 144 915 l 144 476 l 242 476 m 247 1076 q 160 1149 233 1076 q 76 1235 86 1221 q 90 1259 79 1244 q 110 1274 100 1274 q 174 1216 119 1274 q 247 1138 228 1158 q 322 1224 283 1182 q 371 1278 360 1265 q 397 1246 397 1263 q 363 1195 397 1238 q 292 1115 329 1153 q 247 1076 256 1076 z "},"Ŗ":{"ha":528,"x_min":82,"x_max":483,"o":"m 483 711 q 444 527 483 596 q 332 432 404 458 q 420 267 376 371 q 478 19 464 164 q 472 3 478 7 q 447 -1 467 0 l 413 0 q 351 269 393 167 q 269 419 308 372 q 239 418 260 418 l 144 418 l 144 17 q 142 4 144 7 q 124 1 139 1 q 82 0 108 0 l 82 956 q 85 966 82 960 q 99 972 89 972 l 246 972 q 427 903 371 972 q 483 711 483 833 m 242 476 q 373 538 329 476 q 417 714 417 599 q 378 861 417 807 q 249 915 340 915 l 144 915 l 144 476 l 242 476 m 235 -342 q 218 -335 226 -342 q 208 -319 210 -329 q 240 -250 231 -282 q 250 -183 249 -218 q 225 -133 225 -169 q 238 -97 225 -111 q 274 -82 251 -82 q 310 -96 299 -82 q 322 -143 322 -110 q 306 -228 322 -182 q 267 -308 289 -275 q 235 -342 246 -342 z "},"S":{"ha":519,"x_min":50,"x_max":474,"o":"m 233 -14 q 132 -2 174 -14 q 70 26 90 10 q 50 57 50 42 q 56 80 50 68 q 71 100 61 92 q 231 49 128 49 q 365 97 321 49 q 408 231 408 146 q 386 342 408 293 q 306 451 364 392 l 151 607 q 78 706 101 661 q 54 803 54 751 q 115 935 54 885 q 283 986 176 986 q 413 968 368 986 q 457 928 457 950 q 439 889 457 907 q 378 917 419 904 q 285 929 338 929 q 165 895 210 929 q 119 804 119 861 q 140 728 119 763 q 200 650 160 693 l 371 479 q 451 363 429 417 q 474 236 474 308 q 415 54 474 122 q 233 -14 356 -14 z "},"Ś":{"ha":519,"x_min":50,"x_max":474,"o":"m 233 -14 q 132 -2 174 -14 q 70 26 90 10 q 50 57 50 42 q 56 80 50 68 q 71 100 61 92 q 231 49 128 49 q 365 97 321 49 q 408 231 408 146 q 386 342 408 293 q 306 451 364 392 l 151 607 q 78 706 101 661 q 54 803 54 751 q 115 935 54 885 q 283 986 176 986 q 413 968 368 986 q 457 928 457 950 q 439 889 457 907 q 378 917 419 904 q 285 929 338 929 q 165 895 210 929 q 119 804 119 861 q 140 728 119 763 q 200 650 160 693 l 371 479 q 451 363 429 417 q 474 236 474 308 q 415 54 474 122 q 233 -14 356 -14 m 178 1072 q 164 1088 172 1072 q 153 1110 156 1104 q 272 1217 206 1163 q 343 1272 339 1272 q 363 1253 354 1272 q 374 1221 372 1235 q 299 1160 365 1211 q 178 1072 233 1110 z "},"Š":{"ha":519,"x_min":50,"x_max":474,"o":"m 233 -14 q 132 -2 174 -14 q 70 26 90 10 q 50 57 50 42 q 56 80 50 68 q 71 100 61 92 q 231 49 128 49 q 365 97 321 49 q 408 231 408 146 q 386 342 408 293 q 306 451 364 392 l 151 607 q 78 706 101 661 q 54 803 54 751 q 115 935 54 885 q 283 986 176 986 q 413 968 368 986 q 457 928 457 950 q 439 889 457 907 q 378 917 419 904 q 285 929 338 929 q 165 895 210 929 q 119 804 119 861 q 140 728 119 763 q 200 650 160 693 l 371 479 q 451 363 429 417 q 474 236 474 308 q 415 54 474 122 q 233 -14 356 -14 m 269 1076 q 182 1149 256 1076 q 99 1235 108 1221 q 112 1259 101 1244 q 132 1274 122 1274 q 196 1216 142 1274 q 269 1138 250 1158 q 344 1224 306 1182 q 393 1278 382 1265 q 419 1246 419 1263 q 385 1195 419 1238 q 315 1115 351 1153 q 269 1076 278 1076 z "},"Ş":{"ha":519,"x_min":50,"x_max":474,"o":"m 474 236 q 426 67 474 133 q 278 -11 378 1 l 261 -83 q 268 -83 263 -83 q 288 -82 274 -82 q 335 -101 315 -82 q 354 -158 354 -119 q 326 -236 354 -211 q 258 -261 297 -261 q 213 -256 235 -261 q 186 -249 192 -251 q 190 -228 186 -243 q 200 -208 194 -214 q 210 -206 203 -204 q 232 -212 217 -207 q 260 -218 247 -218 q 308 -168 308 -218 q 296 -129 308 -139 q 261 -119 283 -119 q 228 -122 244 -119 q 208 -126 213 -125 l 231 -14 q 131 -2 172 -14 q 70 26 90 10 q 50 57 50 42 q 56 80 50 68 q 71 100 61 92 q 231 49 128 49 q 365 97 321 49 q 408 231 408 146 q 386 342 408 293 q 306 451 364 392 l 151 607 q 78 706 101 661 q 54 803 54 751 q 115 935 54 885 q 283 986 176 986 q 413 968 368 986 q 457 928 457 950 q 439 889 457 907 q 378 917 419 904 q 285 929 338 929 q 165 895 210 929 q 119 804 119 861 q 140 728 119 763 q 200 650 160 693 l 371 479 q 451 363 429 417 q 474 236 474 308 z "},"Ș":{"ha":519,"x_min":50,"x_max":474,"o":"m 233 -14 q 132 -2 174 -14 q 70 26 90 10 q 50 57 50 42 q 56 80 50 68 q 71 100 61 92 q 231 49 128 49 q 365 97 321 49 q 408 231 408 146 q 386 342 408 293 q 306 451 364 392 l 151 607 q 78 706 101 661 q 54 803 54 751 q 115 935 54 885 q 283 986 176 986 q 413 968 368 986 q 457 928 457 950 q 439 889 457 907 q 378 917 419 904 q 285 929 338 929 q 165 895 210 929 q 119 804 119 861 q 140 728 119 763 q 200 650 160 693 l 371 479 q 451 363 429 417 q 474 236 474 308 q 415 54 474 122 q 233 -14 356 -14 m 229 -342 q 213 -335 221 -342 q 203 -319 204 -329 q 234 -250 225 -282 q 244 -183 243 -218 q 219 -133 219 -169 q 233 -97 219 -111 q 268 -82 246 -82 q 305 -96 293 -82 q 317 -143 317 -110 q 300 -228 317 -182 q 262 -308 283 -275 q 229 -342 240 -342 z "},"T":{"ha":507,"x_min":8,"x_max":499,"o":"m 499 972 l 499 929 q 481 913 499 913 l 282 913 l 282 17 q 279 4 282 7 q 261 1 276 1 q 219 0 246 0 l 219 913 l 8 913 l 8 956 q 26 972 8 972 l 499 972 z "},"Ť":{"ha":507,"x_min":8,"x_max":499,"o":"m 499 972 l 499 929 q 481 913 499 913 l 282 913 l 282 17 q 279 4 282 7 q 261 1 276 1 q 219 0 246 0 l 219 913 l 8 913 l 8 956 q 26 972 8 972 l 499 972 m 263 1076 q 175 1149 249 1076 q 92 1235 101 1221 q 105 1259 94 1244 q 125 1274 115 1274 q 189 1216 135 1274 q 263 1138 243 1158 q 337 1224 299 1182 q 386 1278 375 1265 q 413 1246 413 1263 q 378 1195 413 1238 q 308 1115 344 1153 q 263 1076 271 1076 z "},"Ţ":{"ha":507,"x_min":8,"x_max":499,"o":"m 499 972 l 499 929 q 481 913 499 913 l 282 913 l 282 17 q 281 6 282 8 q 271 1 279 3 l 251 -83 q 258 -83 253 -83 q 278 -82 264 -82 q 325 -101 306 -82 q 344 -158 344 -119 q 316 -236 344 -211 q 249 -261 288 -261 q 203 -256 225 -261 q 176 -249 182 -251 q 181 -228 176 -243 q 190 -208 185 -214 q 200 -206 193 -204 q 222 -212 207 -207 q 250 -218 238 -218 q 299 -168 299 -218 q 286 -129 299 -139 q 251 -119 274 -119 q 219 -122 235 -119 q 199 -126 203 -125 l 224 0 l 219 0 l 219 913 l 8 913 l 8 956 q 26 972 8 972 l 499 972 z "},"Ț":{"ha":507,"x_min":8,"x_max":499,"o":"m 499 972 l 499 929 q 481 913 499 913 l 282 913 l 282 17 q 279 4 282 7 q 261 1 276 1 q 219 0 246 0 l 219 913 l 8 913 l 8 956 q 26 972 8 972 l 499 972 m 219 -342 q 203 -335 211 -342 q 193 -319 194 -329 q 224 -250 215 -282 q 235 -183 233 -218 q 210 -133 210 -169 q 223 -97 210 -111 q 258 -82 236 -82 q 295 -96 283 -82 q 307 -143 307 -110 q 290 -228 307 -182 q 252 -308 274 -275 q 219 -342 231 -342 z "},"U":{"ha":649,"x_min":82,"x_max":567,"o":"m 333 -14 q 171 28 226 -14 q 99 137 115 69 q 82 304 82 204 l 82 954 q 85 967 82 964 q 103 972 88 971 q 146 972 119 972 l 146 303 q 158 167 146 221 q 212 79 171 113 q 333 46 253 46 q 431 56 382 46 q 504 78 479 65 l 504 956 q 508 967 504 964 q 526 972 511 971 q 567 972 542 972 l 567 33 q 471 0 536 14 q 333 -14 406 -14 z "},"Ú":{"ha":649,"x_min":82,"x_max":567,"o":"m 333 -14 q 171 28 226 -14 q 99 137 115 69 q 82 304 82 204 l 82 954 q 85 967 82 964 q 103 972 88 971 q 146 972 119 972 l 146 303 q 158 167 146 221 q 212 79 171 113 q 333 46 253 46 q 431 56 382 46 q 504 78 479 65 l 504 956 q 508 967 504 964 q 526 972 511 971 q 567 972 542 972 l 567 33 q 471 0 536 14 q 333 -14 406 -14 m 243 1072 q 229 1088 238 1072 q 218 1110 221 1104 q 338 1217 271 1163 q 408 1272 404 1272 q 428 1253 419 1272 q 439 1221 438 1235 q 365 1160 431 1211 q 243 1072 299 1110 z "},"Û":{"ha":649,"x_min":82,"x_max":567,"o":"m 333 -14 q 171 28 226 -14 q 99 137 115 69 q 82 304 82 204 l 82 954 q 85 967 82 964 q 103 972 88 971 q 146 972 119 972 l 146 303 q 158 167 146 221 q 212 79 171 113 q 333 46 253 46 q 431 56 382 46 q 504 78 479 65 l 504 956 q 508 967 504 964 q 526 972 511 971 q 567 972 542 972 l 567 33 q 471 0 536 14 q 333 -14 406 -14 m 440 1074 q 378 1140 424 1092 q 329 1197 333 1189 q 263 1126 313 1178 q 204 1075 214 1075 q 160 1099 179 1075 l 314 1251 q 331 1254 322 1254 q 356 1243 344 1254 q 433 1164 376 1222 q 489 1100 489 1106 q 473 1083 489 1093 q 440 1074 457 1074 z "},"Ü":{"ha":649,"x_min":82,"x_max":567,"o":"m 333 -14 q 171 28 226 -14 q 99 137 115 69 q 82 304 82 204 l 82 954 q 85 967 82 964 q 103 972 88 971 q 146 972 119 972 l 146 303 q 158 167 146 221 q 212 79 171 113 q 333 46 253 46 q 431 56 382 46 q 504 78 479 65 l 504 956 q 508 967 504 964 q 526 972 511 971 q 567 972 542 972 l 567 33 q 471 0 536 14 q 333 -14 406 -14 m 249 1110 q 214 1164 213 1110 q 253 1218 214 1218 q 281 1205 272 1218 q 288 1164 289 1192 q 249 1110 288 1110 m 397 1110 q 370 1123 379 1110 q 361 1164 361 1136 q 401 1218 364 1218 q 429 1205 421 1218 q 436 1164 438 1192 q 397 1110 436 1110 z "},"Ụ":{"ha":649,"x_min":82,"x_max":567,"o":"m 333 -14 q 171 28 226 -14 q 99 137 115 69 q 82 304 82 204 l 82 954 q 85 967 82 964 q 103 972 88 971 q 146 972 119 972 l 146 303 q 158 167 146 221 q 212 79 171 113 q 333 46 253 46 q 431 56 382 46 q 504 78 479 65 l 504 956 q 508 967 504 964 q 526 972 511 971 q 567 972 542 972 l 567 33 q 471 0 536 14 q 333 -14 406 -14 m 324 -211 q 297 -198 306 -211 q 289 -157 289 -185 q 328 -104 292 -104 q 356 -117 347 -104 q 364 -157 364 -129 q 324 -211 361 -211 z "},"Ù":{"ha":649,"x_min":82,"x_max":567,"o":"m 333 -14 q 171 28 226 -14 q 99 137 115 69 q 82 304 82 204 l 82 954 q 85 967 82 964 q 103 972 88 971 q 146 972 119 972 l 146 303 q 158 167 146 221 q 212 79 171 113 q 333 46 253 46 q 431 56 382 46 q 504 78 479 65 l 504 956 q 508 967 504 964 q 526 972 511 971 q 567 972 542 972 l 567 33 q 471 0 536 14 q 333 -14 406 -14 m 414 1069 q 294 1156 360 1106 q 218 1217 228 1207 q 228 1249 219 1231 q 249 1268 238 1268 q 320 1213 254 1268 q 439 1106 386 1158 q 428 1085 436 1100 q 414 1069 419 1069 z "},"Ủ":{"ha":649,"x_min":82,"x_max":567,"o":"m 333 -14 q 171 28 226 -14 q 99 137 115 69 q 82 304 82 204 l 82 954 q 85 967 82 964 q 103 972 88 971 q 146 972 119 972 l 146 303 q 158 167 146 221 q 212 79 171 113 q 333 46 253 46 q 431 56 382 46 q 504 78 479 65 l 504 956 q 508 967 504 964 q 526 972 511 971 q 567 972 542 972 l 567 33 q 471 0 536 14 q 333 -14 406 -14 m 294 1040 q 294 1046 294 1042 q 293 1056 293 1050 q 297 1076 293 1069 q 322 1103 303 1086 q 344 1124 338 1114 q 351 1154 351 1133 q 296 1213 351 1213 q 242 1196 265 1213 l 242 1244 q 258 1257 242 1250 q 294 1264 274 1264 q 380 1237 351 1264 q 408 1160 408 1210 q 394 1110 408 1128 q 365 1083 381 1093 q 346 1071 350 1074 q 338 1055 340 1065 q 336 1042 336 1044 q 311 1039 333 1039 l 294 1040 z "},"Ư":{"ha":649,"x_min":82,"x_max":668,"o":"m 665 1057 q 644 977 668 1014 q 567 928 621 940 l 567 33 q 471 0 536 14 q 333 -14 406 -14 q 171 28 226 -14 q 99 137 115 69 q 82 304 82 204 l 82 954 q 85 967 82 964 q 103 972 88 971 q 146 972 119 972 l 146 303 q 158 167 146 221 q 212 79 171 113 q 333 46 253 46 q 431 56 382 46 q 504 78 479 65 l 504 956 q 510 969 504 967 q 540 972 515 972 q 595 999 581 978 q 610 1063 610 1021 q 632 1075 610 1075 q 655 1070 644 1075 q 665 1057 665 1065 z "},"Ứ":{"ha":649,"x_min":82,"x_max":665,"o":"m 665 1057 q 644 977 668 1014 q 567 928 621 940 l 567 33 q 471 0 536 14 q 333 -14 406 -14 q 171 28 226 -14 q 99 137 115 69 q 82 304 82 204 l 82 954 q 85 967 82 964 q 103 972 88 971 q 146 972 119 972 l 146 303 q 158 167 146 221 q 212 79 171 113 q 333 46 253 46 q 431 56 382 46 q 504 78 479 65 l 504 956 q 510 969 504 967 q 540 972 515 972 q 595 999 581 978 q 610 1063 610 1021 q 632 1075 610 1075 q 655 1070 644 1075 q 665 1057 665 1065 m 239 1072 q 225 1088 233 1072 q 214 1110 217 1104 q 333 1217 267 1163 q 404 1272 400 1272 q 424 1253 415 1272 q 435 1221 433 1235 q 360 1160 426 1211 q 239 1072 294 1110 z "},"Ự":{"ha":649,"x_min":82,"x_max":665,"o":"m 665 1057 q 644 977 668 1014 q 567 928 621 940 l 567 33 q 471 0 536 14 q 333 -14 406 -14 q 171 28 226 -14 q 99 137 115 69 q 82 304 82 204 l 82 954 q 85 967 82 964 q 103 972 88 971 q 146 972 119 972 l 146 303 q 158 167 146 221 q 212 79 171 113 q 333 46 253 46 q 431 56 382 46 q 504 78 479 65 l 504 956 q 510 969 504 967 q 540 972 515 972 q 595 999 581 978 q 610 1063 610 1021 q 632 1075 610 1075 q 655 1070 644 1075 q 665 1057 665 1065 m 324 -211 q 297 -198 306 -211 q 289 -157 289 -185 q 328 -104 292 -104 q 356 -117 347 -104 q 364 -157 364 -129 q 324 -211 361 -211 z "},"Ừ":{"ha":649,"x_min":82,"x_max":665,"o":"m 665 1057 q 644 977 668 1014 q 567 928 621 940 l 567 33 q 471 0 536 14 q 333 -14 406 -14 q 171 28 226 -14 q 99 137 115 69 q 82 304 82 204 l 82 954 q 85 967 82 964 q 103 972 88 971 q 146 972 119 972 l 146 303 q 158 167 146 221 q 212 79 171 113 q 333 46 253 46 q 431 56 382 46 q 504 78 479 65 l 504 956 q 510 969 504 967 q 540 972 515 972 q 595 999 581 978 q 610 1063 610 1021 q 632 1075 610 1075 q 655 1070 644 1075 q 665 1057 665 1065 m 410 1069 q 290 1156 356 1106 q 214 1217 224 1207 q 224 1249 215 1231 q 244 1268 233 1268 q 316 1213 250 1268 q 435 1106 382 1158 q 424 1085 432 1100 q 410 1069 415 1069 z "},"Ử":{"ha":649,"x_min":82,"x_max":665,"o":"m 665 1057 q 644 977 668 1014 q 567 928 621 940 l 567 33 q 471 0 536 14 q 333 -14 406 -14 q 171 28 226 -14 q 99 137 115 69 q 82 304 82 204 l 82 954 q 85 967 82 964 q 103 972 88 971 q 146 972 119 972 l 146 303 q 158 167 146 221 q 212 79 171 113 q 333 46 253 46 q 431 56 382 46 q 504 78 479 65 l 504 956 q 510 969 504 967 q 540 972 515 972 q 595 999 581 978 q 610 1063 610 1021 q 632 1075 610 1075 q 655 1070 644 1075 q 665 1057 665 1065 m 294 1040 q 294 1046 294 1042 q 293 1056 293 1050 q 297 1076 293 1069 q 322 1103 303 1086 q 344 1124 338 1114 q 351 1154 351 1133 q 296 1213 351 1213 q 242 1196 265 1213 l 242 1244 q 258 1257 242 1250 q 294 1264 274 1264 q 380 1237 351 1264 q 408 1160 408 1210 q 394 1110 408 1128 q 365 1083 381 1093 q 346 1071 350 1074 q 338 1055 340 1065 q 336 1042 336 1044 q 311 1039 333 1039 l 294 1040 z "},"Ữ":{"ha":649,"x_min":82,"x_max":665,"o":"m 665 1057 q 644 977 668 1014 q 567 928 621 940 l 567 33 q 471 0 536 14 q 333 -14 406 -14 q 171 28 226 -14 q 99 137 115 69 q 82 304 82 204 l 82 954 q 85 967 82 964 q 103 972 88 971 q 146 972 119 972 l 146 303 q 158 167 146 221 q 212 79 171 113 q 333 46 253 46 q 431 56 382 46 q 504 78 479 65 l 504 956 q 510 969 504 967 q 540 972 515 972 q 595 999 581 978 q 610 1063 610 1021 q 632 1075 610 1075 q 655 1070 644 1075 q 665 1057 665 1065 m 386 1086 q 338 1098 356 1086 q 301 1132 319 1110 q 290 1144 299 1135 q 272 1158 281 1153 q 253 1163 263 1163 q 213 1149 229 1163 q 181 1117 196 1136 q 163 1097 167 1097 q 140 1112 151 1097 q 128 1129 128 1126 q 192 1201 160 1181 q 265 1221 225 1221 q 302 1211 288 1221 q 332 1183 317 1201 q 360 1158 347 1167 q 393 1149 374 1149 q 444 1163 426 1149 q 476 1195 463 1176 q 493 1214 489 1214 q 513 1198 504 1214 q 521 1178 521 1182 q 471 1115 503 1143 q 386 1086 439 1086 z "},"Ű":{"ha":649,"x_min":82,"x_max":567,"o":"m 333 -14 q 171 28 226 -14 q 99 137 115 69 q 82 304 82 204 l 82 954 q 85 967 82 964 q 103 972 88 971 q 146 972 119 972 l 146 303 q 158 167 146 221 q 212 79 171 113 q 333 46 253 46 q 431 56 382 46 q 504 78 479 65 l 504 956 q 508 967 504 964 q 526 972 511 971 q 567 972 542 972 l 567 33 q 471 0 536 14 q 333 -14 406 -14 m 225 1067 q 208 1078 219 1065 q 192 1096 196 1090 q 273 1215 226 1153 q 325 1278 319 1276 q 348 1266 336 1281 q 367 1236 360 1251 q 313 1167 360 1225 q 225 1067 267 1110 m 376 1067 q 360 1078 371 1065 q 344 1096 349 1090 q 425 1213 378 1151 q 476 1278 472 1275 q 499 1266 488 1281 q 518 1236 511 1251 q 467 1169 514 1228 q 376 1067 419 1111 z "},"Ū":{"ha":649,"x_min":82,"x_max":567,"o":"m 333 -14 q 171 28 226 -14 q 99 137 115 69 q 82 304 82 204 l 82 954 q 85 967 82 964 q 103 972 88 971 q 146 972 119 972 l 146 303 q 158 167 146 221 q 212 79 171 113 q 333 46 253 46 q 431 56 382 46 q 504 78 479 65 l 504 956 q 508 967 504 964 q 526 972 511 971 q 567 972 542 972 l 567 33 q 471 0 536 14 q 333 -14 406 -14 m 153 1125 q 150 1156 150 1136 q 176 1186 153 1186 l 494 1186 q 499 1157 499 1175 q 474 1125 496 1125 l 153 1125 z "},"Ų":{"ha":649,"x_min":82,"x_max":567,"o":"m 493 -271 q 417 -243 444 -271 q 390 -160 390 -215 q 412 -79 390 -124 q 464 0 433 -35 q 333 -14 401 -14 q 171 28 226 -14 q 99 137 115 69 q 82 304 82 204 l 82 954 q 85 967 82 964 q 103 972 88 971 q 146 972 119 972 l 146 303 q 158 167 146 221 q 212 79 171 113 q 333 46 253 46 q 430 56 381 46 q 504 76 479 65 l 504 956 q 508 967 504 964 q 526 972 511 971 q 567 972 542 972 l 567 33 q 485 -53 521 3 q 449 -154 449 -110 q 506 -221 449 -221 q 550 -208 528 -221 q 561 -239 561 -228 q 542 -262 561 -254 q 493 -271 524 -271 z "},"Ů":{"ha":649,"x_min":82,"x_max":567,"o":"m 333 -14 q 171 28 226 -14 q 99 137 115 69 q 82 304 82 204 l 82 954 q 85 967 82 964 q 103 972 88 971 q 146 972 119 972 l 146 303 q 158 167 146 221 q 212 79 171 113 q 333 46 253 46 q 431 56 382 46 q 504 78 479 65 l 504 956 q 508 967 504 964 q 526 972 511 971 q 567 972 542 972 l 567 33 q 471 0 536 14 q 333 -14 406 -14 m 321 1053 q 233 1081 264 1053 q 203 1175 203 1110 q 237 1268 203 1238 q 331 1299 271 1299 q 418 1271 390 1299 q 446 1175 446 1243 q 413 1084 446 1115 q 321 1053 381 1053 m 321 1101 q 396 1176 396 1101 q 380 1232 396 1215 q 331 1249 364 1249 q 273 1231 292 1249 q 254 1172 254 1214 q 271 1120 254 1139 q 321 1101 288 1101 z "},"Ũ":{"ha":649,"x_min":82,"x_max":567,"o":"m 333 -14 q 171 28 226 -14 q 99 137 115 69 q 82 304 82 204 l 82 954 q 85 967 82 964 q 103 972 88 971 q 146 972 119 972 l 146 303 q 158 167 146 221 q 212 79 171 113 q 333 46 253 46 q 431 56 382 46 q 504 78 479 65 l 504 956 q 508 967 504 964 q 526 972 511 971 q 567 972 542 972 l 567 33 q 471 0 536 14 q 333 -14 406 -14 m 386 1086 q 338 1098 356 1086 q 301 1132 319 1110 q 290 1144 299 1135 q 272 1158 281 1153 q 253 1163 263 1163 q 213 1149 229 1163 q 181 1117 196 1136 q 163 1097 167 1097 q 140 1112 151 1097 q 128 1129 128 1126 q 192 1201 160 1181 q 265 1221 225 1221 q 302 1211 288 1221 q 332 1183 317 1201 q 360 1158 347 1167 q 393 1149 374 1149 q 444 1163 426 1149 q 476 1195 463 1176 q 493 1214 489 1214 q 513 1198 504 1214 q 521 1178 521 1182 q 471 1115 503 1143 q 386 1086 439 1086 z "},"V":{"ha":585,"x_min":7,"x_max":579,"o":"m 285 -12 q 262 8 272 -12 q 242 68 251 28 q 108 574 179 304 q 10 947 38 843 q 7 963 7 958 q 22 972 7 972 l 69 972 l 239 336 q 292 96 267 228 q 299 58 293 83 q 354 336 331 233 l 508 947 q 515 967 511 961 q 528 972 518 972 l 579 972 l 331 -10 q 285 -12 308 -12 z "},"W":{"ha":886,"x_min":7,"x_max":882,"o":"m 882 972 l 681 -10 q 662 -12 674 -10 q 635 -14 650 -14 q 600 54 614 -14 l 482 557 q 465 649 474 596 q 450 747 457 703 l 442 803 q 404 560 419 649 l 283 -10 q 233 -12 258 -12 q 199 72 214 -12 l 8 947 l 7 958 q 21 972 7 972 l 69 972 l 208 335 q 240 150 225 250 l 251 81 l 256 81 q 294 335 267 201 l 408 896 q 415 915 413 910 q 428 919 418 919 l 474 919 l 603 335 q 624 222 617 274 q 635 156 632 171 q 646 83 638 136 l 650 83 q 657 131 651 96 q 688 335 676 274 l 813 947 q 819 967 815 961 q 832 972 822 972 l 882 972 z "},"Ẃ":{"ha":886,"x_min":7,"x_max":882,"o":"m 882 972 l 681 -10 q 662 -12 674 -10 q 635 -14 650 -14 q 600 54 614 -14 l 482 557 q 465 649 474 596 q 450 747 457 703 l 442 803 q 404 560 419 649 l 283 -10 q 233 -12 258 -12 q 199 72 214 -12 l 8 947 l 7 958 q 21 972 7 972 l 69 972 l 208 335 q 240 150 225 250 l 251 81 l 256 81 q 294 335 267 201 l 408 896 q 415 915 413 910 q 428 919 418 919 l 474 919 l 603 335 q 624 222 617 274 q 635 156 632 171 q 646 83 638 136 l 650 83 q 657 131 651 96 q 688 335 676 274 l 813 947 q 819 967 815 961 q 832 972 822 972 l 882 972 m 361 1072 q 347 1088 356 1072 q 336 1110 339 1104 q 456 1217 389 1163 q 526 1272 522 1272 q 547 1253 538 1272 q 557 1221 556 1235 q 483 1160 549 1211 q 361 1072 417 1110 z "},"Ŵ":{"ha":886,"x_min":7,"x_max":882,"o":"m 882 972 l 681 -10 q 662 -12 674 -10 q 635 -14 650 -14 q 600 54 614 -14 l 482 557 q 465 649 474 596 q 450 747 457 703 l 442 803 q 404 560 419 649 l 283 -10 q 233 -12 258 -12 q 199 72 214 -12 l 8 947 l 7 958 q 21 972 7 972 l 69 972 l 208 335 q 240 150 225 250 l 251 81 l 256 81 q 294 335 267 201 l 408 896 q 415 915 413 910 q 428 919 418 919 l 474 919 l 603 335 q 624 222 617 274 q 635 156 632 171 q 646 83 638 136 l 650 83 q 657 131 651 96 q 688 335 676 274 l 813 947 q 819 967 815 961 q 832 972 822 972 l 882 972 m 558 1074 q 497 1140 542 1092 q 447 1197 451 1189 q 381 1126 431 1178 q 322 1075 332 1075 q 278 1099 297 1075 l 432 1251 q 449 1254 440 1254 q 474 1243 463 1254 q 551 1164 494 1222 q 607 1100 607 1106 q 591 1083 607 1093 q 558 1074 575 1074 z "},"Ẅ":{"ha":886,"x_min":7,"x_max":882,"o":"m 882 972 l 681 -10 q 662 -12 674 -10 q 635 -14 650 -14 q 600 54 614 -14 l 482 557 q 465 649 474 596 q 450 747 457 703 l 442 803 q 404 560 419 649 l 283 -10 q 233 -12 258 -12 q 199 72 214 -12 l 8 947 l 7 958 q 21 972 7 972 l 69 972 l 208 335 q 240 150 225 250 l 251 81 l 256 81 q 294 335 267 201 l 408 896 q 415 915 413 910 q 428 919 418 919 l 474 919 l 603 335 q 624 222 617 274 q 635 156 632 171 q 646 83 638 136 l 650 83 q 657 131 651 96 q 688 335 676 274 l 813 947 q 819 967 815 961 q 832 972 822 972 l 882 972 m 367 1110 q 332 1164 331 1110 q 371 1218 332 1218 q 399 1205 390 1218 q 406 1164 407 1192 q 367 1110 406 1110 m 515 1110 q 488 1123 497 1110 q 479 1164 479 1136 q 519 1218 482 1218 q 547 1205 539 1218 q 554 1164 556 1192 q 515 1110 554 1110 z "},"Ẁ":{"ha":886,"x_min":7,"x_max":882,"o":"m 882 972 l 681 -10 q 662 -12 674 -10 q 635 -14 650 -14 q 600 54 614 -14 l 482 557 q 465 649 474 596 q 450 747 457 703 l 442 803 q 404 560 419 649 l 283 -10 q 233 -12 258 -12 q 199 72 214 -12 l 8 947 l 7 958 q 21 972 7 972 l 69 972 l 208 335 q 240 150 225 250 l 251 81 l 256 81 q 294 335 267 201 l 408 896 q 415 915 413 910 q 428 919 418 919 l 474 919 l 603 335 q 624 222 617 274 q 635 156 632 171 q 646 83 638 136 l 650 83 q 657 131 651 96 q 688 335 676 274 l 813 947 q 819 967 815 961 q 832 972 822 972 l 882 972 m 532 1069 q 412 1156 478 1106 q 336 1217 346 1207 q 347 1249 338 1231 q 367 1268 356 1268 q 438 1213 372 1268 q 557 1106 504 1158 q 546 1085 554 1100 q 532 1069 538 1069 z "},"X":{"ha":593,"x_min":15,"x_max":578,"o":"m 578 8 q 567 0 578 0 l 503 0 l 401 217 q 314 413 340 349 q 296 451 307 425 q 189 218 219 282 l 88 8 q 71 0 82 0 l 15 0 l 257 506 l 53 961 q 52 969 50 967 q 73 972 54 971 q 124 972 92 972 l 200 801 q 303 558 263 660 q 407 801 353 678 l 479 961 q 485 969 482 968 q 506 972 489 971 q 551 972 522 972 l 342 504 l 575 15 l 578 8 z "},"Y":{"ha":500,"x_min":6,"x_max":493,"o":"m 283 17 q 281 4 283 7 q 263 1 278 1 q 221 0 247 0 l 221 399 l 8 961 q 9 969 6 967 q 30 972 13 971 q 78 972 47 972 l 150 771 q 216 580 179 693 q 254 454 253 467 q 290 569 256 464 q 357 771 324 675 l 424 960 q 430 969 426 967 q 450 972 433 971 q 493 972 467 972 l 283 399 l 283 17 z "},"Ý":{"ha":500,"x_min":7,"x_max":493,"o":"m 283 17 q 281 4 283 7 q 263 1 278 1 q 221 0 247 0 l 221 399 l 8 961 q 9 969 6 967 q 30 972 13 971 q 78 972 47 972 l 150 771 q 216 580 179 693 q 254 454 253 467 q 290 569 256 464 q 357 771 324 675 l 424 960 q 430 969 426 967 q 450 972 433 971 q 493 972 467 972 l 283 399 l 283 17 m 168 1072 q 154 1088 163 1072 q 143 1110 146 1104 q 263 1217 196 1163 q 333 1272 329 1272 q 353 1253 344 1272 q 364 1221 363 1235 q 290 1160 356 1211 q 168 1072 224 1110 z "},"Ŷ":{"ha":500,"x_min":7,"x_max":493,"o":"m 283 17 q 281 4 283 7 q 263 1 278 1 q 221 0 247 0 l 221 399 l 8 961 q 9 969 6 967 q 30 972 13 971 q 78 972 47 972 l 150 771 q 216 580 179 693 q 254 454 253 467 q 290 569 256 464 q 357 771 324 675 l 424 960 q 430 969 426 967 q 450 972 433 971 q 493 972 467 972 l 283 399 l 283 17 m 365 1074 q 303 1140 349 1092 q 254 1197 258 1189 q 188 1126 238 1178 q 129 1075 139 1075 q 85 1099 104 1075 l 239 1251 q 256 1254 247 1254 q 281 1243 269 1254 q 358 1164 301 1222 q 414 1100 414 1106 q 398 1083 414 1093 q 365 1074 382 1074 z "},"Ÿ":{"ha":500,"x_min":7,"x_max":493,"o":"m 283 17 q 281 4 283 7 q 263 1 278 1 q 221 0 247 0 l 221 399 l 8 961 q 9 969 6 967 q 30 972 13 971 q 78 972 47 972 l 150 771 q 216 580 179 693 q 254 454 253 467 q 290 569 256 464 q 357 771 324 675 l 424 960 q 430 969 426 967 q 450 972 433 971 q 493 972 467 972 l 283 399 l 283 17 m 174 1110 q 139 1164 138 1110 q 178 1218 139 1218 q 206 1205 197 1218 q 213 1164 214 1192 q 174 1110 213 1110 m 322 1110 q 295 1123 304 1110 q 286 1164 286 1136 q 326 1218 289 1218 q 354 1205 346 1218 q 361 1164 363 1192 q 322 1110 361 1110 z "},"Ỵ":{"ha":500,"x_min":7,"x_max":493,"o":"m 283 17 q 281 4 283 7 q 263 1 278 1 q 221 0 247 0 l 221 399 l 8 961 q 9 969 6 967 q 30 972 13 971 q 78 972 47 972 l 150 771 q 216 580 179 693 q 254 454 253 467 q 290 569 256 464 q 357 771 324 675 l 424 960 q 430 969 426 967 q 450 972 433 971 q 493 972 467 972 l 283 399 l 283 17 m 249 -211 q 222 -198 231 -211 q 214 -157 214 -185 q 253 -104 217 -104 q 281 -117 272 -104 q 289 -157 289 -129 q 249 -211 286 -211 z "},"Ỳ":{"ha":500,"x_min":7,"x_max":493,"o":"m 283 17 q 281 4 283 7 q 263 1 278 1 q 221 0 247 0 l 221 399 l 8 961 q 9 969 6 967 q 30 972 13 971 q 78 972 47 972 l 150 771 q 216 580 179 693 q 254 454 253 467 q 290 569 256 464 q 357 771 324 675 l 424 960 q 430 969 426 967 q 450 972 433 971 q 493 972 467 972 l 283 399 l 283 17 m 339 1069 q 219 1156 285 1106 q 143 1217 153 1207 q 153 1249 144 1231 q 174 1268 163 1268 q 245 1213 179 1268 q 364 1106 311 1158 q 353 1085 361 1100 q 339 1069 344 1069 z "},"Ỷ":{"ha":500,"x_min":7,"x_max":493,"o":"m 283 17 q 281 4 283 7 q 263 1 278 1 q 221 0 247 0 l 221 399 l 8 961 q 9 969 6 967 q 30 972 13 971 q 78 972 47 972 l 150 771 q 216 580 179 693 q 254 454 253 467 q 290 569 256 464 q 357 771 324 675 l 424 960 q 430 969 426 967 q 450 972 433 971 q 493 972 467 972 l 283 399 l 283 17 m 219 1040 q 219 1046 219 1042 q 218 1056 218 1050 q 222 1076 218 1069 q 247 1103 228 1086 q 269 1124 263 1114 q 276 1154 276 1133 q 221 1213 276 1213 q 167 1196 190 1213 l 167 1244 q 183 1257 167 1250 q 219 1264 199 1264 q 305 1237 276 1264 q 333 1160 333 1210 q 319 1110 333 1128 q 290 1083 306 1093 q 271 1071 275 1074 q 263 1055 265 1065 q 261 1042 261 1044 q 236 1039 258 1039 l 219 1040 z "},"Ỹ":{"ha":500,"x_min":7,"x_max":493,"o":"m 283 17 q 281 4 283 7 q 263 1 278 1 q 221 0 247 0 l 221 399 l 8 961 q 9 969 6 967 q 30 972 13 971 q 78 972 47 972 l 150 771 q 216 580 179 693 q 254 454 253 467 q 290 569 256 464 q 357 771 324 675 l 424 960 q 430 969 426 967 q 450 972 433 971 q 493 972 467 972 l 283 399 l 283 17 m 311 1086 q 263 1098 281 1086 q 226 1132 244 1110 q 215 1144 224 1135 q 197 1158 206 1153 q 178 1163 188 1163 q 138 1149 154 1163 q 106 1117 121 1136 q 88 1097 92 1097 q 65 1112 76 1097 q 53 1129 53 1126 q 117 1201 85 1181 q 190 1221 150 1221 q 227 1211 213 1221 q 257 1183 242 1201 q 285 1158 272 1167 q 318 1149 299 1149 q 369 1163 351 1149 q 401 1195 388 1176 q 418 1214 414 1214 q 438 1198 429 1214 q 446 1178 446 1182 q 396 1115 428 1143 q 311 1086 364 1086 z "},"Z":{"ha":550,"x_min":38,"x_max":507,"o":"m 50 0 q 38 26 38 7 q 44 58 38 40 l 432 914 l 125 914 q 68 913 74 914 l 68 954 q 86 972 68 972 l 500 972 q 507 949 507 961 q 500 917 507 938 l 108 58 l 438 58 q 507 64 490 58 l 507 17 q 490 0 507 0 l 50 0 z "},"Ź":{"ha":550,"x_min":38,"x_max":507,"o":"m 50 0 q 38 26 38 7 q 44 58 38 40 l 432 914 l 125 914 q 68 913 74 914 l 68 954 q 86 972 68 972 l 500 972 q 507 949 507 961 q 500 917 507 938 l 108 58 l 438 58 q 507 64 490 58 l 507 17 q 490 0 507 0 l 50 0 m 193 1072 q 179 1088 188 1072 q 168 1110 171 1104 q 288 1217 221 1163 q 358 1272 354 1272 q 378 1253 369 1272 q 389 1221 388 1235 q 315 1160 381 1211 q 193 1072 249 1110 z "},"Ž":{"ha":550,"x_min":38,"x_max":507,"o":"m 50 0 q 38 26 38 7 q 44 58 38 40 l 432 914 l 125 914 q 68 913 74 914 l 68 954 q 86 972 68 972 l 500 972 q 507 949 507 961 q 500 917 507 938 l 108 58 l 438 58 q 507 64 490 58 l 507 17 q 490 0 507 0 l 50 0 m 285 1076 q 197 1149 271 1076 q 114 1235 124 1221 q 127 1259 117 1244 q 147 1274 138 1274 q 211 1216 157 1274 q 285 1138 265 1158 q 359 1224 321 1182 q 408 1278 397 1265 q 435 1246 435 1263 q 401 1195 435 1238 q 330 1115 367 1153 q 285 1076 293 1076 z "},"Ż":{"ha":550,"x_min":38,"x_max":507,"o":"m 50 0 q 38 26 38 7 q 44 58 38 40 l 432 914 l 125 914 q 68 913 74 914 l 68 954 q 86 972 68 972 l 500 972 q 507 949 507 961 q 500 917 507 938 l 108 58 l 438 58 q 507 64 490 58 l 507 17 q 490 0 507 0 l 50 0 m 272 1108 q 244 1122 253 1108 q 236 1164 236 1135 q 276 1219 239 1219 q 306 1206 297 1219 q 314 1164 314 1193 q 272 1108 311 1108 z "},"a":{"ha":517,"x_min":54,"x_max":449,"o":"m 254 -14 q 108 24 163 -17 q 54 192 54 64 q 113 371 54 325 q 269 417 171 417 q 386 401 344 417 l 386 528 q 356 622 386 597 q 268 647 326 647 q 148 637 203 647 q 63 613 93 626 q 54 649 54 629 q 64 674 54 668 q 149 698 88 688 q 282 708 211 708 q 408 670 367 708 q 449 540 449 632 l 449 454 q 440 38 449 200 q 254 -14 361 -14 m 265 42 q 333 53 300 42 q 379 76 365 64 q 386 353 386 154 q 288 367 346 367 q 199 355 235 367 q 141 306 164 343 q 118 193 118 268 q 138 93 118 126 q 188 51 157 60 q 265 42 218 42 z "},"á":{"ha":517,"x_min":54,"x_max":449,"o":"m 254 -14 q 108 24 163 -17 q 54 192 54 64 q 113 371 54 325 q 269 417 171 417 q 386 401 344 417 l 386 528 q 356 622 386 597 q 268 647 326 647 q 148 637 203 647 q 63 613 93 626 q 54 649 54 629 q 64 674 54 668 q 149 698 88 688 q 282 708 211 708 q 408 670 367 708 q 449 540 449 632 l 449 454 q 440 38 449 200 q 254 -14 361 -14 m 265 42 q 333 53 300 42 q 379 76 365 64 q 386 353 386 154 q 288 367 346 367 q 199 355 235 367 q 141 306 164 343 q 118 193 118 268 q 138 93 118 126 q 188 51 157 60 q 265 42 218 42 m 169 794 q 156 810 164 794 q 144 832 147 826 q 264 940 197 885 q 335 994 331 994 q 355 976 346 994 q 365 943 364 957 q 291 883 357 933 q 169 794 225 832 z "},"ă":{"ha":517,"x_min":54,"x_max":449,"o":"m 254 -14 q 108 24 163 -17 q 54 192 54 64 q 113 371 54 325 q 269 417 171 417 q 386 401 344 417 l 386 528 q 356 622 386 597 q 268 647 326 647 q 148 637 203 647 q 63 613 93 626 q 54 649 54 629 q 64 674 54 668 q 149 698 88 688 q 282 708 211 708 q 408 670 367 708 q 449 540 449 632 l 449 454 q 440 38 449 200 q 254 -14 361 -14 m 265 42 q 333 53 300 42 q 379 76 365 64 q 386 353 386 154 q 288 367 346 367 q 199 355 235 367 q 141 306 164 343 q 118 193 118 268 q 138 93 118 126 q 188 51 157 60 q 265 42 218 42 m 249 799 q 164 827 201 799 q 106 892 126 856 q 85 951 85 929 q 94 973 85 965 q 124 985 104 981 q 250 858 168 858 q 322 888 297 858 q 368 969 347 918 q 385 981 374 981 q 406 972 396 981 q 418 950 417 963 q 358 843 399 888 q 249 799 317 799 z "},"ắ":{"ha":517,"x_min":54,"x_max":449,"o":"m 250 996 q 237 1011 244 996 q 226 1032 229 1026 q 341 1135 278 1083 q 408 1188 404 1188 q 428 1170 419 1188 q 438 1139 436 1153 q 369 1082 432 1131 q 250 996 306 1033 m 249 794 q 168 822 204 794 q 112 885 132 849 q 92 942 92 921 q 101 962 92 954 q 128 974 110 969 q 174 888 146 924 q 250 851 203 851 q 319 881 296 851 q 363 958 343 910 q 379 969 368 969 q 400 960 390 969 q 411 940 410 951 q 249 794 363 794 m 254 -14 q 108 24 163 -17 q 54 192 54 64 q 113 371 54 325 q 269 417 171 417 q 386 401 344 417 l 386 528 q 356 622 386 597 q 268 647 326 647 q 148 637 203 647 q 63 613 93 626 q 54 649 54 629 q 64 674 54 668 q 149 698 88 688 q 282 708 211 708 q 408 670 367 708 q 449 540 449 632 l 449 454 q 440 38 449 200 q 254 -14 361 -14 m 265 42 q 333 53 300 42 q 379 76 365 64 q 386 353 386 154 q 288 367 346 367 q 199 355 235 367 q 141 306 164 343 q 118 193 118 268 q 138 93 118 126 q 188 51 157 60 q 265 42 218 42 z "},"ặ":{"ha":517,"x_min":54,"x_max":449,"o":"m 254 -14 q 108 24 163 -17 q 54 192 54 64 q 113 371 54 325 q 269 417 171 417 q 386 401 344 417 l 386 528 q 356 622 386 597 q 268 647 326 647 q 148 637 203 647 q 63 613 93 626 q 54 649 54 629 q 64 674 54 668 q 149 698 88 688 q 282 708 211 708 q 408 670 367 708 q 449 540 449 632 l 449 454 q 440 38 449 200 q 254 -14 361 -14 m 265 42 q 333 53 300 42 q 379 76 365 64 q 386 353 386 154 q 288 367 346 367 q 199 355 235 367 q 141 306 164 343 q 118 193 118 268 q 138 93 118 126 q 188 51 157 60 q 265 42 218 42 m 258 -211 q 232 -198 240 -211 q 224 -157 224 -185 q 263 -104 226 -104 q 290 -117 282 -104 q 299 -157 299 -129 q 258 -211 296 -211 m 249 799 q 164 827 201 799 q 106 892 126 856 q 85 951 85 929 q 94 973 85 965 q 124 985 104 981 q 250 858 168 858 q 322 888 297 858 q 368 969 347 918 q 385 981 374 981 q 406 972 396 981 q 418 950 417 963 q 358 843 399 888 q 249 799 317 799 z "},"ằ":{"ha":517,"x_min":54,"x_max":449,"o":"m 263 990 q 147 1075 210 1026 q 75 1132 83 1124 q 85 1163 76 1144 q 104 1182 94 1182 q 173 1129 110 1182 q 286 1025 236 1076 q 276 1005 283 1019 q 263 990 268 990 m 249 794 q 168 822 204 794 q 112 885 132 849 q 92 942 92 921 q 101 962 92 954 q 128 974 110 969 q 174 888 146 924 q 250 851 203 851 q 319 881 296 851 q 363 958 343 910 q 379 969 368 969 q 400 960 390 969 q 411 940 410 951 q 249 794 363 794 m 254 -14 q 108 24 163 -17 q 54 192 54 64 q 113 371 54 325 q 269 417 171 417 q 386 401 344 417 l 386 528 q 356 622 386 597 q 268 647 326 647 q 148 637 203 647 q 63 613 93 626 q 54 649 54 629 q 64 674 54 668 q 149 698 88 688 q 282 708 211 708 q 408 670 367 708 q 449 540 449 632 l 449 454 q 440 38 449 200 q 254 -14 361 -14 m 265 42 q 333 53 300 42 q 379 76 365 64 q 386 353 386 154 q 288 367 346 367 q 199 355 235 367 q 141 306 164 343 q 118 193 118 268 q 138 93 118 126 q 188 51 157 60 q 265 42 218 42 z "},"ẳ":{"ha":517,"x_min":54,"x_max":449,"o":"m 226 981 q 226 985 226 982 q 225 994 225 989 q 229 1015 225 1006 q 254 1040 238 1028 q 275 1060 268 1050 q 282 1090 282 1069 q 228 1146 282 1146 q 176 1131 199 1146 l 176 1176 q 192 1189 176 1182 q 226 1196 207 1196 q 308 1170 281 1196 q 336 1096 336 1144 q 323 1049 336 1065 q 296 1023 310 1032 q 276 1010 282 1014 q 269 995 271 1006 q 267 982 267 985 q 243 979 264 979 l 226 981 m 249 794 q 168 822 204 794 q 112 885 132 849 q 92 942 92 921 q 101 962 92 954 q 128 974 110 969 q 174 888 146 924 q 250 851 203 851 q 319 881 296 851 q 363 958 343 910 q 379 969 368 969 q 400 960 390 969 q 411 940 410 951 q 249 794 363 794 m 254 -14 q 108 24 163 -17 q 54 192 54 64 q 113 371 54 325 q 269 417 171 417 q 386 401 344 417 l 386 528 q 356 622 386 597 q 268 647 326 647 q 148 637 203 647 q 63 613 93 626 q 54 649 54 629 q 64 674 54 668 q 149 698 88 688 q 282 708 211 708 q 408 670 367 708 q 449 540 449 632 l 449 454 q 440 38 449 200 q 254 -14 361 -14 m 265 42 q 333 53 300 42 q 379 76 365 64 q 386 353 386 154 q 288 367 346 367 q 199 355 235 367 q 141 306 164 343 q 118 193 118 268 q 138 93 118 126 q 188 51 157 60 q 265 42 218 42 z "},"ẵ":{"ha":517,"x_min":54,"x_max":449,"o":"m 310 1019 q 264 1031 281 1019 q 228 1064 247 1042 q 204 1086 214 1079 q 182 1093 194 1093 q 142 1080 158 1093 q 113 1049 126 1067 q 96 1031 100 1031 q 74 1044 85 1031 q 63 1061 63 1058 q 123 1129 92 1110 q 193 1149 154 1149 q 228 1140 214 1149 q 257 1113 242 1131 q 285 1088 272 1096 q 317 1079 297 1079 q 365 1092 347 1079 q 394 1124 382 1106 q 413 1142 407 1142 q 431 1126 422 1142 q 439 1107 439 1111 q 310 1019 393 1019 m 249 794 q 168 822 204 794 q 112 885 132 849 q 92 942 92 921 q 101 962 92 954 q 128 974 110 969 q 174 888 146 924 q 250 851 203 851 q 319 881 296 851 q 363 958 343 910 q 379 969 368 969 q 400 960 390 969 q 411 940 410 951 q 249 794 363 794 m 254 -14 q 108 24 163 -17 q 54 192 54 64 q 113 371 54 325 q 269 417 171 417 q 386 401 344 417 l 386 528 q 356 622 386 597 q 268 647 326 647 q 148 637 203 647 q 63 613 93 626 q 54 649 54 629 q 64 674 54 668 q 149 698 88 688 q 282 708 211 708 q 408 670 367 708 q 449 540 449 632 l 449 454 q 440 38 449 200 q 254 -14 361 -14 m 265 42 q 333 53 300 42 q 379 76 365 64 q 386 353 386 154 q 288 367 346 367 q 199 355 235 367 q 141 306 164 343 q 118 193 118 268 q 138 93 118 126 q 188 51 157 60 q 265 42 218 42 z "},"â":{"ha":517,"x_min":54,"x_max":449,"o":"m 254 -14 q 108 24 163 -17 q 54 192 54 64 q 113 371 54 325 q 269 417 171 417 q 386 401 344 417 l 386 528 q 356 622 386 597 q 268 647 326 647 q 148 637 203 647 q 63 613 93 626 q 54 649 54 629 q 64 674 54 668 q 149 698 88 688 q 282 708 211 708 q 408 670 367 708 q 449 540 449 632 l 449 454 q 440 38 449 200 q 254 -14 361 -14 m 265 42 q 333 53 300 42 q 379 76 365 64 q 386 353 386 154 q 288 367 346 367 q 199 355 235 367 q 141 306 164 343 q 118 193 118 268 q 138 93 118 126 q 188 51 157 60 q 265 42 218 42 m 367 796 q 305 863 350 814 q 256 919 260 911 q 190 849 239 900 q 131 797 140 797 q 86 821 106 797 l 240 974 q 257 976 249 976 q 282 965 271 976 q 359 886 303 944 q 415 822 415 828 q 399 806 415 815 q 367 796 383 796 z "},"ấ":{"ha":517,"x_min":54,"x_max":606,"o":"m 418 907 q 405 922 413 907 q 394 943 397 938 q 509 1047 446 994 q 576 1099 572 1099 q 596 1081 588 1099 q 606 1050 604 1064 q 537 993 600 1042 q 418 907 474 944 m 361 792 q 301 856 344 808 q 256 911 258 903 q 192 843 239 893 q 135 793 144 793 q 93 817 107 793 l 240 963 q 257 965 249 965 q 281 954 269 965 q 354 878 300 933 q 408 818 408 822 q 393 801 408 811 q 361 792 378 792 m 254 -14 q 108 24 163 -17 q 54 192 54 64 q 113 371 54 325 q 269 417 171 417 q 386 401 344 417 l 386 528 q 356 622 386 597 q 268 647 326 647 q 148 637 203 647 q 63 613 93 626 q 54 649 54 629 q 64 674 54 668 q 149 698 88 688 q 282 708 211 708 q 408 670 367 708 q 449 540 449 632 l 449 454 q 440 38 449 200 q 254 -14 361 -14 m 265 42 q 333 53 300 42 q 379 76 365 64 q 386 353 386 154 q 288 367 346 367 q 199 355 235 367 q 141 306 164 343 q 118 193 118 268 q 138 93 118 126 q 188 51 157 60 q 265 42 218 42 z "},"ậ":{"ha":517,"x_min":54,"x_max":449,"o":"m 254 -14 q 108 24 163 -17 q 54 192 54 64 q 113 371 54 325 q 269 417 171 417 q 386 401 344 417 l 386 528 q 356 622 386 597 q 268 647 326 647 q 148 637 203 647 q 63 613 93 626 q 54 649 54 629 q 64 674 54 668 q 149 698 88 688 q 282 708 211 708 q 408 670 367 708 q 449 540 449 632 l 449 454 q 440 38 449 200 q 254 -14 361 -14 m 265 42 q 333 53 300 42 q 379 76 365 64 q 386 353 386 154 q 288 367 346 367 q 199 355 235 367 q 141 306 164 343 q 118 193 118 268 q 138 93 118 126 q 188 51 157 60 q 265 42 218 42 m 258 -211 q 232 -198 240 -211 q 224 -157 224 -185 q 263 -104 226 -104 q 290 -117 282 -104 q 299 -157 299 -129 q 258 -211 296 -211 m 367 796 q 305 863 350 814 q 256 919 260 911 q 190 849 239 900 q 131 797 140 797 q 86 821 106 797 l 240 974 q 257 976 249 976 q 282 965 271 976 q 359 886 303 944 q 415 822 415 828 q 399 806 415 815 q 367 796 383 796 z "},"ầ":{"ha":517,"x_min":54,"x_max":449,"o":"m 379 958 q 263 1043 326 994 q 192 1100 200 1092 q 202 1131 193 1113 q 221 1150 211 1150 q 290 1097 226 1150 q 403 993 353 1044 q 392 973 400 988 q 379 958 385 958 m 361 792 q 301 856 344 808 q 256 911 258 903 q 192 843 239 893 q 135 793 144 793 q 93 817 107 793 l 240 963 q 257 965 249 965 q 281 954 269 965 q 354 878 300 933 q 408 818 408 822 q 393 801 408 811 q 361 792 378 792 m 254 -14 q 108 24 163 -17 q 54 192 54 64 q 113 371 54 325 q 269 417 171 417 q 386 401 344 417 l 386 528 q 356 622 386 597 q 268 647 326 647 q 148 637 203 647 q 63 613 93 626 q 54 649 54 629 q 64 674 54 668 q 149 698 88 688 q 282 708 211 708 q 408 670 367 708 q 449 540 449 632 l 449 454 q 440 38 449 200 q 254 -14 361 -14 m 265 42 q 333 53 300 42 q 379 76 365 64 q 386 353 386 154 q 288 367 346 367 q 199 355 235 367 q 141 306 164 343 q 118 193 118 268 q 138 93 118 126 q 188 51 157 60 q 265 42 218 42 z "},"ẩ":{"ha":517,"x_min":54,"x_max":506,"o":"m 396 922 q 395 927 396 924 q 394 936 394 931 q 399 957 394 947 q 424 982 407 969 q 444 1001 438 992 q 451 1032 451 1011 q 397 1088 451 1088 q 346 1072 368 1088 l 346 1118 q 361 1131 346 1124 q 396 1138 376 1138 q 478 1112 450 1138 q 506 1038 506 1086 q 492 990 506 1007 q 465 965 479 974 q 446 951 451 956 q 438 937 440 947 q 436 924 436 926 q 413 921 433 921 l 396 922 m 361 792 q 301 856 344 808 q 256 911 258 903 q 192 843 239 893 q 135 793 144 793 q 93 817 107 793 l 240 963 q 257 965 249 965 q 281 954 269 965 q 354 878 300 933 q 408 818 408 822 q 393 801 408 811 q 361 792 378 792 m 254 -14 q 108 24 163 -17 q 54 192 54 64 q 113 371 54 325 q 269 417 171 417 q 386 401 344 417 l 386 528 q 356 622 386 597 q 268 647 326 647 q 148 637 203 647 q 63 613 93 626 q 54 649 54 629 q 64 674 54 668 q 149 698 88 688 q 282 708 211 708 q 408 670 367 708 q 449 540 449 632 l 449 454 q 440 38 449 200 q 254 -14 361 -14 m 265 42 q 333 53 300 42 q 379 76 365 64 q 386 353 386 154 q 288 367 346 367 q 199 355 235 367 q 141 306 164 343 q 118 193 118 268 q 138 93 118 126 q 188 51 157 60 q 265 42 218 42 z "},"ẫ":{"ha":517,"x_min":54,"x_max":464,"o":"m 335 994 q 289 1006 306 994 q 253 1039 272 1017 q 229 1061 239 1054 q 207 1068 219 1068 q 167 1055 183 1068 q 138 1024 151 1042 q 121 1006 125 1006 q 99 1019 110 1006 q 88 1036 88 1033 q 148 1104 117 1085 q 218 1124 179 1124 q 253 1115 239 1124 q 282 1088 267 1106 q 310 1063 297 1071 q 342 1054 322 1054 q 390 1067 372 1054 q 419 1099 407 1081 q 438 1117 432 1117 q 456 1101 447 1117 q 464 1082 464 1086 q 335 994 418 994 m 361 792 q 301 856 344 808 q 256 911 258 903 q 192 843 239 893 q 135 793 144 793 q 93 817 107 793 l 240 963 q 257 965 249 965 q 281 954 269 965 q 354 878 300 933 q 408 818 408 822 q 393 801 408 811 q 361 792 378 792 m 254 -14 q 108 24 163 -17 q 54 192 54 64 q 113 371 54 325 q 269 417 171 417 q 386 401 344 417 l 386 528 q 356 622 386 597 q 268 647 326 647 q 148 637 203 647 q 63 613 93 626 q 54 649 54 629 q 64 674 54 668 q 149 698 88 688 q 282 708 211 708 q 408 670 367 708 q 449 540 449 632 l 449 454 q 440 38 449 200 q 254 -14 361 -14 m 265 42 q 333 53 300 42 q 379 76 365 64 q 386 353 386 154 q 288 367 346 367 q 199 355 235 367 q 141 306 164 343 q 118 193 118 268 q 138 93 118 126 q 188 51 157 60 q 265 42 218 42 z "},"ä":{"ha":517,"x_min":54,"x_max":449,"o":"m 254 -14 q 108 24 163 -17 q 54 192 54 64 q 113 371 54 325 q 269 417 171 417 q 386 401 344 417 l 386 528 q 356 622 386 597 q 268 647 326 647 q 148 637 203 647 q 63 613 93 626 q 54 649 54 629 q 64 674 54 668 q 149 698 88 688 q 282 708 211 708 q 408 670 367 708 q 449 540 449 632 l 449 454 q 440 38 449 200 q 254 -14 361 -14 m 265 42 q 333 53 300 42 q 379 76 365 64 q 386 353 386 154 q 288 367 346 367 q 199 355 235 367 q 141 306 164 343 q 118 193 118 268 q 138 93 118 126 q 188 51 157 60 q 265 42 218 42 m 175 832 q 140 886 139 832 q 179 940 140 940 q 207 927 199 940 q 214 886 215 914 q 175 832 214 832 m 324 832 q 297 845 306 832 q 288 886 288 858 q 328 940 290 940 q 356 927 347 940 q 363 886 364 914 q 324 832 363 832 z "},"ạ":{"ha":517,"x_min":54,"x_max":449,"o":"m 254 -14 q 108 24 163 -17 q 54 192 54 64 q 113 371 54 325 q 269 417 171 417 q 386 401 344 417 l 386 528 q 356 622 386 597 q 268 647 326 647 q 148 637 203 647 q 63 613 93 626 q 54 649 54 629 q 64 674 54 668 q 149 698 88 688 q 282 708 211 708 q 408 670 367 708 q 449 540 449 632 l 449 454 q 440 38 449 200 q 254 -14 361 -14 m 265 42 q 333 53 300 42 q 379 76 365 64 q 386 353 386 154 q 288 367 346 367 q 199 355 235 367 q 141 306 164 343 q 118 193 118 268 q 138 93 118 126 q 188 51 157 60 q 265 42 218 42 m 258 -211 q 232 -198 240 -211 q 224 -157 224 -185 q 263 -104 226 -104 q 290 -117 282 -104 q 299 -157 299 -129 q 258 -211 296 -211 z "},"à":{"ha":517,"x_min":54,"x_max":449,"o":"m 254 -14 q 108 24 163 -17 q 54 192 54 64 q 113 371 54 325 q 269 417 171 417 q 386 401 344 417 l 386 528 q 356 622 386 597 q 268 647 326 647 q 148 637 203 647 q 63 613 93 626 q 54 649 54 629 q 64 674 54 668 q 149 698 88 688 q 282 708 211 708 q 408 670 367 708 q 449 540 449 632 l 449 454 q 440 38 449 200 q 254 -14 361 -14 m 265 42 q 333 53 300 42 q 379 76 365 64 q 386 353 386 154 q 288 367 346 367 q 199 355 235 367 q 141 306 164 343 q 118 193 118 268 q 138 93 118 126 q 188 51 157 60 q 265 42 218 42 m 340 792 q 220 878 286 828 q 144 939 154 929 q 155 972 146 953 q 175 990 164 990 q 247 935 181 990 q 365 828 313 881 q 354 807 363 822 q 340 792 346 792 z "},"ả":{"ha":517,"x_min":54,"x_max":449,"o":"m 254 -14 q 108 24 163 -17 q 54 192 54 64 q 113 371 54 325 q 269 417 171 417 q 386 401 344 417 l 386 528 q 356 622 386 597 q 268 647 326 647 q 148 637 203 647 q 63 613 93 626 q 54 649 54 629 q 64 674 54 668 q 149 698 88 688 q 282 708 211 708 q 408 670 367 708 q 449 540 449 632 l 449 454 q 440 38 449 200 q 254 -14 361 -14 m 265 42 q 333 53 300 42 q 379 76 365 64 q 386 353 386 154 q 288 367 346 367 q 199 355 235 367 q 141 306 164 343 q 118 193 118 268 q 138 93 118 126 q 188 51 157 60 q 265 42 218 42 m 221 763 q 220 768 221 764 q 219 778 219 772 q 224 799 219 792 q 249 825 229 808 q 271 846 264 836 q 278 876 278 856 q 222 935 278 935 q 168 918 192 935 l 168 967 q 184 979 168 972 q 221 986 200 986 q 306 959 278 986 q 335 882 335 932 q 321 833 335 850 q 292 806 307 815 q 272 793 276 796 q 265 777 267 788 q 263 764 263 767 q 238 761 260 761 l 221 763 z "},"ā":{"ha":517,"x_min":54,"x_max":449,"o":"m 254 -14 q 108 24 163 -17 q 54 192 54 64 q 113 371 54 325 q 269 417 171 417 q 386 401 344 417 l 386 528 q 356 622 386 597 q 268 647 326 647 q 148 637 203 647 q 63 613 93 626 q 54 649 54 629 q 64 674 54 668 q 149 698 88 688 q 282 708 211 708 q 408 670 367 708 q 449 540 449 632 l 449 454 q 440 38 449 200 q 254 -14 361 -14 m 265 42 q 333 53 300 42 q 379 76 365 64 q 386 353 386 154 q 288 367 346 367 q 199 355 235 367 q 141 306 164 343 q 118 193 118 268 q 138 93 118 126 q 188 51 157 60 q 265 42 218 42 m 79 847 q 76 878 76 858 q 103 908 79 908 l 421 908 q 425 879 425 897 q 400 847 422 847 l 79 847 z "},"ą":{"ha":517,"x_min":54,"x_max":449,"o":"m 375 -271 q 299 -240 326 -271 q 272 -150 272 -210 q 328 -7 272 -75 q 239 -14 297 -14 q 103 28 153 -14 q 54 192 54 69 q 113 371 54 325 q 269 417 171 417 q 386 401 344 417 l 386 528 q 356 622 386 597 q 268 647 326 647 q 148 637 203 647 q 63 613 93 626 q 54 649 54 629 q 64 674 54 668 q 149 698 88 688 q 282 708 211 708 q 408 670 367 708 q 449 540 449 632 l 449 454 q 440 38 449 200 q 360 -48 389 0 q 331 -144 331 -96 q 344 -201 331 -183 q 388 -219 357 -219 q 432 -208 411 -219 q 440 -229 436 -214 q 440 -244 442 -239 q 375 -271 436 -271 m 265 42 q 333 53 300 42 q 379 76 365 64 q 386 353 386 154 q 288 367 346 367 q 199 355 235 367 q 141 306 164 343 q 118 193 118 268 q 138 93 118 126 q 188 51 157 60 q 265 42 218 42 z "},"å":{"ha":517,"x_min":54,"x_max":449,"o":"m 254 -14 q 108 24 163 -17 q 54 192 54 64 q 113 371 54 325 q 269 417 171 417 q 386 401 344 417 l 386 528 q 356 622 386 597 q 268 647 326 647 q 148 637 203 647 q 63 613 93 626 q 54 649 54 629 q 64 674 54 668 q 149 698 88 688 q 282 708 211 708 q 408 670 367 708 q 449 540 449 632 l 449 454 q 440 38 449 200 q 254 -14 361 -14 m 265 42 q 333 53 300 42 q 379 76 365 64 q 386 353 386 154 q 288 367 346 367 q 199 355 235 367 q 141 306 164 343 q 118 193 118 268 q 138 93 118 126 q 188 51 157 60 q 265 42 218 42 m 247 775 q 160 803 190 775 q 129 897 129 832 q 163 990 129 960 q 257 1021 197 1021 q 344 993 317 1021 q 372 897 372 965 q 340 806 372 838 q 247 775 307 775 m 247 824 q 322 899 322 824 q 306 954 322 938 q 257 971 290 971 q 199 953 218 971 q 181 894 181 936 q 197 842 181 861 q 247 824 214 824 z "},"ã":{"ha":517,"x_min":54,"x_max":449,"o":"m 254 -14 q 108 24 163 -17 q 54 192 54 64 q 113 371 54 325 q 269 417 171 417 q 386 401 344 417 l 386 528 q 356 622 386 597 q 268 647 326 647 q 148 637 203 647 q 63 613 93 626 q 54 649 54 629 q 64 674 54 668 q 149 698 88 688 q 282 708 211 708 q 408 670 367 708 q 449 540 449 632 l 449 454 q 440 38 449 200 q 254 -14 361 -14 m 265 42 q 333 53 300 42 q 379 76 365 64 q 386 353 386 154 q 288 367 346 367 q 199 355 235 367 q 141 306 164 343 q 118 193 118 268 q 138 93 118 126 q 188 51 157 60 q 265 42 218 42 m 313 808 q 264 820 282 808 q 228 854 246 832 q 216 866 225 857 q 198 880 207 875 q 179 885 189 885 q 139 872 156 885 q 108 839 122 858 q 89 819 93 819 q 66 834 78 819 q 54 851 54 849 q 119 923 86 903 q 192 943 151 943 q 228 933 214 943 q 258 906 243 924 q 287 880 274 889 q 319 871 300 871 q 371 885 353 871 q 402 917 389 899 q 419 936 415 936 q 439 920 431 936 q 447 900 447 904 q 397 837 429 865 q 313 808 365 808 z "},"æ":{"ha":882,"x_min":54,"x_max":814,"o":"m 625 50 q 800 97 732 50 q 807 40 807 81 q 780 19 807 32 q 710 -2 753 7 q 621 -11 668 -11 q 513 4 556 -11 q 443 64 469 19 l 443 31 q 254 -11 376 -11 q 152 0 194 -12 q 82 58 110 13 q 54 194 54 103 q 113 376 54 329 q 268 424 171 424 q 386 408 344 424 l 386 531 q 354 625 386 600 q 260 650 322 650 q 149 639 200 650 q 67 610 99 628 q 60 647 60 625 q 63 662 60 654 q 72 672 67 669 q 151 698 97 688 q 282 708 204 708 q 392 681 353 708 q 440 589 431 653 q 521 685 471 661 q 639 708 571 708 q 814 494 814 708 q 803 328 814 388 q 676 318 744 318 q 454 340 561 318 l 454 307 q 475 139 454 194 q 531 67 496 83 q 625 50 567 50 m 636 651 q 518 601 567 651 q 457 396 469 551 q 669 371 582 371 q 747 378 708 371 q 753 479 753 424 q 726 610 751 569 q 636 651 701 651 m 386 360 q 288 374 338 374 q 163 338 207 374 q 118 192 118 301 q 138 93 118 126 q 187 51 157 60 q 264 42 217 42 q 338 51 301 42 q 386 74 374 60 l 386 360 z "},"b":{"ha":568,"x_min":86,"x_max":517,"o":"m 246 -14 q 86 28 138 -14 l 86 989 q 97 1016 86 1011 q 149 1021 108 1021 l 149 649 q 228 693 185 678 q 331 708 272 708 q 469 646 421 707 q 517 444 517 585 q 438 79 517 172 q 246 -14 360 -14 m 253 43 q 390 122 332 43 q 449 424 449 200 q 415 600 449 550 q 304 650 381 650 q 149 589 211 650 l 149 71 q 253 43 179 43 z "},"c":{"ha":469,"x_min":60,"x_max":428,"o":"m 268 -14 q 156 12 200 -14 q 85 113 111 38 q 60 332 60 189 q 131 632 60 556 q 311 708 201 708 q 392 692 357 708 q 428 656 428 676 q 418 617 428 636 q 307 651 372 651 q 176 587 228 651 q 124 328 124 522 q 143 151 124 213 q 197 66 163 89 q 285 43 232 43 q 363 57 328 43 q 419 90 399 71 q 428 51 428 69 q 407 22 428 38 q 349 -3 386 7 q 268 -14 313 -14 z "},"ć":{"ha":469,"x_min":60,"x_max":428,"o":"m 268 -14 q 156 12 200 -14 q 85 113 111 38 q 60 332 60 189 q 131 632 60 556 q 311 708 201 708 q 392 692 357 708 q 428 656 428 676 q 418 617 428 636 q 307 651 372 651 q 176 587 228 651 q 124 328 124 522 q 143 151 124 213 q 197 66 163 89 q 285 43 232 43 q 363 57 328 43 q 419 90 399 71 q 428 51 428 69 q 407 22 428 38 q 349 -3 386 7 q 268 -14 313 -14 m 182 794 q 168 810 176 794 q 157 832 160 826 q 276 940 210 885 q 347 994 343 994 q 367 976 358 994 q 378 943 376 957 q 303 883 369 933 q 182 794 238 832 z "},"č":{"ha":469,"x_min":60,"x_max":428,"o":"m 268 -14 q 156 12 200 -14 q 85 113 111 38 q 60 332 60 189 q 131 632 60 556 q 311 708 201 708 q 392 692 357 708 q 428 656 428 676 q 418 617 428 636 q 307 651 372 651 q 176 587 228 651 q 124 328 124 522 q 143 151 124 213 q 197 66 163 89 q 285 43 232 43 q 363 57 328 43 q 419 90 399 71 q 428 51 428 69 q 407 22 428 38 q 349 -3 386 7 q 268 -14 313 -14 m 274 799 q 186 871 260 799 q 103 957 113 943 q 116 981 106 967 q 136 996 126 996 q 200 938 146 996 q 274 860 254 881 q 348 946 310 904 q 397 1000 386 988 q 424 968 424 985 q 390 917 424 960 q 319 837 356 875 q 274 799 282 799 z "},"ç":{"ha":469,"x_min":60,"x_max":428,"o":"m 285 43 q 363 57 328 43 q 419 90 399 71 q 428 51 428 69 q 388 10 428 31 q 288 -14 347 -10 l 272 -83 q 279 -83 274 -83 q 299 -82 285 -82 q 346 -101 326 -82 q 365 -158 365 -119 q 337 -236 365 -211 q 269 -261 308 -261 q 224 -256 246 -261 q 197 -249 203 -251 q 201 -228 197 -243 q 211 -208 206 -214 q 221 -206 214 -204 q 243 -212 228 -207 q 271 -218 258 -218 q 319 -168 319 -218 q 307 -129 319 -139 q 272 -119 294 -119 q 239 -122 254 -119 q 219 -126 224 -125 l 242 -12 q 144 21 183 -8 q 82 124 104 50 q 60 332 60 199 q 131 632 60 556 q 311 708 201 708 q 392 692 357 708 q 428 656 428 676 q 418 617 428 636 q 307 651 372 651 q 176 587 228 651 q 124 328 124 522 q 143 151 124 213 q 197 66 163 89 q 285 43 232 43 z "},"d":{"ha":565,"x_min":60,"x_max":481,"o":"m 286 -14 q 166 10 214 -14 q 89 109 118 33 q 60 331 60 185 q 92 542 60 457 q 177 667 124 626 q 299 708 231 708 q 418 676 375 708 l 418 989 q 429 1016 418 1011 q 481 1021 440 1021 l 481 28 q 395 -2 446 10 q 286 -14 344 -14 m 293 44 q 419 74 371 44 l 418 619 q 374 644 396 638 q 314 651 351 651 q 179 573 232 651 q 126 335 126 494 q 147 148 126 211 q 201 65 167 85 q 293 44 236 44 z "},"ð":{"ha":604,"x_min":57,"x_max":551,"o":"m 406 903 q 516 687 481 810 q 551 401 551 564 q 501 97 551 208 q 308 -14 450 -14 q 119 74 182 -14 q 57 356 57 163 q 120 616 57 526 q 300 706 183 706 q 465 638 407 706 q 346 878 432 775 l 213 825 q 197 872 197 863 q 207 886 197 882 l 303 924 q 210 1001 264 963 q 228 1024 215 1015 q 253 1032 240 1032 q 279 1022 267 1032 q 365 949 326 988 l 474 992 q 489 944 489 953 q 479 932 489 936 l 406 903 m 307 42 q 424 92 383 42 q 476 220 464 142 q 489 410 489 299 q 482 540 489 471 q 311 649 421 649 q 169 571 219 649 q 119 350 119 493 q 307 42 119 42 z "},"ď":{"ha":640,"x_min":60,"x_max":649,"o":"m 286 -14 q 166 10 214 -14 q 89 109 118 33 q 60 331 60 185 q 92 542 60 457 q 177 667 124 626 q 299 708 231 708 q 418 676 375 708 l 418 989 q 429 1016 418 1011 q 481 1021 440 1021 l 481 28 q 395 -2 446 10 q 286 -14 344 -14 m 293 44 q 419 74 371 44 l 418 619 q 374 644 396 638 q 314 651 351 651 q 179 573 232 651 q 126 335 126 494 q 147 148 126 211 q 201 65 167 85 q 293 44 236 44 m 572 682 q 554 688 563 682 q 544 704 546 694 q 576 871 574 764 q 551 921 551 886 q 565 958 551 943 q 599 972 578 972 q 636 959 624 972 q 649 913 649 946 q 635 819 649 874 q 602 723 621 764 q 572 682 583 682 z "},"đ":{"ha":550,"x_min":60,"x_max":556,"o":"m 551 894 q 556 865 556 883 q 531 833 553 833 l 481 833 l 481 28 q 395 -2 446 10 q 286 -14 344 -14 q 166 10 214 -14 q 89 109 118 33 q 60 331 60 185 q 92 542 60 457 q 177 667 124 626 q 299 708 231 708 q 418 676 375 708 l 418 833 l 210 833 q 207 864 207 844 q 233 894 210 894 l 418 894 l 418 989 q 429 1016 418 1011 q 481 1021 440 1021 l 481 894 l 551 894 m 293 44 q 419 74 371 44 l 418 619 q 374 644 396 638 q 314 651 351 651 q 179 573 232 651 q 126 335 126 494 q 147 148 126 211 q 201 65 167 85 q 293 44 236 44 z "},"e":{"ha":526,"x_min":57,"x_max":479,"o":"m 294 47 q 388 60 343 47 q 465 96 433 74 q 474 51 474 74 q 447 22 474 38 q 378 -4 421 6 q 286 -14 335 -14 q 163 10 211 -14 q 85 104 114 33 q 57 308 57 175 q 93 565 57 476 q 183 681 129 653 q 306 708 236 708 q 437 651 394 708 q 479 489 479 593 q 468 328 479 388 q 286 308 386 313 q 119 304 186 303 q 140 140 119 196 q 199 66 161 85 q 294 47 236 47 m 301 651 q 178 594 228 651 q 121 358 128 536 l 165 358 q 413 378 332 358 q 418 474 418 424 q 392 608 417 565 q 301 651 367 651 z "},"é":{"ha":526,"x_min":57,"x_max":479,"o":"m 294 47 q 388 60 343 47 q 465 96 433 74 q 474 51 474 74 q 447 22 474 38 q 378 -4 421 6 q 286 -14 335 -14 q 163 10 211 -14 q 85 104 114 33 q 57 308 57 175 q 93 565 57 476 q 183 681 129 653 q 306 708 236 708 q 437 651 394 708 q 479 489 479 593 q 468 328 479 388 q 286 308 386 313 q 119 304 186 303 q 140 140 119 196 q 199 66 161 85 q 294 47 236 47 m 301 651 q 178 594 228 651 q 121 358 128 536 l 165 358 q 413 378 332 358 q 418 474 418 424 q 392 608 417 565 q 301 651 367 651 m 208 794 q 194 810 203 794 q 183 832 186 826 q 303 940 236 885 q 374 994 369 994 q 394 976 385 994 q 404 943 403 957 q 330 883 396 933 q 208 794 264 832 z "},"ě":{"ha":526,"x_min":57,"x_max":479,"o":"m 294 47 q 388 60 343 47 q 465 96 433 74 q 474 51 474 74 q 447 22 474 38 q 378 -4 421 6 q 286 -14 335 -14 q 163 10 211 -14 q 85 104 114 33 q 57 308 57 175 q 93 565 57 476 q 183 681 129 653 q 306 708 236 708 q 437 651 394 708 q 479 489 479 593 q 468 328 479 388 q 286 308 386 313 q 119 304 186 303 q 140 140 119 196 q 199 66 161 85 q 294 47 236 47 m 301 651 q 178 594 228 651 q 121 358 128 536 l 165 358 q 413 378 332 358 q 418 474 418 424 q 392 608 417 565 q 301 651 367 651 m 300 799 q 213 871 286 799 q 129 957 139 943 q 142 981 132 967 q 163 996 153 996 q 226 938 172 996 q 300 860 281 881 q 374 946 336 904 q 424 1000 413 988 q 450 968 450 985 q 416 917 450 960 q 345 837 382 875 q 300 799 308 799 z "},"ê":{"ha":526,"x_min":57,"x_max":479,"o":"m 294 47 q 388 60 343 47 q 465 96 433 74 q 474 51 474 74 q 447 22 474 38 q 378 -4 421 6 q 286 -14 335 -14 q 163 10 211 -14 q 85 104 114 33 q 57 308 57 175 q 93 565 57 476 q 183 681 129 653 q 306 708 236 708 q 437 651 394 708 q 479 489 479 593 q 468 328 479 388 q 286 308 386 313 q 119 304 186 303 q 140 140 119 196 q 199 66 161 85 q 294 47 236 47 m 301 651 q 178 594 228 651 q 121 358 128 536 l 165 358 q 413 378 332 358 q 418 474 418 424 q 392 608 417 565 q 301 651 367 651 m 406 796 q 344 863 389 814 q 294 919 299 911 q 228 849 278 900 q 169 797 179 797 q 125 821 144 797 l 279 974 q 296 976 288 976 q 321 965 310 976 q 398 886 342 944 q 454 822 454 828 q 438 806 454 815 q 406 796 422 796 z "},"ế":{"ha":526,"x_min":57,"x_max":644,"o":"m 615 1099 q 635 1081 626 1099 q 644 1050 643 1064 q 576 993 639 1042 q 457 907 513 944 q 444 922 451 907 q 433 943 436 938 q 548 1047 485 994 q 615 1099 611 1099 m 174 793 q 132 817 146 793 l 279 963 q 296 965 288 965 q 319 954 308 965 q 393 878 339 933 q 447 818 447 822 q 432 801 447 811 q 400 792 417 792 q 340 856 383 808 q 294 911 297 903 q 231 843 278 893 q 174 793 183 793 m 468 328 q 286 308 386 313 q 119 304 186 303 q 140 140 119 196 q 199 66 161 85 q 294 47 236 47 q 388 60 343 47 q 465 96 433 74 q 474 51 474 74 q 447 22 474 38 q 378 -4 421 6 q 286 -14 335 -14 q 163 10 211 -14 q 85 104 114 33 q 57 308 57 175 q 93 565 57 476 q 183 681 129 653 q 306 708 236 708 q 437 651 394 708 q 479 489 479 593 q 468 328 479 388 m 301 651 q 178 594 228 651 q 121 358 128 536 l 165 358 q 413 378 332 358 q 418 474 418 424 q 392 608 417 565 q 301 651 367 651 z "},"ệ":{"ha":526,"x_min":57,"x_max":479,"o":"m 294 47 q 388 60 343 47 q 465 96 433 74 q 474 51 474 74 q 447 22 474 38 q 378 -4 421 6 q 286 -14 335 -14 q 163 10 211 -14 q 85 104 114 33 q 57 308 57 175 q 93 565 57 476 q 183 681 129 653 q 306 708 236 708 q 437 651 394 708 q 479 489 479 593 q 468 328 479 388 q 286 308 386 313 q 119 304 186 303 q 140 140 119 196 q 199 66 161 85 q 294 47 236 47 m 301 651 q 178 594 228 651 q 121 358 128 536 l 165 358 q 413 378 332 358 q 418 474 418 424 q 392 608 417 565 q 301 651 367 651 m 263 -211 q 236 -198 244 -211 q 228 -157 228 -185 q 267 -104 231 -104 q 294 -117 286 -104 q 303 -157 303 -129 q 263 -211 300 -211 m 406 796 q 344 863 389 814 q 294 919 299 911 q 228 849 278 900 q 169 797 179 797 q 125 821 144 797 l 279 974 q 296 976 288 976 q 321 965 310 976 q 398 886 342 944 q 454 822 454 828 q 438 806 454 815 q 406 796 422 796 z "},"ề":{"ha":526,"x_min":57,"x_max":479,"o":"m 442 993 q 431 973 439 988 q 418 958 424 958 q 302 1043 365 994 q 231 1100 239 1092 q 241 1131 232 1113 q 260 1150 250 1150 q 328 1097 265 1150 q 442 993 392 1044 m 174 793 q 132 817 146 793 l 279 963 q 296 965 288 965 q 319 954 308 965 q 393 878 339 933 q 447 818 447 822 q 432 801 447 811 q 400 792 417 792 q 340 856 383 808 q 294 911 297 903 q 231 843 278 893 q 174 793 183 793 m 294 47 q 388 60 343 47 q 465 96 433 74 q 474 51 474 74 q 447 22 474 38 q 378 -4 421 6 q 286 -14 335 -14 q 163 10 211 -14 q 85 104 114 33 q 57 308 57 175 q 93 565 57 476 q 183 681 129 653 q 306 708 236 708 q 437 651 394 708 q 479 489 479 593 q 468 328 479 388 q 286 308 386 313 q 119 304 186 303 q 140 140 119 196 q 199 66 161 85 q 294 47 236 47 m 301 651 q 178 594 228 651 q 121 358 128 536 l 165 358 q 413 378 332 358 q 418 474 418 424 q 392 608 417 565 q 301 651 367 651 z "},"ể":{"ha":526,"x_min":57,"x_max":544,"o":"m 435 1138 q 517 1112 489 1138 q 544 1038 544 1086 q 531 990 544 1007 q 504 965 518 974 q 485 951 490 956 q 477 937 479 947 q 475 924 475 926 q 451 921 472 921 l 435 922 q 434 927 435 924 q 433 936 433 931 q 438 957 433 947 q 463 982 446 969 q 483 1001 476 992 q 490 1032 490 1011 q 436 1088 490 1088 q 385 1072 407 1088 l 385 1118 q 400 1131 385 1124 q 435 1138 415 1138 m 174 793 q 132 817 146 793 l 279 963 q 296 965 288 965 q 319 954 308 965 q 393 878 339 933 q 447 818 447 822 q 432 801 447 811 q 400 792 417 792 q 340 856 383 808 q 294 911 297 903 q 231 843 278 893 q 174 793 183 793 m 468 328 q 286 308 386 313 q 119 304 186 303 q 140 140 119 196 q 199 66 161 85 q 294 47 236 47 q 388 60 343 47 q 465 96 433 74 q 474 51 474 74 q 447 22 474 38 q 378 -4 421 6 q 286 -14 335 -14 q 163 10 211 -14 q 85 104 114 33 q 57 308 57 175 q 93 565 57 476 q 183 681 129 653 q 306 708 236 708 q 437 651 394 708 q 479 489 479 593 q 468 328 479 388 m 301 651 q 178 594 228 651 q 121 358 128 536 l 165 358 q 413 378 332 358 q 418 474 418 424 q 392 608 417 565 q 301 651 367 651 z "},"ễ":{"ha":526,"x_min":57,"x_max":503,"o":"m 160 1006 q 138 1019 149 1006 q 126 1036 126 1033 q 187 1104 156 1085 q 257 1124 218 1124 q 292 1115 278 1124 q 321 1088 306 1106 q 349 1063 336 1071 q 381 1054 361 1054 q 428 1067 411 1054 q 458 1099 446 1081 q 476 1117 471 1117 q 494 1101 486 1117 q 503 1082 503 1086 q 374 994 457 994 q 328 1006 344 994 q 292 1039 311 1017 q 268 1061 278 1054 q 246 1068 258 1068 q 206 1055 222 1068 q 177 1024 190 1042 q 160 1006 164 1006 m 296 965 q 319 954 308 965 q 393 878 339 933 q 447 818 447 822 q 432 801 447 811 q 400 792 417 792 q 340 856 383 808 q 294 911 297 903 q 231 843 278 893 q 174 793 183 793 q 132 817 146 793 l 279 963 q 296 965 288 965 m 468 328 q 286 308 386 313 q 119 304 186 303 q 140 140 119 196 q 199 66 161 85 q 294 47 236 47 q 388 60 343 47 q 465 96 433 74 q 474 51 474 74 q 447 22 474 38 q 378 -4 421 6 q 286 -14 335 -14 q 163 10 211 -14 q 85 104 114 33 q 57 308 57 175 q 93 565 57 476 q 183 681 129 653 q 306 708 236 708 q 437 651 394 708 q 479 489 479 593 q 468 328 479 388 m 301 651 q 178 594 228 651 q 121 358 128 536 l 165 358 q 413 378 332 358 q 418 474 418 424 q 392 608 417 565 q 301 651 367 651 z "},"ë":{"ha":526,"x_min":57,"x_max":479,"o":"m 294 47 q 388 60 343 47 q 465 96 433 74 q 474 51 474 74 q 447 22 474 38 q 378 -4 421 6 q 286 -14 335 -14 q 163 10 211 -14 q 85 104 114 33 q 57 308 57 175 q 93 565 57 476 q 183 681 129 653 q 306 708 236 708 q 437 651 394 708 q 479 489 479 593 q 468 328 479 388 q 286 308 386 313 q 119 304 186 303 q 140 140 119 196 q 199 66 161 85 q 294 47 236 47 m 301 651 q 178 594 228 651 q 121 358 128 536 l 165 358 q 413 378 332 358 q 418 474 418 424 q 392 608 417 565 q 301 651 367 651 m 214 832 q 179 886 178 832 q 218 940 179 940 q 246 927 238 940 q 253 886 254 914 q 214 832 253 832 m 363 832 q 335 845 344 832 q 326 886 326 858 q 367 940 329 940 q 394 927 386 940 q 401 886 403 914 q 363 832 401 832 z "},"ė":{"ha":526,"x_min":57,"x_max":479,"o":"m 294 47 q 388 60 343 47 q 465 96 433 74 q 474 51 474 74 q 447 22 474 38 q 378 -4 421 6 q 286 -14 335 -14 q 163 10 211 -14 q 85 104 114 33 q 57 308 57 175 q 93 565 57 476 q 183 681 129 653 q 306 708 236 708 q 437 651 394 708 q 479 489 479 593 q 468 328 479 388 q 286 308 386 313 q 119 304 186 303 q 140 140 119 196 q 199 66 161 85 q 294 47 236 47 m 301 651 q 178 594 228 651 q 121 358 128 536 l 165 358 q 413 378 332 358 q 418 474 418 424 q 392 608 417 565 q 301 651 367 651 m 288 831 q 260 844 268 831 q 251 886 251 857 q 292 942 254 942 q 321 928 313 942 q 329 886 329 915 q 288 831 326 831 z "},"ẹ":{"ha":526,"x_min":57,"x_max":479,"o":"m 294 47 q 388 60 343 47 q 465 96 433 74 q 474 51 474 74 q 447 22 474 38 q 378 -4 421 6 q 286 -14 335 -14 q 163 10 211 -14 q 85 104 114 33 q 57 308 57 175 q 93 565 57 476 q 183 681 129 653 q 306 708 236 708 q 437 651 394 708 q 479 489 479 593 q 468 328 479 388 q 286 308 386 313 q 119 304 186 303 q 140 140 119 196 q 199 66 161 85 q 294 47 236 47 m 301 651 q 178 594 228 651 q 121 358 128 536 l 165 358 q 413 378 332 358 q 418 474 418 424 q 392 608 417 565 q 301 651 367 651 m 263 -211 q 236 -198 244 -211 q 228 -157 228 -185 q 267 -104 231 -104 q 294 -117 286 -104 q 303 -157 303 -129 q 263 -211 300 -211 z "},"è":{"ha":526,"x_min":57,"x_max":479,"o":"m 294 47 q 388 60 343 47 q 465 96 433 74 q 474 51 474 74 q 447 22 474 38 q 378 -4 421 6 q 286 -14 335 -14 q 163 10 211 -14 q 85 104 114 33 q 57 308 57 175 q 93 565 57 476 q 183 681 129 653 q 306 708 236 708 q 437 651 394 708 q 479 489 479 593 q 468 328 479 388 q 286 308 386 313 q 119 304 186 303 q 140 140 119 196 q 199 66 161 85 q 294 47 236 47 m 301 651 q 178 594 228 651 q 121 358 128 536 l 165 358 q 413 378 332 358 q 418 474 418 424 q 392 608 417 565 q 301 651 367 651 m 379 792 q 259 878 325 828 q 183 939 193 929 q 194 972 185 953 q 214 990 203 990 q 285 935 219 990 q 404 828 351 881 q 393 807 401 822 q 379 792 385 792 z "},"ẻ":{"ha":526,"x_min":57,"x_max":479,"o":"m 294 47 q 388 60 343 47 q 465 96 433 74 q 474 51 474 74 q 447 22 474 38 q 378 -4 421 6 q 286 -14 335 -14 q 163 10 211 -14 q 85 104 114 33 q 57 308 57 175 q 93 565 57 476 q 183 681 129 653 q 306 708 236 708 q 437 651 394 708 q 479 489 479 593 q 468 328 479 388 q 286 308 386 313 q 119 304 186 303 q 140 140 119 196 q 199 66 161 85 q 294 47 236 47 m 301 651 q 178 594 228 651 q 121 358 128 536 l 165 358 q 413 378 332 358 q 418 474 418 424 q 392 608 417 565 q 301 651 367 651 m 260 763 q 259 768 260 764 q 258 778 258 772 q 263 799 258 792 q 288 825 268 808 q 310 846 303 836 q 317 876 317 856 q 261 935 317 935 q 207 918 231 935 l 207 967 q 223 979 207 972 q 260 986 239 986 q 345 959 317 986 q 374 882 374 932 q 360 833 374 850 q 331 806 346 815 q 311 793 315 796 q 303 777 306 788 q 301 764 301 767 q 276 761 299 761 l 260 763 z "},"ē":{"ha":526,"x_min":57,"x_max":479,"o":"m 294 47 q 388 60 343 47 q 465 96 433 74 q 474 51 474 74 q 447 22 474 38 q 378 -4 421 6 q 286 -14 335 -14 q 163 10 211 -14 q 85 104 114 33 q 57 308 57 175 q 93 565 57 476 q 183 681 129 653 q 306 708 236 708 q 437 651 394 708 q 479 489 479 593 q 468 328 479 388 q 286 308 386 313 q 119 304 186 303 q 140 140 119 196 q 199 66 161 85 q 294 47 236 47 m 301 651 q 178 594 228 651 q 121 358 128 536 l 165 358 q 413 378 332 358 q 418 474 418 424 q 392 608 417 565 q 301 651 367 651 m 118 847 q 115 878 115 858 q 142 908 118 908 l 460 908 q 464 879 464 897 q 439 847 461 847 l 118 847 z "},"ę":{"ha":526,"x_min":57,"x_max":479,"o":"m 407 -271 q 331 -243 358 -271 q 304 -160 304 -215 q 320 -78 304 -118 q 361 -4 336 -37 q 285 -14 322 -14 q 163 10 211 -14 q 85 105 114 35 q 57 308 57 175 q 93 565 57 476 q 183 681 129 653 q 306 708 236 708 q 437 651 394 708 q 479 489 479 593 q 468 328 479 388 q 121 304 344 304 q 142 138 121 193 q 201 65 164 82 q 294 47 238 47 q 388 60 343 47 q 465 96 433 74 q 474 51 474 74 q 451 24 474 42 q 388 -55 415 -4 q 361 -154 361 -106 q 375 -203 361 -187 q 419 -219 389 -219 q 464 -208 443 -219 q 472 -229 468 -214 q 472 -244 474 -239 q 407 -271 468 -271 m 121 358 q 413 378 325 358 q 418 474 418 424 q 392 608 417 565 q 301 651 367 651 q 217 632 254 651 q 153 548 181 613 q 121 358 125 483 z "},"ẽ":{"ha":526,"x_min":57,"x_max":486,"o":"m 294 47 q 388 60 343 47 q 465 96 433 74 q 474 51 474 74 q 447 22 474 38 q 378 -4 421 6 q 286 -14 335 -14 q 163 10 211 -14 q 85 104 114 33 q 57 308 57 175 q 93 565 57 476 q 183 681 129 653 q 306 708 236 708 q 437 651 394 708 q 479 489 479 593 q 468 328 479 388 q 286 308 386 313 q 119 304 186 303 q 140 140 119 196 q 199 66 161 85 q 294 47 236 47 m 301 651 q 178 594 228 651 q 121 358 128 536 l 165 358 q 413 378 332 358 q 418 474 418 424 q 392 608 417 565 q 301 651 367 651 m 351 808 q 303 820 321 808 q 267 854 285 832 q 255 866 264 857 q 237 880 246 875 q 218 885 228 885 q 178 872 194 885 q 147 839 161 858 q 128 819 132 819 q 105 834 117 819 q 93 851 93 849 q 158 923 125 903 q 231 943 190 943 q 267 933 253 943 q 297 906 282 924 q 326 880 313 889 q 358 871 339 871 q 410 885 392 871 q 441 917 428 899 q 458 936 454 936 q 478 920 469 936 q 486 900 486 904 q 436 837 468 865 q 351 808 404 808 z "},"f":{"ha":342,"x_min":21,"x_max":471,"o":"m 131 639 l 21 639 q 22 674 21 661 q 26 691 22 688 q 40 694 31 694 l 131 694 l 131 785 q 194 978 131 928 q 354 1028 258 1028 q 442 1017 413 1028 q 471 989 471 1006 q 464 953 471 971 q 360 969 414 969 q 239 933 285 969 q 193 783 193 897 l 193 694 l 346 694 q 344 647 346 656 q 329 639 342 639 l 193 639 l 193 17 q 176 0 193 0 l 131 0 l 131 639 z "},"g":{"ha":564,"x_min":51,"x_max":543,"o":"m 354 78 q 492 34 443 65 q 540 -72 540 3 q 510 -172 540 -125 q 419 -247 481 -218 q 271 -275 358 -275 q 99 -234 146 -275 q 51 -128 51 -193 q 86 -32 51 -81 q 169 51 121 17 q 74 122 74 76 q 99 182 74 149 q 163 244 125 215 q 74 458 74 297 q 138 644 74 581 q 301 708 201 708 q 367 700 332 708 l 536 700 q 543 672 543 690 q 514 646 543 646 q 428 654 486 646 q 492 587 469 632 q 515 475 515 542 q 460 287 515 360 q 290 214 404 214 q 206 225 243 214 q 159 180 179 204 q 139 138 139 156 q 354 78 139 103 m 299 657 q 183 606 229 657 q 138 458 138 556 q 169 317 138 368 q 294 267 201 267 q 413 329 372 267 q 453 485 453 392 q 413 614 453 571 q 299 657 372 657 m 275 -215 q 385 -196 339 -215 q 454 -145 431 -176 q 478 -79 478 -114 q 439 -3 478 -24 q 321 25 400 18 q 222 39 256 33 q 147 -35 179 10 q 114 -118 114 -79 q 148 -190 114 -164 q 275 -215 182 -215 z "},"ğ":{"ha":564,"x_min":51,"x_max":543,"o":"m 354 78 q 492 34 443 65 q 540 -72 540 3 q 510 -172 540 -125 q 419 -247 481 -218 q 271 -275 358 -275 q 99 -234 146 -275 q 51 -128 51 -193 q 86 -32 51 -81 q 169 51 121 17 q 74 122 74 76 q 99 182 74 149 q 163 244 125 215 q 74 458 74 297 q 138 644 74 581 q 301 708 201 708 q 367 700 332 708 l 536 700 q 543 672 543 690 q 514 646 543 646 q 428 654 486 646 q 492 587 469 632 q 515 475 515 542 q 460 287 515 360 q 290 214 404 214 q 206 225 243 214 q 159 180 179 204 q 139 138 139 156 q 354 78 139 103 m 299 657 q 183 606 229 657 q 138 458 138 556 q 169 317 138 368 q 294 267 201 267 q 413 329 372 267 q 453 485 453 392 q 413 614 453 571 q 299 657 372 657 m 275 -215 q 385 -196 339 -215 q 454 -145 431 -176 q 478 -79 478 -114 q 439 -3 478 -24 q 321 25 400 18 q 222 39 256 33 q 147 -35 179 10 q 114 -118 114 -79 q 148 -190 114 -164 q 275 -215 182 -215 m 290 799 q 206 827 243 799 q 147 892 168 856 q 126 951 126 929 q 136 973 126 965 q 165 985 146 981 q 292 858 210 858 q 364 888 339 858 q 410 969 389 918 q 426 981 415 981 q 448 972 438 981 q 460 950 458 963 q 399 843 440 888 q 290 799 358 799 z "},"ģ":{"ha":564,"x_min":51,"x_max":543,"o":"m 285 775 q 248 789 260 775 q 236 836 236 803 q 253 919 236 874 q 291 999 269 965 q 324 1032 313 1032 q 340 1026 332 1032 q 350 1010 349 1019 q 319 942 328 972 q 308 876 310 911 q 333 826 333 863 q 320 790 333 804 q 285 775 307 775 m 354 78 q 492 34 443 65 q 540 -72 540 3 q 510 -172 540 -125 q 419 -247 481 -218 q 271 -275 358 -275 q 99 -234 146 -275 q 51 -128 51 -193 q 86 -32 51 -81 q 169 51 121 17 q 74 122 74 76 q 99 182 74 149 q 163 244 125 215 q 74 458 74 297 q 138 644 74 581 q 301 708 201 708 q 367 700 332 708 l 536 700 q 543 672 543 690 q 514 646 543 646 q 428 654 486 646 q 492 587 469 632 q 515 475 515 542 q 460 287 515 360 q 290 214 404 214 q 206 225 243 214 q 159 180 179 204 q 139 138 139 156 q 354 78 139 103 m 299 657 q 183 606 229 657 q 138 458 138 556 q 169 317 138 368 q 294 267 201 267 q 413 329 372 267 q 453 485 453 392 q 413 614 453 571 q 299 657 372 657 m 275 -215 q 385 -196 339 -215 q 454 -145 431 -176 q 478 -79 478 -114 q 439 -3 478 -24 q 321 25 400 18 q 222 39 256 33 q 147 -35 179 10 q 114 -118 114 -79 q 148 -190 114 -164 q 275 -215 182 -215 z "},"h":{"ha":558,"x_min":81,"x_max":492,"o":"m 81 989 q 92 1016 81 1011 q 143 1021 103 1021 l 143 647 q 231 693 183 678 q 326 708 279 708 q 457 662 422 708 q 492 521 492 615 l 492 17 q 489 4 492 7 q 470 1 486 1 q 428 0 454 0 l 428 510 q 402 613 428 578 q 307 649 376 649 q 221 633 265 649 q 143 586 176 618 l 143 17 q 140 4 143 7 q 122 1 138 1 q 81 0 107 0 l 81 989 z "},"i":{"ha":235,"x_min":79,"x_max":157,"o":"m 86 663 q 97 690 86 685 q 149 694 108 694 l 149 17 q 146 4 149 7 q 128 1 143 1 q 86 0 113 0 l 86 663 m 115 831 q 88 844 96 831 q 79 886 79 857 q 119 942 82 942 q 149 928 140 942 q 157 886 157 915 q 115 831 154 831 z "},"ı":{"ha":235,"x_min":86,"x_max":149,"o":"m 86 663 q 97 690 86 685 q 149 694 108 694 l 149 17 q 146 4 149 7 q 128 1 143 1 q 86 0 113 0 l 86 663 z "},"í":{"ha":235,"x_min":11,"x_max":232,"o":"m 86 663 q 97 690 86 685 q 149 694 108 694 l 149 17 q 146 4 149 7 q 128 1 143 1 q 86 0 113 0 l 86 663 m 36 794 q 22 810 31 794 q 11 832 14 826 q 131 940 64 885 q 201 994 197 994 q 222 976 213 994 q 232 943 231 957 q 158 883 224 933 q 36 794 92 832 z "},"î":{"ha":235,"x_min":-47,"x_max":282,"o":"m 86 663 q 97 690 86 685 q 149 694 108 694 l 149 17 q 146 4 149 7 q 128 1 143 1 q 86 0 113 0 l 86 663 m 233 796 q 172 863 217 814 q 122 919 126 911 q 56 849 106 900 q -3 797 7 797 q -47 821 -28 797 l 107 974 q 124 976 115 976 q 149 965 138 976 q 226 886 169 944 q 282 822 282 828 q 266 806 282 815 q 233 796 250 796 z "},"ï":{"ha":235,"x_min":7,"x_max":229,"o":"m 86 663 q 97 690 86 685 q 149 694 108 694 l 149 17 q 146 4 149 7 q 128 1 143 1 q 86 0 113 0 l 86 663 m 42 832 q 7 886 6 832 q 46 940 7 940 q 74 927 65 940 q 81 886 82 914 q 42 832 81 832 m 190 832 q 163 845 172 832 q 154 886 154 858 q 194 940 157 940 q 222 927 214 940 q 229 886 231 914 q 190 832 229 832 z "},"ị":{"ha":235,"x_min":79,"x_max":157,"o":"m 86 663 q 97 690 86 685 q 149 694 108 694 l 149 17 q 146 4 149 7 q 128 1 143 1 q 86 0 113 0 l 86 663 m 115 831 q 88 844 96 831 q 79 886 79 857 q 119 942 82 942 q 149 928 140 942 q 157 886 157 915 q 115 831 154 831 m 117 -211 q 90 -198 99 -211 q 82 -157 82 -185 q 121 -104 85 -104 q 149 -117 140 -104 q 157 -157 157 -129 q 117 -211 154 -211 z "},"ì":{"ha":235,"x_min":11,"x_max":232,"o":"m 86 663 q 97 690 86 685 q 149 694 108 694 l 149 17 q 146 4 149 7 q 128 1 143 1 q 86 0 113 0 l 86 663 m 207 792 q 87 878 153 828 q 11 939 21 929 q 22 972 13 953 q 42 990 31 990 q 113 935 47 990 q 232 828 179 881 q 221 807 229 822 q 207 792 213 792 z "},"ỉ":{"ha":235,"x_min":35,"x_max":201,"o":"m 86 663 q 97 690 86 685 q 149 694 108 694 l 149 17 q 146 4 149 7 q 128 1 143 1 q 86 0 113 0 l 86 663 m 88 763 q 87 768 88 764 q 86 778 86 772 q 90 799 86 792 q 115 825 96 808 q 138 846 131 836 q 144 876 144 856 q 89 935 144 935 q 35 918 58 935 l 35 967 q 51 979 35 972 q 88 986 67 986 q 173 959 144 986 q 201 882 201 932 q 188 833 201 850 q 158 806 174 815 q 139 793 143 796 q 131 777 133 788 q 129 764 129 767 q 104 761 126 761 l 88 763 z "},"ĳ":{"ha":486,"x_min":72,"x_max":400,"o":"m 86 663 q 97 690 86 685 q 149 694 108 694 l 149 17 q 146 4 149 7 q 128 1 143 1 q 86 0 113 0 l 86 663 m 115 831 q 88 844 96 831 q 79 886 79 857 q 119 942 82 942 q 149 928 140 942 q 157 886 157 915 q 115 831 154 831 m 225 -271 q 114 -252 156 -271 q 72 -210 72 -233 q 83 -172 72 -189 q 222 -211 143 -211 q 292 -192 268 -211 q 323 -137 315 -174 q 331 -36 331 -100 l 331 663 q 341 690 331 685 q 392 694 351 694 l 392 -51 q 357 -215 392 -158 q 225 -271 322 -271 m 358 831 q 331 844 339 831 q 322 886 322 857 q 363 942 325 942 q 392 928 383 942 q 400 886 400 915 q 358 831 397 831 z "},"ī":{"ha":235,"x_min":-1,"x_max":236,"o":"m 86 663 q 97 690 86 685 q 149 694 108 694 l 149 17 q 146 4 149 7 q 128 1 143 1 q 86 0 113 0 l 86 663 m 3 847 q -1 878 -1 858 q 6 900 -1 892 q 25 908 13 908 l 232 908 q 236 879 236 897 q 211 847 236 847 l 3 847 z "},"į":{"ha":235,"x_min":-7,"x_max":165,"o":"m 115 831 q 88 844 96 831 q 79 886 79 857 q 119 942 82 942 q 149 928 140 942 q 157 886 157 915 q 115 831 154 831 m 99 -271 q 21 -244 49 -271 q -7 -164 -7 -217 q 85 13 -7 -74 l 85 661 q 88 685 85 679 q 103 693 92 692 q 150 694 115 694 l 150 17 q 147 5 150 10 q 139 -3 143 0 q 133 -7 135 -6 q 76 -76 100 -35 q 51 -160 51 -117 q 110 -219 51 -219 q 154 -208 129 -219 q 164 -239 164 -224 q 147 -262 165 -254 q 99 -271 128 -271 z "},"ĩ":{"ha":235,"x_min":-79,"x_max":314,"o":"m 86 663 q 97 690 86 685 q 149 694 108 694 l 149 17 q 146 4 149 7 q 128 1 143 1 q 86 0 113 0 l 86 663 m 179 808 q 131 820 149 808 q 94 854 113 832 q 83 866 92 857 q 65 880 74 875 q 46 885 56 885 q 6 872 22 885 q -26 839 -11 858 q -44 819 -40 819 q -67 834 -56 819 q -79 851 -79 849 q -15 923 -47 903 q 58 943 18 943 q 95 933 81 943 q 125 906 110 924 q 153 880 140 889 q 186 871 167 871 q 238 885 219 871 q 269 917 256 899 q 286 936 282 936 q 306 920 297 936 q 314 900 314 904 q 264 837 296 865 q 179 808 232 808 z "},"j":{"ha":251,"x_min":-162,"x_max":165,"o":"m -10 -271 q -121 -252 -79 -271 q -162 -210 -162 -233 q -151 -172 -162 -189 q -12 -211 -92 -211 q 57 -192 33 -211 q 88 -137 81 -174 q 96 -36 96 -100 l 96 663 q 106 690 96 685 q 157 694 117 694 l 157 -51 q 122 -215 157 -158 q -10 -271 88 -271 m 124 831 q 96 844 104 831 q 88 886 88 857 q 128 942 90 942 q 157 928 149 942 q 165 886 165 915 q 124 831 163 831 z "},"ȷ":{"ha":251,"x_min":-162,"x_max":157,"o":"m -10 -271 q -121 -252 -79 -271 q -162 -210 -162 -233 q -151 -172 -162 -189 q -12 -211 -92 -211 q 57 -192 33 -211 q 88 -137 81 -174 q 96 -36 96 -100 l 96 663 q 106 690 96 685 q 157 694 117 694 l 157 -51 q 122 -215 157 -158 q -10 -271 88 -271 z "},"k":{"ha":547,"x_min":85,"x_max":504,"o":"m 85 989 q 96 1016 85 1011 q 147 1021 107 1021 l 147 615 q 247 683 189 658 q 353 708 304 708 q 446 677 417 708 q 475 586 475 646 q 423 448 475 503 q 318 365 371 393 q 390 342 351 364 q 458 276 428 321 q 500 164 489 232 q 504 93 504 133 q 500 19 504 60 q 495 5 499 8 q 475 1 492 1 q 431 0 458 0 q 436 88 436 43 q 419 206 436 158 q 358 299 399 271 q 271 326 317 326 q 238 322 253 326 q 184 303 211 314 q 147 289 157 293 l 147 17 q 145 4 147 7 q 128 1 143 1 q 85 0 113 0 l 85 989 m 147 340 q 337 437 265 379 q 408 572 408 494 q 329 650 408 650 q 238 626 285 650 q 147 551 190 601 l 147 340 z "},"ķ":{"ha":547,"x_min":85,"x_max":504,"o":"m 85 989 q 96 1016 85 1011 q 147 1021 107 1021 l 147 615 q 247 683 189 658 q 353 708 304 708 q 446 677 417 708 q 475 586 475 646 q 423 448 475 503 q 318 365 371 393 q 390 342 351 364 q 458 276 428 321 q 500 164 489 232 q 504 93 504 133 q 500 19 504 60 q 495 5 499 8 q 475 1 492 1 q 431 0 458 0 q 436 88 436 43 q 419 206 436 158 q 358 299 399 271 q 271 326 317 326 q 238 322 253 326 q 184 303 211 314 q 147 289 157 293 l 147 17 q 145 4 147 7 q 128 1 143 1 q 85 0 113 0 l 85 989 m 147 340 q 337 437 265 379 q 408 572 408 494 q 329 650 408 650 q 238 626 285 650 q 147 551 190 601 l 147 340 m 243 -342 q 226 -335 235 -342 q 217 -319 218 -329 q 248 -250 239 -282 q 258 -183 257 -218 q 233 -133 233 -169 q 247 -97 233 -111 q 282 -82 260 -82 q 319 -96 307 -82 q 331 -143 331 -110 q 314 -228 331 -182 q 276 -308 297 -275 q 243 -342 254 -342 z "},"l":{"ha":233,"x_min":85,"x_max":147,"o":"m 85 989 q 96 1016 85 1011 q 147 1021 107 1021 l 147 17 q 144 4 147 7 q 126 1 142 1 q 85 0 111 0 l 85 989 z "},"ĺ":{"ha":233,"x_min":10,"x_max":231,"o":"m 85 989 q 96 1016 85 1011 q 147 1021 107 1021 l 147 17 q 144 4 147 7 q 126 1 142 1 q 85 0 111 0 l 85 989 m 35 1121 q 21 1137 29 1121 q 10 1158 13 1153 q 129 1266 63 1211 q 200 1321 196 1321 q 220 1302 211 1321 q 231 1269 229 1283 q 156 1209 222 1260 q 35 1121 90 1158 z "},"ľ":{"ha":233,"x_min":85,"x_max":147,"o":"m 85 989 q 96 1016 85 1011 q 147 1021 107 1021 l 147 17 q 144 4 147 7 q 126 1 142 1 q 85 0 111 0 l 85 989 z "},"ļ":{"ha":233,"x_min":60,"x_max":174,"o":"m 85 989 q 96 1016 85 1011 q 147 1021 107 1021 l 147 17 q 144 4 147 7 q 126 1 142 1 q 85 0 111 0 l 85 989 m 86 -342 q 69 -335 78 -342 q 60 -319 61 -329 q 91 -250 82 -282 q 101 -183 100 -218 q 76 -133 76 -169 q 90 -97 76 -111 q 125 -82 103 -82 q 162 -96 150 -82 q 174 -143 174 -110 q 157 -228 174 -182 q 119 -308 140 -275 q 86 -342 97 -342 z "},"ŀ":{"ha":267,"x_min":85,"x_max":300,"o":"m 85 989 q 96 1016 85 1011 q 147 1021 107 1021 l 147 17 q 144 4 147 7 q 126 1 142 1 q 85 0 111 0 l 85 989 m 246 318 q 194 375 194 318 q 208 414 194 397 q 246 431 222 431 q 286 415 272 431 q 300 375 300 399 q 285 334 300 350 q 246 318 271 318 z "},"ł":{"ha":240,"x_min":3,"x_max":238,"o":"m 226 696 q 238 650 238 658 q 226 635 238 639 l 150 608 l 150 17 q 148 4 150 7 q 131 1 146 1 q 89 0 115 0 l 89 586 l 14 560 q 3 606 3 596 q 14 621 3 617 l 89 647 l 89 989 q 100 1016 89 1011 q 150 1021 111 1021 l 150 669 l 226 696 z "},"m":{"ha":838,"x_min":85,"x_max":760,"o":"m 604 708 q 704 685 671 708 q 749 620 738 663 q 760 504 760 578 l 760 17 q 757 4 760 7 q 739 1 754 1 q 697 0 724 0 l 697 511 q 678 620 697 589 q 597 651 658 651 q 456 608 518 651 l 456 17 q 453 4 456 7 q 435 1 450 1 q 393 0 419 0 l 393 513 q 388 595 393 568 q 360 637 382 622 q 289 651 339 651 q 147 619 218 651 l 147 17 q 144 5 147 8 q 125 1 140 1 q 85 0 110 0 l 85 663 q 289 708 189 708 q 426 657 390 708 q 511 694 463 681 q 604 708 560 708 z "},"n":{"ha":567,"x_min":82,"x_max":497,"o":"m 82 660 q 308 708 201 708 q 457 663 417 708 q 497 515 497 618 l 497 17 q 494 4 497 7 q 476 1 492 1 q 433 0 460 0 l 433 500 q 408 617 433 583 q 307 651 382 651 q 224 642 269 651 q 144 617 178 633 l 144 17 q 142 4 144 7 q 124 1 139 1 q 82 0 108 0 l 82 660 z "},"ń":{"ha":567,"x_min":82,"x_max":497,"o":"m 82 660 q 308 708 201 708 q 457 663 417 708 q 497 515 497 618 l 497 17 q 494 4 497 7 q 476 1 492 1 q 433 0 460 0 l 433 500 q 408 617 433 583 q 307 651 382 651 q 224 642 269 651 q 144 617 178 633 l 144 17 q 142 4 144 7 q 124 1 139 1 q 82 0 108 0 l 82 660 m 201 794 q 188 810 196 794 q 176 832 179 826 q 296 940 229 885 q 367 994 363 994 q 387 976 378 994 q 397 943 396 957 q 323 883 389 933 q 201 794 257 832 z "},"ŉ":{"ha":567,"x_min":82,"x_max":497,"o":"m 82 660 q 308 708 201 708 q 457 663 417 708 q 497 515 497 618 l 497 17 q 494 4 497 7 q 476 1 492 1 q 433 0 460 0 l 433 500 q 408 617 433 583 q 307 651 382 651 q 224 642 269 651 q 144 617 178 633 l 144 17 q 142 4 144 7 q 124 1 139 1 q 82 0 108 0 l 82 660 m 119 797 q 101 803 110 797 q 92 819 93 810 q 124 986 121 879 q 99 1036 99 1001 q 112 1073 99 1058 q 146 1088 125 1088 q 183 1074 171 1088 q 196 1028 196 1061 q 182 934 196 989 q 149 838 168 879 q 119 797 131 797 z "},"ň":{"ha":567,"x_min":82,"x_max":497,"o":"m 82 660 q 308 708 201 708 q 457 663 417 708 q 497 515 497 618 l 497 17 q 494 4 497 7 q 476 1 492 1 q 433 0 460 0 l 433 500 q 408 617 433 583 q 307 651 382 651 q 224 642 269 651 q 144 617 178 633 l 144 17 q 142 4 144 7 q 124 1 139 1 q 82 0 108 0 l 82 660 m 293 799 q 206 871 279 799 q 122 957 132 943 q 135 981 125 967 q 156 996 146 996 q 219 938 165 996 q 293 860 274 881 q 367 946 329 904 q 417 1000 406 988 q 443 968 443 985 q 409 917 443 960 q 338 837 375 875 q 293 799 301 799 z "},"ņ":{"ha":567,"x_min":82,"x_max":497,"o":"m 82 660 q 308 708 201 708 q 457 663 417 708 q 497 515 497 618 l 497 17 q 494 4 497 7 q 476 1 492 1 q 433 0 460 0 l 433 500 q 408 617 433 583 q 307 651 382 651 q 224 642 269 651 q 144 617 178 633 l 144 17 q 142 4 144 7 q 124 1 139 1 q 82 0 108 0 l 82 660 m 253 -342 q 236 -335 244 -342 q 226 -319 228 -329 q 258 -250 249 -282 q 268 -183 267 -218 q 243 -133 243 -169 q 256 -97 243 -111 q 292 -82 269 -82 q 328 -96 317 -82 q 340 -143 340 -110 q 324 -228 340 -182 q 285 -308 307 -275 q 253 -342 264 -342 z "},"ñ":{"ha":567,"x_min":82,"x_max":497,"o":"m 82 660 q 308 708 201 708 q 457 663 417 708 q 497 515 497 618 l 497 17 q 494 4 497 7 q 476 1 492 1 q 433 0 460 0 l 433 500 q 408 617 433 583 q 307 651 382 651 q 224 642 269 651 q 144 617 178 633 l 144 17 q 142 4 144 7 q 124 1 139 1 q 82 0 108 0 l 82 660 m 344 808 q 296 820 314 808 q 260 854 278 832 q 248 866 257 857 q 230 880 239 875 q 211 885 221 885 q 171 872 188 885 q 140 839 154 858 q 121 819 125 819 q 98 834 110 819 q 86 851 86 849 q 151 923 118 903 q 224 943 183 943 q 260 933 246 943 q 290 906 275 924 q 319 880 306 889 q 351 871 332 871 q 403 885 385 871 q 434 917 421 899 q 451 936 447 936 q 471 920 463 936 q 479 900 479 904 q 429 837 461 865 q 344 808 397 808 z "},"o":{"ha":544,"x_min":49,"x_max":496,"o":"m 265 -14 q 144 12 190 -14 q 74 116 99 38 q 49 346 49 194 q 281 708 49 708 q 402 676 356 708 q 472 565 449 644 q 496 347 496 486 q 437 76 496 165 q 265 -14 378 -14 m 267 42 q 387 117 344 42 q 429 350 429 192 q 412 536 429 469 q 362 628 394 603 q 278 653 329 653 q 157 581 199 653 q 115 339 115 510 q 133 155 115 219 q 182 66 150 90 q 267 42 214 42 z "},"ó":{"ha":544,"x_min":49,"x_max":496,"o":"m 265 -14 q 144 12 190 -14 q 74 116 99 38 q 49 346 49 194 q 281 708 49 708 q 402 676 356 708 q 472 565 449 644 q 496 347 496 486 q 437 76 496 165 q 265 -14 378 -14 m 267 42 q 387 117 344 42 q 429 350 429 192 q 412 536 429 469 q 362 628 394 603 q 278 653 329 653 q 157 581 199 653 q 115 339 115 510 q 133 155 115 219 q 182 66 150 90 q 267 42 214 42 m 196 794 q 182 810 190 794 q 171 832 174 826 q 290 940 224 885 q 361 994 357 994 q 381 976 372 994 q 392 943 390 957 q 317 883 383 933 q 196 794 251 832 z "},"ô":{"ha":544,"x_min":49,"x_max":496,"o":"m 265 -14 q 144 12 190 -14 q 74 116 99 38 q 49 346 49 194 q 281 708 49 708 q 402 676 356 708 q 472 565 449 644 q 496 347 496 486 q 437 76 496 165 q 265 -14 378 -14 m 267 42 q 387 117 344 42 q 429 350 429 192 q 412 536 429 469 q 362 628 394 603 q 278 653 329 653 q 157 581 199 653 q 115 339 115 510 q 133 155 115 219 q 182 66 150 90 q 267 42 214 42 m 393 796 q 331 863 376 814 q 282 919 286 911 q 216 849 265 900 q 157 797 167 797 q 113 821 132 797 l 267 974 q 283 976 275 976 q 308 965 297 976 q 385 886 329 944 q 442 822 442 828 q 426 806 442 815 q 393 796 410 796 z "},"ố":{"ha":544,"x_min":49,"x_max":632,"o":"m 444 907 q 431 922 439 907 q 421 943 424 938 q 535 1047 472 994 q 603 1099 599 1099 q 622 1081 614 1099 q 632 1050 631 1064 q 563 993 626 1042 q 444 907 500 944 m 388 792 q 328 856 371 808 q 282 911 285 903 q 218 843 265 893 q 161 793 171 793 q 119 817 133 793 l 267 963 q 283 965 275 965 q 307 954 296 965 q 381 878 326 933 q 435 818 435 822 q 419 801 435 811 q 388 792 404 792 m 265 -14 q 144 12 190 -14 q 74 116 99 38 q 49 346 49 194 q 281 708 49 708 q 402 676 356 708 q 472 565 449 644 q 496 347 496 486 q 437 76 496 165 q 265 -14 378 -14 m 267 42 q 387 117 344 42 q 429 350 429 192 q 412 536 429 469 q 362 628 394 603 q 278 653 329 653 q 157 581 199 653 q 115 339 115 510 q 133 155 115 219 q 182 66 150 90 q 267 42 214 42 z "},"ộ":{"ha":544,"x_min":49,"x_max":496,"o":"m 265 -14 q 144 12 190 -14 q 74 116 99 38 q 49 346 49 194 q 281 708 49 708 q 402 676 356 708 q 472 565 449 644 q 496 347 496 486 q 437 76 496 165 q 265 -14 378 -14 m 267 42 q 387 117 344 42 q 429 350 429 192 q 412 536 429 469 q 362 628 394 603 q 278 653 329 653 q 157 581 199 653 q 115 339 115 510 q 133 155 115 219 q 182 66 150 90 q 267 42 214 42 m 271 -211 q 244 -198 253 -211 q 236 -157 236 -185 q 275 -104 239 -104 q 303 -117 294 -104 q 311 -157 311 -129 q 271 -211 308 -211 m 393 796 q 331 863 376 814 q 282 919 286 911 q 216 849 265 900 q 157 797 167 797 q 113 821 132 797 l 267 974 q 283 976 275 976 q 308 965 297 976 q 385 886 329 944 q 442 822 442 828 q 426 806 442 815 q 393 796 410 796 z "},"ồ":{"ha":544,"x_min":49,"x_max":496,"o":"m 406 958 q 290 1043 353 994 q 218 1100 226 1092 q 228 1131 219 1113 q 247 1150 238 1150 q 316 1097 253 1150 q 429 993 379 1044 q 419 973 426 988 q 406 958 411 958 m 388 792 q 328 856 371 808 q 282 911 285 903 q 218 843 265 893 q 161 793 171 793 q 119 817 133 793 l 267 963 q 283 965 275 965 q 307 954 296 965 q 381 878 326 933 q 435 818 435 822 q 419 801 435 811 q 388 792 404 792 m 265 -14 q 144 12 190 -14 q 74 116 99 38 q 49 346 49 194 q 281 708 49 708 q 402 676 356 708 q 472 565 449 644 q 496 347 496 486 q 437 76 496 165 q 265 -14 378 -14 m 267 42 q 387 117 344 42 q 429 350 429 192 q 412 536 429 469 q 362 628 394 603 q 278 653 329 653 q 157 581 199 653 q 115 339 115 510 q 133 155 115 219 q 182 66 150 90 q 267 42 214 42 z "},"ổ":{"ha":544,"x_min":49,"x_max":532,"o":"m 422 922 q 422 927 422 924 q 421 936 421 931 q 425 957 421 947 q 450 982 433 969 q 471 1001 464 992 q 478 1032 478 1011 q 424 1088 478 1088 q 372 1072 394 1088 l 372 1118 q 388 1131 372 1124 q 422 1138 403 1138 q 504 1112 476 1138 q 532 1038 532 1086 q 519 990 532 1007 q 492 965 506 974 q 472 951 478 956 q 465 937 467 947 q 463 924 463 926 q 439 921 460 921 l 422 922 m 388 792 q 328 856 371 808 q 282 911 285 903 q 218 843 265 893 q 161 793 171 793 q 119 817 133 793 l 267 963 q 283 965 275 965 q 307 954 296 965 q 381 878 326 933 q 435 818 435 822 q 419 801 435 811 q 388 792 404 792 m 265 -14 q 144 12 190 -14 q 74 116 99 38 q 49 346 49 194 q 281 708 49 708 q 402 676 356 708 q 472 565 449 644 q 496 347 496 486 q 437 76 496 165 q 265 -14 378 -14 m 267 42 q 387 117 344 42 q 429 350 429 192 q 412 536 429 469 q 362 628 394 603 q 278 653 329 653 q 157 581 199 653 q 115 339 115 510 q 133 155 115 219 q 182 66 150 90 q 267 42 214 42 z "},"ỗ":{"ha":544,"x_min":49,"x_max":496,"o":"m 361 994 q 315 1006 332 994 q 279 1039 299 1017 q 256 1061 265 1054 q 233 1068 246 1068 q 194 1055 210 1068 q 165 1024 178 1042 q 147 1006 151 1006 q 125 1019 136 1006 q 114 1036 114 1033 q 174 1104 143 1085 q 244 1124 206 1124 q 279 1115 265 1124 q 308 1088 293 1106 q 336 1063 324 1071 q 368 1054 349 1054 q 416 1067 399 1054 q 446 1099 433 1081 q 464 1117 458 1117 q 482 1101 474 1117 q 490 1082 490 1086 q 361 994 444 994 m 388 792 q 328 856 371 808 q 282 911 285 903 q 218 843 265 893 q 161 793 171 793 q 119 817 133 793 l 267 963 q 283 965 275 965 q 307 954 296 965 q 381 878 326 933 q 435 818 435 822 q 419 801 435 811 q 388 792 404 792 m 265 -14 q 144 12 190 -14 q 74 116 99 38 q 49 346 49 194 q 281 708 49 708 q 402 676 356 708 q 472 565 449 644 q 496 347 496 486 q 437 76 496 165 q 265 -14 378 -14 m 267 42 q 387 117 344 42 q 429 350 429 192 q 412 536 429 469 q 362 628 394 603 q 278 653 329 653 q 157 581 199 653 q 115 339 115 510 q 133 155 115 219 q 182 66 150 90 q 267 42 214 42 z "},"ö":{"ha":544,"x_min":49,"x_max":496,"o":"m 265 -14 q 144 12 190 -14 q 74 116 99 38 q 49 346 49 194 q 281 708 49 708 q 402 676 356 708 q 472 565 449 644 q 496 347 496 486 q 437 76 496 165 q 265 -14 378 -14 m 267 42 q 387 117 344 42 q 429 350 429 192 q 412 536 429 469 q 362 628 394 603 q 278 653 329 653 q 157 581 199 653 q 115 339 115 510 q 133 155 115 219 q 182 66 150 90 q 267 42 214 42 m 201 832 q 167 886 165 832 q 206 940 167 940 q 233 927 225 940 q 240 886 242 914 q 201 832 240 832 m 350 832 q 323 845 332 832 q 314 886 314 858 q 354 940 317 940 q 382 927 374 940 q 389 886 390 914 q 350 832 389 832 z "},"ọ":{"ha":544,"x_min":49,"x_max":496,"o":"m 265 -14 q 144 12 190 -14 q 74 116 99 38 q 49 346 49 194 q 281 708 49 708 q 402 676 356 708 q 472 565 449 644 q 496 347 496 486 q 437 76 496 165 q 265 -14 378 -14 m 267 42 q 387 117 344 42 q 429 350 429 192 q 412 536 429 469 q 362 628 394 603 q 278 653 329 653 q 157 581 199 653 q 115 339 115 510 q 133 155 115 219 q 182 66 150 90 q 267 42 214 42 m 271 -211 q 244 -198 253 -211 q 236 -157 236 -185 q 275 -104 239 -104 q 303 -117 294 -104 q 311 -157 311 -129 q 271 -211 308 -211 z "},"ò":{"ha":544,"x_min":49,"x_max":496,"o":"m 265 -14 q 144 12 190 -14 q 74 116 99 38 q 49 346 49 194 q 281 708 49 708 q 402 676 356 708 q 472 565 449 644 q 496 347 496 486 q 437 76 496 165 q 265 -14 378 -14 m 267 42 q 387 117 344 42 q 429 350 429 192 q 412 536 429 469 q 362 628 394 603 q 278 653 329 653 q 157 581 199 653 q 115 339 115 510 q 133 155 115 219 q 182 66 150 90 q 267 42 214 42 m 367 792 q 247 878 313 828 q 171 939 181 929 q 181 972 172 953 q 201 990 190 990 q 273 935 207 990 q 392 828 339 881 q 381 807 389 822 q 367 792 372 792 z "},"ỏ":{"ha":544,"x_min":49,"x_max":496,"o":"m 265 -14 q 144 12 190 -14 q 74 116 99 38 q 49 346 49 194 q 281 708 49 708 q 402 676 356 708 q 472 565 449 644 q 496 347 496 486 q 437 76 496 165 q 265 -14 378 -14 m 267 42 q 387 117 344 42 q 429 350 429 192 q 412 536 429 469 q 362 628 394 603 q 278 653 329 653 q 157 581 199 653 q 115 339 115 510 q 133 155 115 219 q 182 66 150 90 q 267 42 214 42 m 247 763 q 247 768 247 764 q 246 778 246 772 q 250 799 246 792 q 275 825 256 808 q 297 846 290 836 q 304 876 304 856 q 249 935 304 935 q 194 918 218 935 l 194 967 q 210 979 194 972 q 247 986 226 986 q 333 959 304 986 q 361 882 361 932 q 347 833 361 850 q 318 806 333 815 q 299 793 303 796 q 291 777 293 788 q 289 764 289 767 q 264 761 286 761 l 247 763 z "},"ơ":{"ha":544,"x_min":49,"x_max":500,"o":"m 499 779 q 483 707 500 740 q 424 657 465 674 q 478 543 460 618 q 496 347 496 468 q 437 76 496 165 q 265 -14 378 -14 q 144 12 190 -14 q 74 116 99 38 q 49 346 49 194 q 281 708 49 708 q 369 694 332 708 q 428 721 413 699 q 443 785 443 743 q 465 797 443 797 q 488 792 478 797 q 499 779 499 788 m 267 42 q 387 117 344 42 q 429 350 429 192 q 412 536 429 469 q 362 628 394 603 q 278 653 329 653 q 157 581 199 653 q 115 339 115 510 q 133 155 115 219 q 182 66 150 90 q 267 42 214 42 z "},"ớ":{"ha":544,"x_min":49,"x_max":499,"o":"m 499 779 q 483 707 500 740 q 424 657 465 674 q 478 543 460 618 q 496 347 496 468 q 437 76 496 165 q 265 -14 378 -14 q 144 12 190 -14 q 74 116 99 38 q 49 346 49 194 q 281 708 49 708 q 369 694 332 708 q 428 721 413 699 q 443 785 443 743 q 465 797 443 797 q 488 792 478 797 q 499 779 499 788 m 267 42 q 387 117 344 42 q 429 350 429 192 q 412 536 429 469 q 362 628 394 603 q 278 653 329 653 q 157 581 199 653 q 115 339 115 510 q 133 155 115 219 q 182 66 150 90 q 267 42 214 42 m 196 794 q 182 810 190 794 q 171 832 174 826 q 290 940 224 885 q 361 994 357 994 q 381 976 372 994 q 392 943 390 957 q 317 883 383 933 q 196 794 251 832 z "},"ợ":{"ha":544,"x_min":49,"x_max":499,"o":"m 499 779 q 483 707 500 740 q 424 657 465 674 q 478 543 460 618 q 496 347 496 468 q 437 76 496 165 q 265 -14 378 -14 q 144 12 190 -14 q 74 116 99 38 q 49 346 49 194 q 281 708 49 708 q 369 694 332 708 q 428 721 413 699 q 443 785 443 743 q 465 797 443 797 q 488 792 478 797 q 499 779 499 788 m 267 42 q 387 117 344 42 q 429 350 429 192 q 412 536 429 469 q 362 628 394 603 q 278 653 329 653 q 157 581 199 653 q 115 339 115 510 q 133 155 115 219 q 182 66 150 90 q 267 42 214 42 m 271 -211 q 244 -198 253 -211 q 236 -157 236 -185 q 275 -104 239 -104 q 303 -117 294 -104 q 311 -157 311 -129 q 271 -211 308 -211 z "},"ờ":{"ha":544,"x_min":49,"x_max":499,"o":"m 499 779 q 483 707 500 740 q 424 657 465 674 q 478 543 460 618 q 496 347 496 468 q 437 76 496 165 q 265 -14 378 -14 q 144 12 190 -14 q 74 116 99 38 q 49 346 49 194 q 281 708 49 708 q 369 694 332 708 q 428 721 413 699 q 443 785 443 743 q 465 797 443 797 q 488 792 478 797 q 499 779 499 788 m 267 42 q 387 117 344 42 q 429 350 429 192 q 412 536 429 469 q 362 628 394 603 q 278 653 329 653 q 157 581 199 653 q 115 339 115 510 q 133 155 115 219 q 182 66 150 90 q 267 42 214 42 m 329 792 q 209 878 275 828 q 133 939 143 929 q 144 972 135 953 q 164 990 153 990 q 235 935 169 990 q 354 828 301 881 q 343 807 351 822 q 329 792 335 792 z "},"ở":{"ha":544,"x_min":49,"x_max":499,"o":"m 499 779 q 483 707 500 740 q 424 657 465 674 q 478 543 460 618 q 496 347 496 468 q 437 76 496 165 q 265 -14 378 -14 q 144 12 190 -14 q 74 116 99 38 q 49 346 49 194 q 281 708 49 708 q 369 694 332 708 q 428 721 413 699 q 443 785 443 743 q 465 797 443 797 q 488 792 478 797 q 499 779 499 788 m 267 42 q 387 117 344 42 q 429 350 429 192 q 412 536 429 469 q 362 628 394 603 q 278 653 329 653 q 157 581 199 653 q 115 339 115 510 q 133 155 115 219 q 182 66 150 90 q 267 42 214 42 m 247 763 q 247 768 247 764 q 246 778 246 772 q 250 799 246 792 q 275 825 256 808 q 297 846 290 836 q 304 876 304 856 q 249 935 304 935 q 194 918 218 935 l 194 967 q 210 979 194 972 q 247 986 226 986 q 333 959 304 986 q 361 882 361 932 q 347 833 361 850 q 318 806 333 815 q 299 793 303 796 q 291 777 293 788 q 289 764 289 767 q 264 761 286 761 l 247 763 z "},"ỡ":{"ha":544,"x_min":49,"x_max":499,"o":"m 499 779 q 483 707 500 740 q 424 657 465 674 q 478 543 460 618 q 496 347 496 468 q 437 76 496 165 q 265 -14 378 -14 q 144 12 190 -14 q 74 116 99 38 q 49 346 49 194 q 281 708 49 708 q 369 694 332 708 q 428 721 413 699 q 443 785 443 743 q 465 797 443 797 q 488 792 478 797 q 499 779 499 788 m 267 42 q 387 117 344 42 q 429 350 429 192 q 412 536 429 469 q 362 628 394 603 q 278 653 329 653 q 157 581 199 653 q 115 339 115 510 q 133 155 115 219 q 182 66 150 90 q 267 42 214 42 m 339 808 q 290 820 308 808 q 254 854 272 832 q 242 866 251 857 q 224 880 233 875 q 206 885 215 885 q 165 872 182 885 q 134 839 149 858 q 115 819 119 819 q 92 834 104 819 q 81 851 81 849 q 145 923 113 903 q 218 943 178 943 q 255 933 240 943 q 285 906 269 924 q 313 880 300 889 q 346 871 326 871 q 397 885 379 871 q 428 917 415 899 q 446 936 442 936 q 465 920 457 936 q 474 900 474 904 q 424 837 456 865 q 339 808 392 808 z "},"ő":{"ha":544,"x_min":49,"x_max":496,"o":"m 265 -14 q 144 12 190 -14 q 74 116 99 38 q 49 346 49 194 q 281 708 49 708 q 402 676 356 708 q 472 565 449 644 q 496 347 496 486 q 437 76 496 165 q 265 -14 378 -14 m 267 42 q 387 117 344 42 q 429 350 429 192 q 412 536 429 469 q 362 628 394 603 q 278 653 329 653 q 157 581 199 653 q 115 339 115 510 q 133 155 115 219 q 182 66 150 90 q 267 42 214 42 m 178 789 q 160 800 172 788 q 144 818 149 813 q 226 937 179 875 q 278 1000 272 999 q 301 988 289 1003 q 319 958 313 974 q 266 890 313 947 q 178 789 219 832 m 329 789 q 313 800 324 788 q 297 818 301 813 q 378 935 331 874 q 429 1000 425 997 q 452 988 440 1003 q 471 958 464 974 q 419 892 467 950 q 329 789 372 833 z "},"ō":{"ha":544,"x_min":49,"x_max":496,"o":"m 265 -14 q 144 12 190 -14 q 74 116 99 38 q 49 346 49 194 q 281 708 49 708 q 402 676 356 708 q 472 565 449 644 q 496 347 496 486 q 437 76 496 165 q 265 -14 378 -14 m 267 42 q 387 117 344 42 q 429 350 429 192 q 412 536 429 469 q 362 628 394 603 q 278 653 329 653 q 157 581 199 653 q 115 339 115 510 q 133 155 115 219 q 182 66 150 90 q 267 42 214 42 m 106 847 q 103 878 103 858 q 129 908 106 908 l 447 908 q 451 879 451 897 q 426 847 449 847 l 106 847 z "},"ø":{"ha":596,"x_min":46,"x_max":556,"o":"m 556 697 q 494 590 556 690 q 528 347 528 507 q 470 76 528 165 q 306 -14 413 -14 q 203 1 244 -14 q 135 57 163 17 q 99 -4 113 17 q 83 -29 86 -25 q 57 -21 68 -28 q 46 0 46 -14 q 110 110 46 1 q 82 346 82 190 q 311 708 82 708 q 402 693 364 708 q 467 643 440 678 l 517 725 q 529 721 519 724 q 547 712 539 718 q 556 697 556 706 m 311 651 q 190 580 232 651 q 147 339 147 508 q 163 164 147 229 l 422 594 q 376 638 403 625 q 311 651 349 651 m 300 42 q 420 117 378 42 q 463 350 463 192 q 442 544 463 478 q 214 165 410 490 l 181 110 q 229 57 200 72 q 300 42 258 42 z "},"õ":{"ha":544,"x_min":49,"x_max":496,"o":"m 265 -14 q 144 12 190 -14 q 74 116 99 38 q 49 346 49 194 q 281 708 49 708 q 402 676 356 708 q 472 565 449 644 q 496 347 496 486 q 437 76 496 165 q 265 -14 378 -14 m 267 42 q 387 117 344 42 q 429 350 429 192 q 412 536 429 469 q 362 628 394 603 q 278 653 329 653 q 157 581 199 653 q 115 339 115 510 q 133 155 115 219 q 182 66 150 90 q 267 42 214 42 m 339 808 q 290 820 308 808 q 254 854 272 832 q 242 866 251 857 q 224 880 233 875 q 206 885 215 885 q 165 872 182 885 q 134 839 149 858 q 115 819 119 819 q 92 834 104 819 q 81 851 81 849 q 145 923 113 903 q 218 943 178 943 q 255 933 240 943 q 285 906 269 924 q 313 880 300 889 q 346 871 326 871 q 397 885 379 871 q 428 917 415 899 q 446 936 442 936 q 465 920 457 936 q 474 900 474 904 q 424 837 456 865 q 339 808 392 808 z "},"œ":{"ha":903,"x_min":49,"x_max":856,"o":"m 667 47 q 763 60 717 47 q 840 96 808 72 q 849 38 849 78 q 822 17 849 29 q 751 -5 794 4 q 663 -14 708 -14 q 533 12 583 -14 q 457 113 483 38 q 272 -14 401 -14 q 147 12 194 -14 q 74 116 100 38 q 49 346 49 194 q 279 708 49 708 q 399 678 351 708 q 469 575 446 647 q 554 683 501 657 q 681 708 607 708 q 856 494 856 708 q 843 328 856 385 q 663 308 763 313 q 496 304 564 303 q 517 138 496 193 q 573 65 538 82 q 667 47 608 47 m 267 42 q 387 117 344 42 q 429 350 429 192 q 412 535 429 469 q 362 626 394 601 q 278 651 329 651 q 157 581 199 651 q 115 339 115 510 q 133 155 115 219 q 182 66 150 90 q 267 42 214 42 m 678 651 q 592 633 629 651 q 528 551 556 615 q 497 358 501 486 l 542 358 q 789 378 707 358 q 794 479 794 424 q 767 610 792 569 q 678 651 743 651 z "},"p":{"ha":564,"x_min":85,"x_max":514,"o":"m 114 -274 q 85 -249 85 -274 l 85 651 q 285 708 172 708 q 456 642 399 708 q 514 413 514 575 q 442 75 514 164 q 278 -14 371 -14 q 199 3 235 -14 q 147 40 164 19 l 147 -268 q 114 -274 132 -274 m 264 44 q 390 116 333 44 q 447 396 447 188 q 428 551 447 496 q 374 629 410 607 q 282 651 339 651 q 147 614 207 651 l 147 115 q 198 63 167 81 q 264 44 229 44 z "},"þ":{"ha":564,"x_min":85,"x_max":514,"o":"m 285 707 q 456 640 399 707 q 514 406 514 574 q 438 75 514 163 q 269 -12 361 -12 q 147 33 188 -12 l 147 -274 q 111 -278 131 -278 q 90 -274 96 -278 q 85 -254 85 -269 l 85 989 q 96 1016 85 1011 q 147 1021 107 1021 l 147 683 q 285 707 206 707 m 256 43 q 387 119 326 44 q 447 396 447 194 q 406 596 447 542 q 283 650 365 650 q 147 611 206 650 l 147 100 q 256 43 183 43 z "},"q":{"ha":575,"x_min":58,"x_max":490,"o":"m 451 -275 q 428 -274 435 -275 l 428 64 q 263 -14 372 -14 q 58 308 58 -14 q 133 609 58 510 q 338 708 208 708 q 422 698 386 708 q 490 664 458 688 l 490 -249 q 484 -271 490 -267 q 451 -275 478 -275 m 288 43 q 368 67 329 43 q 428 139 407 92 l 428 625 q 385 644 413 636 q 325 651 357 651 q 126 306 126 651 q 173 95 126 147 q 288 43 219 43 z "},"r":{"ha":389,"x_min":82,"x_max":368,"o":"m 82 647 q 267 708 168 708 q 342 696 315 708 q 368 664 368 683 q 365 643 368 654 q 358 625 363 632 q 275 647 321 647 q 144 606 199 647 l 144 17 q 141 5 144 8 q 122 1 138 1 q 82 0 107 0 l 82 647 z "},"ŕ":{"ha":389,"x_min":82,"x_max":368,"o":"m 82 647 q 267 708 168 708 q 342 696 315 708 q 368 664 368 683 q 365 643 368 654 q 358 625 363 632 q 275 647 321 647 q 144 606 199 647 l 144 17 q 141 5 144 8 q 122 1 138 1 q 82 0 107 0 l 82 647 m 139 794 q 125 810 133 794 q 114 832 117 826 q 233 940 167 885 q 304 994 300 994 q 324 976 315 994 q 335 943 333 957 q 260 883 326 933 q 139 794 194 832 z "},"ř":{"ha":389,"x_min":60,"x_max":381,"o":"m 82 647 q 267 708 168 708 q 342 696 315 708 q 368 664 368 683 q 365 643 368 654 q 358 625 363 632 q 275 647 321 647 q 144 606 199 647 l 144 17 q 141 5 144 8 q 122 1 138 1 q 82 0 107 0 l 82 647 m 231 799 q 143 871 217 799 q 60 957 69 943 q 73 981 63 967 q 93 996 83 996 q 157 938 103 996 q 231 860 211 881 q 305 946 267 904 q 354 1000 343 988 q 381 968 381 985 q 347 917 381 960 q 276 837 313 875 q 231 799 239 799 z "},"ŗ":{"ha":389,"x_min":60,"x_max":368,"o":"m 82 647 q 267 708 168 708 q 342 696 315 708 q 368 664 368 683 q 365 643 368 654 q 358 625 363 632 q 275 647 321 647 q 144 606 199 647 l 144 17 q 141 5 144 8 q 122 1 138 1 q 82 0 107 0 l 82 647 m 86 -342 q 69 -335 78 -342 q 60 -319 61 -329 q 91 -250 82 -282 q 101 -183 100 -218 q 76 -133 76 -169 q 90 -97 76 -111 q 125 -82 103 -82 q 162 -96 150 -82 q 174 -143 174 -110 q 157 -228 174 -182 q 119 -308 140 -275 q 86 -342 97 -342 z "},"s":{"ha":524,"x_min":60,"x_max":467,"o":"m 236 -14 q 108 3 157 -14 q 60 43 60 19 q 74 82 60 67 q 142 53 106 63 q 232 44 179 44 q 351 74 308 44 q 394 161 394 103 q 374 239 394 204 q 310 306 354 274 l 158 407 q 83 477 101 444 q 64 553 64 510 q 125 667 64 625 q 288 708 186 708 q 387 697 346 708 q 447 669 428 685 q 467 642 467 654 q 450 606 467 626 q 376 640 413 629 q 293 651 339 651 q 177 626 222 651 q 132 554 132 600 q 147 502 132 525 q 206 450 163 479 l 364 344 q 439 263 415 304 q 463 171 463 222 q 403 33 463 81 q 236 -14 343 -14 z "},"ś":{"ha":524,"x_min":60,"x_max":467,"o":"m 236 -14 q 108 3 157 -14 q 60 43 60 19 q 74 82 60 67 q 142 53 106 63 q 232 44 179 44 q 351 74 308 44 q 394 161 394 103 q 374 239 394 204 q 310 306 354 274 l 158 407 q 83 477 101 444 q 64 553 64 510 q 125 667 64 625 q 288 708 186 708 q 387 697 346 708 q 447 669 428 685 q 467 642 467 654 q 450 606 467 626 q 376 640 413 629 q 293 651 339 651 q 177 626 222 651 q 132 554 132 600 q 147 502 132 525 q 206 450 163 479 l 364 344 q 439 263 415 304 q 463 171 463 222 q 403 33 463 81 q 236 -14 343 -14 m 181 794 q 167 810 175 794 q 156 832 158 826 q 275 940 208 885 q 346 994 342 994 q 366 976 357 994 q 376 943 375 957 q 302 883 368 933 q 181 794 236 832 z "},"š":{"ha":524,"x_min":60,"x_max":467,"o":"m 236 -14 q 108 3 157 -14 q 60 43 60 19 q 74 82 60 67 q 142 53 106 63 q 232 44 179 44 q 351 74 308 44 q 394 161 394 103 q 374 239 394 204 q 310 306 354 274 l 158 407 q 83 477 101 444 q 64 553 64 510 q 125 667 64 625 q 288 708 186 708 q 387 697 346 708 q 447 669 428 685 q 467 642 467 654 q 450 606 467 626 q 376 640 413 629 q 293 651 339 651 q 177 626 222 651 q 132 554 132 600 q 147 502 132 525 q 206 450 163 479 l 364 344 q 439 263 415 304 q 463 171 463 222 q 403 33 463 81 q 236 -14 343 -14 m 272 799 q 185 871 258 799 q 101 957 111 943 q 115 981 104 967 q 135 996 125 996 q 199 938 144 996 q 272 860 253 881 q 347 946 308 904 q 396 1000 385 988 q 422 968 422 985 q 388 917 422 960 q 317 837 354 875 q 272 799 281 799 z "},"ş":{"ha":524,"x_min":60,"x_max":467,"o":"m 364 344 q 439 263 415 304 q 463 171 463 222 q 415 44 463 90 q 279 -11 367 -3 l 264 -83 q 271 -83 265 -83 q 290 -82 276 -82 q 338 -101 318 -82 q 357 -158 357 -119 q 328 -236 357 -211 q 261 -261 300 -261 q 215 -256 236 -261 q 189 -249 194 -251 q 193 -228 189 -243 q 203 -208 197 -214 q 213 -206 206 -204 q 235 -212 219 -207 q 263 -218 250 -218 q 311 -168 311 -218 q 299 -129 311 -139 q 264 -119 286 -119 q 231 -122 246 -119 q 211 -126 215 -125 l 233 -14 q 107 3 154 -14 q 60 43 60 19 q 74 82 60 67 q 142 53 106 63 q 232 44 179 44 q 351 74 308 44 q 394 161 394 103 q 374 239 394 204 q 310 306 354 274 l 158 407 q 83 477 101 444 q 64 553 64 510 q 125 667 64 625 q 288 708 186 708 q 387 697 346 708 q 447 669 428 685 q 467 642 467 654 q 450 606 467 626 q 376 640 413 629 q 293 651 339 651 q 177 626 222 651 q 132 554 132 600 q 147 502 132 525 q 206 450 163 479 l 364 344 z "},"ș":{"ha":524,"x_min":60,"x_max":467,"o":"m 236 -14 q 108 3 157 -14 q 60 43 60 19 q 74 82 60 67 q 142 53 106 63 q 232 44 179 44 q 351 74 308 44 q 394 161 394 103 q 374 239 394 204 q 310 306 354 274 l 158 407 q 83 477 101 444 q 64 553 64 510 q 125 667 64 625 q 288 708 186 708 q 387 697 346 708 q 447 669 428 685 q 467 642 467 654 q 450 606 467 626 q 376 640 413 629 q 293 651 339 651 q 177 626 222 651 q 132 554 132 600 q 147 502 132 525 q 206 450 163 479 l 364 344 q 439 263 415 304 q 463 171 463 222 q 403 33 463 81 q 236 -14 343 -14 m 232 -342 q 215 -335 224 -342 q 206 -319 207 -329 q 237 -250 228 -282 q 247 -183 246 -218 q 222 -133 222 -169 q 235 -97 222 -111 q 271 -82 249 -82 q 308 -96 296 -82 q 319 -143 319 -110 q 303 -228 319 -182 q 265 -308 286 -275 q 232 -342 243 -342 z "},"ß":{"ha":657,"x_min":75,"x_max":635,"o":"m 111 -11 q 85 -6 96 -11 q 75 0 75 -1 q 81 22 76 4 q 85 64 85 39 l 83 763 q 300 978 83 978 q 453 947 393 978 q 540 872 513 917 q 567 782 567 826 q 540 709 567 738 q 463 646 514 681 q 399 597 419 618 q 378 546 378 576 q 401 492 378 517 q 474 431 424 468 q 592 322 550 375 q 635 188 635 268 q 578 40 635 92 q 424 -12 521 -12 q 339 -3 376 -12 q 281 21 301 7 q 261 46 261 35 q 281 90 261 71 q 415 44 329 44 q 526 80 483 44 q 568 185 568 115 q 532 290 568 246 q 428 386 496 333 q 340 466 369 432 q 311 543 311 500 q 338 616 311 588 q 415 678 364 644 q 480 726 458 704 q 501 781 501 749 q 481 846 501 814 q 415 899 460 878 q 306 919 371 919 q 184 874 222 919 q 146 725 146 829 l 147 29 q 140 -2 147 7 q 111 -11 133 -11 z "},"ſ":{"ha":240,"x_min":79,"x_max":475,"o":"m 115 -11 q 90 -6 100 -11 q 79 1 79 0 q 85 26 81 6 q 89 75 89 46 l 89 815 q 146 977 89 929 q 314 1025 203 1025 q 395 1015 358 1025 q 453 992 432 1006 q 475 968 475 979 q 469 942 475 957 q 458 924 463 928 q 313 968 403 968 q 190 929 228 968 q 151 792 151 890 l 151 18 q 144 -6 151 0 q 115 -11 138 -11 z "},"t":{"ha":417,"x_min":42,"x_max":388,"o":"m 268 -14 q 188 13 214 -14 q 156 85 163 40 q 149 206 149 129 l 149 638 l 42 638 q 44 685 42 675 q 57 694 47 694 l 149 694 l 149 917 q 159 940 149 936 q 211 944 169 944 l 211 694 l 388 694 q 385 647 388 656 q 374 638 383 638 l 211 638 l 211 203 q 215 114 211 146 q 233 63 218 82 q 281 43 249 43 q 327 49 308 43 q 372 67 346 54 q 378 32 378 51 q 345 -2 378 10 q 268 -14 313 -14 z "},"ť":{"ha":433,"x_min":42,"x_max":429,"o":"m 268 -14 q 188 13 214 -14 q 156 85 163 40 q 149 206 149 129 l 149 638 l 42 638 q 44 685 42 675 q 57 694 47 694 l 149 694 l 149 917 q 159 940 149 936 q 211 944 169 944 l 211 694 l 388 694 q 385 647 388 656 q 374 638 383 638 l 211 638 l 211 203 q 215 114 211 146 q 233 63 218 82 q 281 43 249 43 q 327 49 308 43 q 372 67 346 54 q 378 32 378 51 q 345 -2 378 10 q 268 -14 313 -14 m 353 742 q 335 748 343 742 q 325 764 326 754 q 357 931 354 824 q 332 981 332 946 q 345 1017 332 1003 q 379 1032 358 1032 q 417 1019 404 1032 q 429 972 429 1006 q 415 878 429 933 q 383 783 401 824 q 353 742 364 742 z "},"ţ":{"ha":417,"x_min":42,"x_max":388,"o":"m 211 638 l 211 203 q 215 114 211 146 q 233 63 218 82 q 281 43 249 43 q 327 49 308 43 q 372 67 346 54 q 378 32 378 51 q 347 -2 378 10 q 271 -14 315 -14 l 256 -83 q 263 -83 257 -83 q 282 -82 268 -82 q 329 -101 310 -82 q 349 -158 349 -119 q 320 -236 349 -211 q 253 -261 292 -261 q 208 -256 229 -261 q 181 -249 186 -251 q 185 -228 181 -243 q 194 -208 189 -214 q 204 -206 197 -204 q 226 -212 211 -207 q 254 -218 242 -218 q 303 -168 303 -218 q 290 -129 303 -139 q 256 -119 278 -119 q 223 -122 239 -119 q 203 -126 207 -125 l 226 -8 q 163 56 176 6 q 149 206 149 107 l 149 638 l 42 638 q 44 685 42 675 q 57 694 47 694 l 149 694 l 149 917 q 159 940 149 936 q 211 944 169 944 l 211 694 l 388 694 q 385 647 388 656 q 374 638 383 638 l 211 638 z "},"ț":{"ha":417,"x_min":42,"x_max":388,"o":"m 268 -14 q 188 13 214 -14 q 156 85 163 40 q 149 206 149 129 l 149 638 l 42 638 q 44 685 42 675 q 57 694 47 694 l 149 694 l 149 917 q 159 940 149 936 q 211 944 169 944 l 211 694 l 388 694 q 385 647 388 656 q 374 638 383 638 l 211 638 l 211 203 q 215 114 211 146 q 233 63 218 82 q 281 43 249 43 q 327 49 308 43 q 372 67 346 54 q 378 32 378 51 q 345 -2 378 10 q 268 -14 313 -14 m 224 -342 q 207 -335 215 -342 q 197 -319 199 -329 q 228 -250 219 -282 q 239 -183 238 -218 q 214 -133 214 -169 q 227 -97 214 -111 q 263 -82 240 -82 q 299 -96 288 -82 q 311 -143 311 -110 q 294 -228 311 -182 q 256 -308 278 -275 q 224 -342 235 -342 z "},"u":{"ha":589,"x_min":88,"x_max":503,"o":"m 292 -14 q 167 11 211 -14 q 105 91 122 36 q 88 242 88 146 l 88 678 q 90 690 88 688 q 108 694 93 693 q 150 694 124 694 l 150 232 q 163 117 150 157 q 206 60 175 78 q 299 43 238 43 q 370 51 331 43 q 440 76 410 58 l 440 678 q 444 690 440 686 q 463 694 447 693 q 503 694 478 694 l 503 33 q 401 -2 457 10 q 292 -14 344 -14 z "},"ú":{"ha":589,"x_min":88,"x_max":503,"o":"m 292 -14 q 167 11 211 -14 q 105 91 122 36 q 88 242 88 146 l 88 678 q 90 690 88 688 q 108 694 93 693 q 150 694 124 694 l 150 232 q 163 117 150 157 q 206 60 175 78 q 299 43 238 43 q 370 51 331 43 q 440 76 410 58 l 440 678 q 444 690 440 686 q 463 694 447 693 q 503 694 478 694 l 503 33 q 401 -2 457 10 q 292 -14 344 -14 m 214 794 q 200 810 208 794 q 189 832 192 826 q 308 940 242 885 q 379 994 375 994 q 399 976 390 994 q 410 943 408 957 q 335 883 401 933 q 214 794 269 832 z "},"û":{"ha":589,"x_min":88,"x_max":503,"o":"m 292 -14 q 167 11 211 -14 q 105 91 122 36 q 88 242 88 146 l 88 678 q 90 690 88 688 q 108 694 93 693 q 150 694 124 694 l 150 232 q 163 117 150 157 q 206 60 175 78 q 299 43 238 43 q 370 51 331 43 q 440 76 410 58 l 440 678 q 444 690 440 686 q 463 694 447 693 q 503 694 478 694 l 503 33 q 401 -2 457 10 q 292 -14 344 -14 m 411 796 q 349 863 394 814 q 300 919 304 911 q 234 849 283 900 q 175 797 185 797 q 131 821 150 797 l 285 974 q 301 976 293 976 q 326 965 315 976 q 403 886 347 944 q 460 822 460 828 q 444 806 460 815 q 411 796 428 796 z "},"ü":{"ha":589,"x_min":88,"x_max":503,"o":"m 292 -14 q 167 11 211 -14 q 105 91 122 36 q 88 242 88 146 l 88 678 q 90 690 88 688 q 108 694 93 693 q 150 694 124 694 l 150 232 q 163 117 150 157 q 206 60 175 78 q 299 43 238 43 q 370 51 331 43 q 440 76 410 58 l 440 678 q 444 690 440 686 q 463 694 447 693 q 503 694 478 694 l 503 33 q 401 -2 457 10 q 292 -14 344 -14 m 219 832 q 185 886 183 832 q 224 940 185 940 q 251 927 243 940 q 258 886 260 914 q 219 832 258 832 m 368 832 q 341 845 350 832 q 332 886 332 858 q 372 940 335 940 q 400 927 392 940 q 407 886 408 914 q 368 832 407 832 z "},"ụ":{"ha":589,"x_min":88,"x_max":503,"o":"m 292 -14 q 167 11 211 -14 q 105 91 122 36 q 88 242 88 146 l 88 678 q 90 690 88 688 q 108 694 93 693 q 150 694 124 694 l 150 232 q 163 117 150 157 q 206 60 175 78 q 299 43 238 43 q 370 51 331 43 q 440 76 410 58 l 440 678 q 444 690 440 686 q 463 694 447 693 q 503 694 478 694 l 503 33 q 401 -2 457 10 q 292 -14 344 -14 m 294 -211 q 268 -198 276 -211 q 260 -157 260 -185 q 299 -104 263 -104 q 326 -117 318 -104 q 335 -157 335 -129 q 294 -211 332 -211 z "},"ù":{"ha":589,"x_min":88,"x_max":503,"o":"m 292 -14 q 167 11 211 -14 q 105 91 122 36 q 88 242 88 146 l 88 678 q 90 690 88 688 q 108 694 93 693 q 150 694 124 694 l 150 232 q 163 117 150 157 q 206 60 175 78 q 299 43 238 43 q 370 51 331 43 q 440 76 410 58 l 440 678 q 444 690 440 686 q 463 694 447 693 q 503 694 478 694 l 503 33 q 401 -2 457 10 q 292 -14 344 -14 m 385 792 q 265 878 331 828 q 189 939 199 929 q 199 972 190 953 q 219 990 208 990 q 291 935 225 990 q 410 828 357 881 q 399 807 407 822 q 385 792 390 792 z "},"ủ":{"ha":589,"x_min":88,"x_max":503,"o":"m 292 -14 q 167 11 211 -14 q 105 91 122 36 q 88 242 88 146 l 88 678 q 90 690 88 688 q 108 694 93 693 q 150 694 124 694 l 150 232 q 163 117 150 157 q 206 60 175 78 q 299 43 238 43 q 370 51 331 43 q 440 76 410 58 l 440 678 q 444 690 440 686 q 463 694 447 693 q 503 694 478 694 l 503 33 q 401 -2 457 10 q 292 -14 344 -14 m 265 763 q 265 768 265 764 q 264 778 264 772 q 268 799 264 792 q 293 825 274 808 q 315 846 308 836 q 322 876 322 856 q 267 935 322 935 q 213 918 236 935 l 213 967 q 228 979 213 972 q 265 986 244 986 q 351 959 322 986 q 379 882 379 932 q 365 833 379 850 q 336 806 351 815 q 317 793 321 796 q 309 777 311 788 q 307 764 307 767 q 282 761 304 761 l 265 763 z "},"ư":{"ha":589,"x_min":88,"x_max":617,"o":"m 614 779 q 590 695 617 733 q 503 647 564 657 l 503 33 q 401 -2 457 10 q 292 -14 344 -14 q 167 11 211 -14 q 105 91 122 36 q 88 242 88 146 l 88 678 q 90 690 88 688 q 108 694 93 693 q 150 694 124 694 l 150 232 q 163 117 150 157 q 206 60 175 78 q 299 43 238 43 q 370 51 331 43 q 440 76 410 58 l 440 678 q 448 692 440 689 q 489 694 456 694 q 544 722 529 700 q 558 785 558 744 q 581 797 558 797 q 603 792 593 797 q 614 779 614 788 z "},"ứ":{"ha":589,"x_min":88,"x_max":614,"o":"m 614 779 q 590 695 617 733 q 503 647 564 657 l 503 33 q 401 -2 457 10 q 292 -14 344 -14 q 167 11 211 -14 q 105 91 122 36 q 88 242 88 146 l 88 678 q 90 690 88 688 q 108 694 93 693 q 150 694 124 694 l 150 232 q 163 117 150 157 q 206 60 175 78 q 299 43 238 43 q 370 51 331 43 q 440 76 410 58 l 440 678 q 448 692 440 689 q 489 694 456 694 q 544 722 529 700 q 558 785 558 744 q 581 797 558 797 q 603 792 593 797 q 614 779 614 788 m 214 794 q 200 810 208 794 q 189 832 192 826 q 308 940 242 885 q 379 994 375 994 q 399 976 390 994 q 410 943 408 957 q 335 883 401 933 q 214 794 269 832 z "},"ự":{"ha":589,"x_min":88,"x_max":614,"o":"m 614 779 q 590 695 617 733 q 503 647 564 657 l 503 33 q 401 -2 457 10 q 292 -14 344 -14 q 167 11 211 -14 q 105 91 122 36 q 88 242 88 146 l 88 678 q 90 690 88 688 q 108 694 93 693 q 150 694 124 694 l 150 232 q 163 117 150 157 q 206 60 175 78 q 299 43 238 43 q 370 51 331 43 q 440 76 410 58 l 440 678 q 448 692 440 689 q 489 694 456 694 q 544 722 529 700 q 558 785 558 744 q 581 797 558 797 q 603 792 593 797 q 614 779 614 788 m 294 -211 q 268 -198 276 -211 q 260 -157 260 -185 q 299 -104 263 -104 q 326 -117 318 -104 q 335 -157 335 -129 q 294 -211 332 -211 z "},"ừ":{"ha":589,"x_min":88,"x_max":614,"o":"m 614 779 q 590 695 617 733 q 503 647 564 657 l 503 33 q 401 -2 457 10 q 292 -14 344 -14 q 167 11 211 -14 q 105 91 122 36 q 88 242 88 146 l 88 678 q 90 690 88 688 q 108 694 93 693 q 150 694 124 694 l 150 232 q 163 117 150 157 q 206 60 175 78 q 299 43 238 43 q 370 51 331 43 q 440 76 410 58 l 440 678 q 448 692 440 689 q 489 694 456 694 q 544 722 529 700 q 558 785 558 744 q 581 797 558 797 q 603 792 593 797 q 614 779 614 788 m 347 792 q 227 878 293 828 q 151 939 161 929 q 162 972 153 953 q 182 990 171 990 q 253 935 188 990 q 372 828 319 881 q 361 807 369 822 q 347 792 353 792 z "},"ử":{"ha":589,"x_min":88,"x_max":614,"o":"m 614 779 q 590 695 617 733 q 503 647 564 657 l 503 33 q 401 -2 457 10 q 292 -14 344 -14 q 167 11 211 -14 q 105 91 122 36 q 88 242 88 146 l 88 678 q 90 690 88 688 q 108 694 93 693 q 150 694 124 694 l 150 232 q 163 117 150 157 q 206 60 175 78 q 299 43 238 43 q 370 51 331 43 q 440 76 410 58 l 440 678 q 448 692 440 689 q 489 694 456 694 q 544 722 529 700 q 558 785 558 744 q 581 797 558 797 q 603 792 593 797 q 614 779 614 788 m 265 763 q 265 768 265 764 q 264 778 264 772 q 268 799 264 792 q 293 825 274 808 q 315 846 308 836 q 322 876 322 856 q 267 935 322 935 q 213 918 236 935 l 213 967 q 228 979 213 972 q 265 986 244 986 q 351 959 322 986 q 379 882 379 932 q 365 833 379 850 q 336 806 351 815 q 317 793 321 796 q 309 777 311 788 q 307 764 307 767 q 282 761 304 761 l 265 763 z "},"ữ":{"ha":589,"x_min":88,"x_max":614,"o":"m 614 779 q 590 695 617 733 q 503 647 564 657 l 503 33 q 401 -2 457 10 q 292 -14 344 -14 q 167 11 211 -14 q 105 91 122 36 q 88 242 88 146 l 88 678 q 90 690 88 688 q 108 694 93 693 q 150 694 124 694 l 150 232 q 163 117 150 157 q 206 60 175 78 q 299 43 238 43 q 370 51 331 43 q 440 76 410 58 l 440 678 q 448 692 440 689 q 489 694 456 694 q 544 722 529 700 q 558 785 558 744 q 581 797 558 797 q 603 792 593 797 q 614 779 614 788 m 357 808 q 308 820 326 808 q 272 854 290 832 q 260 866 269 857 q 242 880 251 875 q 224 885 233 885 q 183 872 200 885 q 152 839 167 858 q 133 819 138 819 q 110 834 122 819 q 99 851 99 849 q 163 923 131 903 q 236 943 196 943 q 273 933 258 943 q 303 906 288 924 q 331 880 318 889 q 364 871 344 871 q 415 885 397 871 q 447 917 433 899 q 464 936 460 936 q 483 920 475 936 q 492 900 492 904 q 442 837 474 865 q 357 808 410 808 z "},"ű":{"ha":589,"x_min":88,"x_max":503,"o":"m 292 -14 q 167 11 211 -14 q 105 91 122 36 q 88 242 88 146 l 88 678 q 90 690 88 688 q 108 694 93 693 q 150 694 124 694 l 150 232 q 163 117 150 157 q 206 60 175 78 q 299 43 238 43 q 370 51 331 43 q 440 76 410 58 l 440 678 q 444 690 440 686 q 463 694 447 693 q 503 694 478 694 l 503 33 q 401 -2 457 10 q 292 -14 344 -14 m 196 789 q 178 800 190 788 q 163 818 167 813 q 244 937 197 875 q 296 1000 290 999 q 319 988 307 1003 q 338 958 331 974 q 284 890 331 947 q 196 789 238 832 m 347 789 q 331 800 342 788 q 315 818 319 813 q 396 935 349 874 q 447 1000 443 997 q 470 988 458 1003 q 489 958 482 974 q 438 892 485 950 q 347 789 390 833 z "},"ū":{"ha":589,"x_min":88,"x_max":503,"o":"m 292 -14 q 167 11 211 -14 q 105 91 122 36 q 88 242 88 146 l 88 678 q 90 690 88 688 q 108 694 93 693 q 150 694 124 694 l 150 232 q 163 117 150 157 q 206 60 175 78 q 299 43 238 43 q 370 51 331 43 q 440 76 410 58 l 440 678 q 444 690 440 686 q 463 694 447 693 q 503 694 478 694 l 503 33 q 401 -2 457 10 q 292 -14 344 -14 m 124 847 q 121 878 121 858 q 147 908 124 908 l 465 908 q 469 879 469 897 q 444 847 467 847 l 124 847 z "},"ų":{"ha":589,"x_min":88,"x_max":503,"o":"m 436 -271 q 358 -244 386 -271 q 331 -162 331 -217 q 349 -81 331 -119 q 397 -1 367 -42 q 290 -14 347 -14 q 166 11 210 -14 q 105 91 122 36 q 88 242 88 146 l 88 678 q 90 690 88 688 q 108 694 93 693 q 150 694 124 694 l 150 232 q 163 119 150 160 q 205 61 175 79 q 292 43 235 43 q 440 76 382 43 l 440 678 q 444 690 440 686 q 463 694 447 693 q 503 694 478 694 l 503 33 q 423 -48 457 6 q 389 -156 389 -101 q 403 -203 389 -187 q 447 -219 417 -219 q 492 -208 469 -219 q 499 -229 499 -219 q 500 -244 500 -235 q 436 -271 494 -271 z "},"ů":{"ha":589,"x_min":88,"x_max":503,"o":"m 292 -14 q 167 11 211 -14 q 105 91 122 36 q 88 242 88 146 l 88 678 q 90 690 88 688 q 108 694 93 693 q 150 694 124 694 l 150 232 q 163 117 150 157 q 206 60 175 78 q 299 43 238 43 q 370 51 331 43 q 440 76 410 58 l 440 678 q 444 690 440 686 q 463 694 447 693 q 503 694 478 694 l 503 33 q 401 -2 457 10 q 292 -14 344 -14 m 292 775 q 204 803 235 775 q 174 897 174 832 q 208 990 174 960 q 301 1021 242 1021 q 389 993 361 1021 q 417 897 417 965 q 384 806 417 838 q 292 775 351 775 m 292 824 q 367 899 367 824 q 351 954 367 938 q 301 971 335 971 q 244 953 263 971 q 225 894 225 936 q 242 842 225 861 q 292 824 258 824 z "},"ũ":{"ha":589,"x_min":88,"x_max":503,"o":"m 292 -14 q 167 11 211 -14 q 105 91 122 36 q 88 242 88 146 l 88 678 q 90 690 88 688 q 108 694 93 693 q 150 694 124 694 l 150 232 q 163 117 150 157 q 206 60 175 78 q 299 43 238 43 q 370 51 331 43 q 440 76 410 58 l 440 678 q 444 690 440 686 q 463 694 447 693 q 503 694 478 694 l 503 33 q 401 -2 457 10 q 292 -14 344 -14 m 357 808 q 308 820 326 808 q 272 854 290 832 q 260 866 269 857 q 242 880 251 875 q 224 885 233 885 q 183 872 200 885 q 152 839 167 858 q 133 819 138 819 q 110 834 122 819 q 99 851 99 849 q 163 923 131 903 q 236 943 196 943 q 273 933 258 943 q 303 906 288 924 q 331 880 318 889 q 364 871 344 871 q 415 885 397 871 q 447 917 433 899 q 464 936 460 936 q 483 920 475 936 q 492 900 492 904 q 442 837 474 865 q 357 808 410 808 z "},"v":{"ha":501,"x_min":36,"x_max":464,"o":"m 239 -11 q 208 57 228 -11 l 39 674 q 40 689 36 685 q 59 694 43 693 q 101 694 75 694 l 168 446 q 223 222 197 338 q 256 72 249 106 l 257 72 q 288 222 264 106 q 339 447 311 338 l 399 676 q 405 690 401 686 q 424 694 408 693 q 464 694 439 694 l 279 -10 q 239 -11 271 -11 z "},"w":{"ha":774,"x_min":35,"x_max":738,"o":"m 672 676 q 677 690 674 686 q 696 694 681 693 q 738 694 711 694 q 644 288 713 585 q 575 -10 576 -10 l 538 -11 q 521 10 532 -11 q 501 65 510 32 l 478 161 q 399 515 429 358 l 388 564 q 303 161 353 371 l 263 -10 l 217 -11 q 188 57 204 -11 q 101 416 147 228 q 38 676 56 604 q 38 690 35 686 q 58 694 42 693 q 101 694 75 694 l 163 431 q 208 215 188 318 q 233 83 228 113 l 238 83 q 286 314 240 99 l 306 403 l 356 653 q 362 666 357 663 q 378 669 367 669 l 418 669 l 479 399 q 525 206 504 300 q 551 83 546 111 l 556 83 q 581 235 563 135 q 619 431 599 336 l 672 676 z "},"ẃ":{"ha":774,"x_min":36,"x_max":738,"o":"m 672 676 q 677 690 674 686 q 696 694 681 693 q 738 694 711 694 q 644 288 713 585 q 575 -10 576 -10 l 538 -11 q 521 10 532 -11 q 501 65 510 32 l 478 161 q 399 515 429 358 l 388 564 q 303 161 353 371 l 263 -10 l 217 -11 q 188 57 204 -11 q 101 416 147 228 q 38 676 56 604 q 38 690 35 686 q 58 694 42 693 q 101 694 75 694 l 163 431 q 208 215 188 318 q 233 83 228 113 l 238 83 q 286 314 240 99 l 306 403 l 356 653 q 362 666 357 663 q 378 669 367 669 l 418 669 l 479 399 q 525 206 504 300 q 551 83 546 111 l 556 83 q 581 235 563 135 q 619 431 599 336 l 672 676 m 306 794 q 292 810 300 794 q 281 832 283 826 q 400 940 333 885 q 471 994 467 994 q 491 976 482 994 q 501 943 500 957 q 427 883 493 933 q 306 794 361 832 z "},"ŵ":{"ha":774,"x_min":36,"x_max":738,"o":"m 672 676 q 677 690 674 686 q 696 694 681 693 q 738 694 711 694 q 644 288 713 585 q 575 -10 576 -10 l 538 -11 q 521 10 532 -11 q 501 65 510 32 l 478 161 q 399 515 429 358 l 388 564 q 303 161 353 371 l 263 -10 l 217 -11 q 188 57 204 -11 q 101 416 147 228 q 38 676 56 604 q 38 690 35 686 q 58 694 42 693 q 101 694 75 694 l 163 431 q 208 215 188 318 q 233 83 228 113 l 238 83 q 286 314 240 99 l 306 403 l 356 653 q 362 666 357 663 q 378 669 367 669 l 418 669 l 479 399 q 525 206 504 300 q 551 83 546 111 l 556 83 q 581 235 563 135 q 619 431 599 336 l 672 676 m 503 796 q 441 863 486 814 q 392 919 396 911 q 326 849 375 900 q 267 797 276 797 q 222 821 242 797 l 376 974 q 393 976 385 976 q 418 965 407 976 q 495 886 439 944 q 551 822 551 828 q 535 806 551 815 q 503 796 519 796 z "},"ẅ":{"ha":774,"x_min":36,"x_max":738,"o":"m 672 676 q 677 690 674 686 q 696 694 681 693 q 738 694 711 694 q 644 288 713 585 q 575 -10 576 -10 l 538 -11 q 521 10 532 -11 q 501 65 510 32 l 478 161 q 399 515 429 358 l 388 564 q 303 161 353 371 l 263 -10 l 217 -11 q 188 57 204 -11 q 101 416 147 228 q 38 676 56 604 q 38 690 35 686 q 58 694 42 693 q 101 694 75 694 l 163 431 q 208 215 188 318 q 233 83 228 113 l 238 83 q 286 314 240 99 l 306 403 l 356 653 q 362 666 357 663 q 378 669 367 669 l 418 669 l 479 399 q 525 206 504 300 q 551 83 546 111 l 556 83 q 581 235 563 135 q 619 431 599 336 l 672 676 m 311 832 q 276 886 275 832 q 315 940 276 940 q 343 927 335 940 q 350 886 351 914 q 311 832 350 832 m 460 832 q 433 845 442 832 q 424 886 424 858 q 464 940 426 940 q 492 927 483 940 q 499 886 500 914 q 460 832 499 832 z "},"ẁ":{"ha":774,"x_min":36,"x_max":738,"o":"m 672 676 q 677 690 674 686 q 696 694 681 693 q 738 694 711 694 q 644 288 713 585 q 575 -10 576 -10 l 538 -11 q 521 10 532 -11 q 501 65 510 32 l 478 161 q 399 515 429 358 l 388 564 q 303 161 353 371 l 263 -10 l 217 -11 q 188 57 204 -11 q 101 416 147 228 q 38 676 56 604 q 38 690 35 686 q 58 694 42 693 q 101 694 75 694 l 163 431 q 208 215 188 318 q 233 83 228 113 l 238 83 q 286 314 240 99 l 306 403 l 356 653 q 362 666 357 663 q 378 669 367 669 l 418 669 l 479 399 q 525 206 504 300 q 551 83 546 111 l 556 83 q 581 235 563 135 q 619 431 599 336 l 672 676 m 476 792 q 356 878 422 828 q 281 939 290 929 q 291 972 282 953 q 311 990 300 990 q 383 935 317 990 q 501 828 449 881 q 490 807 499 822 q 476 792 482 792 z "},"x":{"ha":621,"x_min":35,"x_max":586,"o":"m 582 18 q 586 7 586 13 q 567 1 586 1 q 514 0 549 0 l 435 119 q 308 322 383 197 q 181 118 213 165 l 111 14 q 94 2 106 4 q 35 0 83 0 l 272 367 l 69 683 q 67 691 65 689 q 87 694 69 693 q 133 694 104 694 l 211 578 q 315 410 290 453 q 421 579 356 479 l 489 683 q 497 692 493 690 q 518 694 501 693 q 564 694 535 694 l 353 371 l 582 18 z "},"y":{"ha":521,"x_min":6,"x_max":479,"o":"m 101 -268 q 31 -258 56 -268 q 6 -232 6 -249 q 9 -211 6 -222 q 18 -193 13 -200 q 57 -206 33 -201 q 100 -211 81 -211 q 238 -22 193 -211 l 51 675 q 51 690 49 686 q 69 694 53 693 q 111 694 85 694 l 226 257 q 253 132 242 196 q 268 50 265 68 q 281 131 271 68 q 307 258 292 194 l 410 674 q 416 689 413 685 q 435 694 419 693 q 479 694 451 694 l 290 -44 q 214 -217 258 -167 q 101 -268 169 -268 z "},"ý":{"ha":521,"x_min":6,"x_max":479,"o":"m 101 -268 q 31 -258 56 -268 q 6 -232 6 -249 q 9 -211 6 -222 q 18 -193 13 -200 q 57 -206 33 -201 q 100 -211 81 -211 q 238 -22 193 -211 l 51 675 q 51 690 49 686 q 69 694 53 693 q 111 694 85 694 l 226 257 q 253 132 242 196 q 268 50 265 68 q 281 131 271 68 q 307 258 292 194 l 410 674 q 416 689 413 685 q 435 694 419 693 q 479 694 451 694 l 290 -44 q 214 -217 258 -167 q 101 -268 169 -268 m 179 794 q 165 810 174 794 q 154 832 157 826 q 274 940 207 885 q 344 994 340 994 q 365 976 356 994 q 375 943 374 957 q 301 883 367 933 q 179 794 235 832 z "},"ŷ":{"ha":521,"x_min":6,"x_max":479,"o":"m 101 -268 q 31 -258 56 -268 q 6 -232 6 -249 q 9 -211 6 -222 q 18 -193 13 -200 q 57 -206 33 -201 q 100 -211 81 -211 q 238 -22 193 -211 l 51 675 q 51 690 49 686 q 69 694 53 693 q 111 694 85 694 l 226 257 q 253 132 242 196 q 268 50 265 68 q 281 131 271 68 q 307 258 292 194 l 410 674 q 416 689 413 685 q 435 694 419 693 q 479 694 451 694 l 290 -44 q 214 -217 258 -167 q 101 -268 169 -268 m 376 796 q 315 863 360 814 q 265 919 269 911 q 199 849 249 900 q 140 797 150 797 q 96 821 115 797 l 250 974 q 267 976 258 976 q 292 965 281 976 q 369 886 313 944 q 425 822 425 828 q 409 806 425 815 q 376 796 393 796 z "},"ÿ":{"ha":521,"x_min":6,"x_max":479,"o":"m 101 -268 q 31 -258 56 -268 q 6 -232 6 -249 q 9 -211 6 -222 q 18 -193 13 -200 q 57 -206 33 -201 q 100 -211 81 -211 q 238 -22 193 -211 l 51 675 q 51 690 49 686 q 69 694 53 693 q 111 694 85 694 l 226 257 q 253 132 242 196 q 268 50 265 68 q 281 131 271 68 q 307 258 292 194 l 410 674 q 416 689 413 685 q 435 694 419 693 q 479 694 451 694 l 290 -44 q 214 -217 258 -167 q 101 -268 169 -268 m 185 832 q 150 886 149 832 q 189 940 150 940 q 217 927 208 940 q 224 886 225 914 q 185 832 224 832 m 333 832 q 306 845 315 832 q 297 886 297 858 q 338 940 300 940 q 365 927 357 940 q 372 886 374 914 q 333 832 372 832 z "},"ỵ":{"ha":521,"x_min":6,"x_max":479,"o":"m 101 -268 q 31 -258 56 -268 q 6 -232 6 -249 q 9 -211 6 -222 q 18 -193 13 -200 q 57 -206 33 -201 q 100 -211 81 -211 q 238 -22 193 -211 l 51 675 q 51 690 49 686 q 69 694 53 693 q 111 694 85 694 l 226 257 q 253 132 242 196 q 268 50 265 68 q 281 131 271 68 q 307 258 292 194 l 410 674 q 416 689 413 685 q 435 694 419 693 q 479 694 451 694 l 290 -44 q 214 -217 258 -167 q 101 -268 169 -268 m 371 -211 q 344 -198 353 -211 q 336 -157 336 -185 q 375 -104 339 -104 q 403 -117 394 -104 q 411 -157 411 -129 q 371 -211 408 -211 z "},"ỳ":{"ha":521,"x_min":6,"x_max":479,"o":"m 101 -268 q 31 -258 56 -268 q 6 -232 6 -249 q 9 -211 6 -222 q 18 -193 13 -200 q 57 -206 33 -201 q 100 -211 81 -211 q 238 -22 193 -211 l 51 675 q 51 690 49 686 q 69 694 53 693 q 111 694 85 694 l 226 257 q 253 132 242 196 q 268 50 265 68 q 281 131 271 68 q 307 258 292 194 l 410 674 q 416 689 413 685 q 435 694 419 693 q 479 694 451 694 l 290 -44 q 214 -217 258 -167 q 101 -268 169 -268 m 350 792 q 230 878 296 828 q 154 939 164 929 q 165 972 156 953 q 185 990 174 990 q 256 935 190 990 q 375 828 322 881 q 364 807 372 822 q 350 792 356 792 z "},"ỷ":{"ha":521,"x_min":6,"x_max":479,"o":"m 101 -268 q 31 -258 56 -268 q 6 -232 6 -249 q 9 -211 6 -222 q 18 -193 13 -200 q 57 -206 33 -201 q 100 -211 81 -211 q 238 -22 193 -211 l 51 675 q 51 690 49 686 q 69 694 53 693 q 111 694 85 694 l 226 257 q 253 132 242 196 q 268 50 265 68 q 281 131 271 68 q 307 258 292 194 l 410 674 q 416 689 413 685 q 435 694 419 693 q 479 694 451 694 l 290 -44 q 214 -217 258 -167 q 101 -268 169 -268 m 231 763 q 230 768 231 764 q 229 778 229 772 q 233 799 229 792 q 258 825 239 808 q 281 846 274 836 q 288 876 288 856 q 232 935 288 935 q 178 918 201 935 l 178 967 q 194 979 178 972 q 231 986 210 986 q 316 959 288 986 q 344 882 344 932 q 331 833 344 850 q 301 806 317 815 q 282 793 286 796 q 274 777 276 788 q 272 764 272 767 q 247 761 269 761 l 231 763 z "},"ỹ":{"ha":521,"x_min":6,"x_max":479,"o":"m 101 -268 q 31 -258 56 -268 q 6 -232 6 -249 q 9 -211 6 -222 q 18 -193 13 -200 q 57 -206 33 -201 q 100 -211 81 -211 q 238 -22 193 -211 l 51 675 q 51 690 49 686 q 69 694 53 693 q 111 694 85 694 l 226 257 q 253 132 242 196 q 268 50 265 68 q 281 131 271 68 q 307 258 292 194 l 410 674 q 416 689 413 685 q 435 694 419 693 q 479 694 451 694 l 290 -44 q 214 -217 258 -167 q 101 -268 169 -268 m 322 808 q 274 820 292 808 q 238 854 256 832 q 226 866 235 857 q 208 880 217 875 q 189 885 199 885 q 149 872 165 885 q 117 839 132 858 q 99 819 103 819 q 76 834 88 819 q 64 851 64 849 q 128 923 96 903 q 201 943 161 943 q 238 933 224 943 q 268 906 253 924 q 297 880 283 889 q 329 871 310 871 q 381 885 363 871 q 412 917 399 899 q 429 936 425 936 q 449 920 440 936 q 457 900 457 904 q 407 837 439 865 q 322 808 375 808 z "},"z":{"ha":521,"x_min":46,"x_max":475,"o":"m 56 0 q 50 10 54 1 q 46 32 46 19 q 51 58 46 47 l 400 639 l 222 639 q 54 632 114 639 q 53 664 53 647 q 74 694 53 694 l 467 694 q 472 688 468 693 q 475 674 475 682 q 467 639 475 656 l 119 60 l 296 60 q 471 69 415 60 q 472 39 472 63 q 467 8 472 17 q 447 0 463 0 l 56 0 z "},"ź":{"ha":521,"x_min":46,"x_max":475,"o":"m 56 0 q 50 10 54 1 q 46 32 46 19 q 51 58 46 47 l 400 639 l 222 639 q 54 632 114 639 q 53 664 53 647 q 74 694 53 694 l 467 694 q 472 688 468 693 q 475 674 475 682 q 467 639 475 656 l 119 60 l 296 60 q 471 69 415 60 q 472 39 472 63 q 467 8 472 17 q 447 0 463 0 l 56 0 m 178 794 q 164 810 172 794 q 153 832 156 826 q 272 940 206 885 q 343 994 339 994 q 363 976 354 994 q 374 943 372 957 q 299 883 365 933 q 178 794 233 832 z "},"ž":{"ha":521,"x_min":46,"x_max":475,"o":"m 56 0 q 50 10 54 1 q 46 32 46 19 q 51 58 46 47 l 400 639 l 222 639 q 54 632 114 639 q 53 664 53 647 q 74 694 53 694 l 467 694 q 472 688 468 693 q 475 674 475 682 q 467 639 475 656 l 119 60 l 296 60 q 471 69 415 60 q 472 39 472 63 q 467 8 472 17 q 447 0 463 0 l 56 0 m 269 799 q 182 871 256 799 q 99 957 108 943 q 112 981 101 967 q 132 996 122 996 q 196 938 142 996 q 269 860 250 881 q 344 946 306 904 q 393 1000 382 988 q 419 968 419 985 q 385 917 419 960 q 315 837 351 875 q 269 799 278 799 z "},"ż":{"ha":521,"x_min":46,"x_max":475,"o":"m 56 0 q 50 10 54 1 q 46 32 46 19 q 51 58 46 47 l 400 639 l 222 639 q 54 632 114 639 q 53 664 53 647 q 74 694 53 694 l 467 694 q 472 688 468 693 q 475 674 475 682 q 467 639 475 656 l 119 60 l 296 60 q 471 69 415 60 q 472 39 472 63 q 467 8 472 17 q 447 0 463 0 l 56 0 m 257 831 q 229 844 238 831 q 221 886 221 857 q 261 942 224 942 q 290 928 282 942 q 299 886 299 915 q 257 831 296 831 z "}}}
